<?xml version="1.0" standalone="no"?>
<!DOCTYPE svg PUBLIC "-//W3C//DTD SVG 1.1//EN" "http://www.w3.org/Graphics/SVG/1.1/DTD/svg11.dtd" >
<svg>
<metadata>
Created by FontForge 20090622 at Wed Apr 15 11:18:11 2015
 By deploy user
Typeface and data copyright 1996 Microsoft Corporation. All Rights Reserved.
</metadata>
<defs>
<font id="Georgia_Zebra" horiz-adv-x="1024" >
  <font-face 
    font-family="Georgia_Zebra"
    font-weight="400"
    font-stretch="normal"
    units-per-em="2048"
    panose-1="2 4 5 2 5 4 5 2 3 3"
    ascent="1638"
    descent="-410"
    x-height="986"
    cap-height="1419"
    bbox="-355 -444 2564 1868"
    underline-thickness="101"
    underline-position="-231"
    unicode-range="U+0020-U+F010"
  />
<missing-glyph horiz-adv-x="2048" 
d="M256 0v1536h1536v-1536h-1536zM384 128h1280v1280h-1280v-1280z" />
    <glyph glyph-name=".notdef" horiz-adv-x="2048" 
d="M256 0v1536h1536v-1536h-1536zM384 128h1280v1280h-1280v-1280z" />
    <glyph glyph-name=".null" horiz-adv-x="0" 
 />
    <glyph glyph-name="nonmarkingreturn" horiz-adv-x="494" 
 />
    <glyph glyph-name="space" unicode=" " horiz-adv-x="494" 
 />
    <glyph glyph-name="space" unicode="&#xa0;" horiz-adv-x="494" 
 />
    <glyph glyph-name="exclam" unicode="!" horiz-adv-x="678" 
d="M472 1321q0 -50 -33 -336t-58 -553h-78q-22 267 -54.5 553t-32.5 336q0 57 36 96t92 39t92 -38.5t36 -96.5zM481 115q0 -56 -40.5 -95.5t-96.5 -39.5t-96.5 39.5t-40.5 95.5t40.5 96.5t96.5 40.5t96.5 -40.5t40.5 -96.5z" />
    <glyph glyph-name="quotedbl" unicode="&#x22;" horiz-adv-x="843" 
d="M725 1417q0 -40 -26 -154t-58 -296h-62q-23 148 -51.5 282t-28.5 168q0 46 28 79t85 33q55 0 84 -33t29 -79zM343 1417q0 -40 -26 -154t-58 -296h-61q-27 170 -53.5 290.5t-26.5 159.5q0 46 28 79t85 33q54 0 83 -33t29 -79z" />
    <glyph glyph-name="numbersign" unicode="#" horiz-adv-x="1317" 
d="M1163 745h-249l-72 -251h261v-123h-296l-107 -371h-111l107 371h-217l-107 -371h-111l107 371h-214v123h249l73 251h-262v123h296l105 362h111l-105 -362h217l105 362h111l-105 -362h214v-123zM807 747h-222l-74 -255h221z" />
    <glyph glyph-name="dollar" unicode="$" horiz-adv-x="1249" 
d="M1018 580q40 -39 62.5 -91t22.5 -124q0 -157 -120 -263.5t-302 -118.5v-282h-82v280q-198 4 -321 94.5t-123 224.5q0 59 26 90.5t73 31.5q53 0 83 -26.5t30 -62.5q0 -27 -19 -81.5t-24 -74.5q29 -52 100.5 -84t174.5 -33v506l-76.5 28t-85.5 34q-115 47 -180 123.5
t-65 198.5q0 144 120 243t287 102v229h82v-229q99 -2 175 -29t124 -67t72.5 -88t24.5 -93t-21 -76.5t-69 -31.5q-49 0 -81.5 25t-32.5 56q0 37 8 73.5l14 64.5q-3 6 -20 21.5t-40 28.5q-25 14 -66 25t-88 11v-464q39 -14 65.5 -24.5l65.5 -25.5q62 -24 114 -52.5t92 -68.5z
M599 775v440q-97 0 -163 -55t-66 -135q0 -87 41 -139t124 -86l30 -12zM915 284q0 82 -42.5 142.5t-144.5 100.5q-13 5 -24.5 9l-22.5 8v-483q117 7 175.5 66.5t58.5 156.5z" />
    <glyph glyph-name="percent" unicode="%" horiz-adv-x="1674" 
d="M788 1083q0 -176 -95 -273t-245 -97t-244.5 97t-94.5 273q0 166 92.5 268t247.5 102q153 0 246 -102t93 -268zM619 1083q0 130 -43 213t-127 83q-86 0 -128.5 -83t-42.5 -213q0 -133 43 -214.5t127 -81.5t127.5 81.5t43.5 214.5zM1565 338q0 -176 -95 -273t-245 -97
t-244.5 97t-94.5 273q0 166 92.5 268t247.5 102q153 0 246 -102t93 -268zM1396 338q0 130 -43 213t-127 83q-86 0 -128.5 -83t-42.5 -213q0 -133 43 -214.5t127 -81.5t127.5 81.5t43.5 214.5zM1499 1424l-1179 -1424h-138l1176 1424h141z" />
    <glyph glyph-name="ampersand" unicode="&#x26;" horiz-adv-x="1455" 
d="M1454 828q-59 -5 -119 -23.5t-92 -58.5q-21 -24 -42.5 -71l-51.5 -111l-61 -126t-80 -124q40 -48 98 -104.5t99 -81.5q40 -23 113.5 -39t120.5 -18v-71h-412l-149 170q-33 -36 -75.5 -74.5t-89.5 -66.5q-52 -30 -104.5 -47t-123.5 -17q-74 0 -147 21.5t-133 68.5
q-58 46 -94 118t-36 172q0 124 65.5 224.5t244.5 213.5q-81 107 -126 185t-45 175q0 69 27.5 126.5t77.5 100.5q46 39 112 61t134 22q80 0 140.5 -25.5t98.5 -66.5q35 -38 53.5 -88t18.5 -100q0 -120 -74.5 -206.5t-205.5 -155.5q94 -127 184 -231.5l173 -205.5
q67 107 104 201.5t37 166.5q0 32 -46.5 50.5t-128.5 35.5v71h535v-71zM747 1153q0 102 -45 156.5t-128 54.5q-47 0 -78 -19t-53 -48q-20 -28 -29 -60t-9 -57q0 -69 36 -139.5t112 -170.5q103 58 148.5 125.5t45.5 157.5zM825 228l-209.5 258.5t-186.5 237.5
q-81 -56 -114.5 -131.5t-33.5 -172.5q0 -136 77.5 -225.5t207.5 -89.5q73 0 143.5 31.5t115.5 91.5z" />
    <glyph glyph-name="quotesingle" unicode="'" horiz-adv-x="441" 
d="M333 1417q0 -40 -26 -154t-58 -296h-61q-27 170 -53.5 290.5t-26.5 159.5q0 46 28 79t85 33q54 0 83 -33t29 -79z" />
    <glyph glyph-name="parenleft" unicode="(" horiz-adv-x="768" 
d="M701 -328q-273 34 -428.5 275t-155.5 649q0 415 155.5 657.5t428.5 278.5v-83q-192 -35 -292 -245t-100 -610q0 -381 98 -592.5t294 -247.5v-82z" />
    <glyph glyph-name="parenright" unicode=")" horiz-adv-x="768" 
d="M651 596q0 -408 -155.5 -649t-428.5 -275v82q196 36 294 247.5t98 592.5q0 400 -100 610t-292 245v83q273 -36 428.5 -278.5t155.5 -657.5z" />
    <glyph glyph-name="asterisk" unicode="*" horiz-adv-x="967" 
d="M882 1099q0 -37 -21 -54t-54 -17q-22 0 -105.5 21.5t-187.5 33.5q45 -62 84 -103.5l65 -69.5q27 -29 42 -51t15 -47q0 -27 -24 -47t-51 -20q-18 0 -34 10.5t-27 29.5q-16 29 -31.5 93t-68.5 188q-48 -119 -67 -188.5t-33 -92.5q-13 -20 -26.5 -30t-34.5 -10
q-28 0 -51.5 19t-23.5 48q0 24 14 45t43 53l66.5 71t82.5 102q-98 -10 -182.5 -32.5t-110.5 -22.5q-33 0 -54 16.5t-21 54.5q0 34 21 52.5t54 18.5q30 0 105.5 -21t187.5 -32q-39 53 -82 100.5l-67 72.5q-28 30 -42.5 51.5t-14.5 46.5q0 27 24 47t51 20q18 0 33.5 -10
t27.5 -30q14 -24 37 -107.5t63 -173.5q45 102 65.5 178.5t34.5 102.5q11 19 26.5 29.5t34.5 10.5q28 0 51.5 -19t23.5 -48q0 -41 -55.5 -96t-150.5 -175q108 12 187.5 32.5t105.5 20.5q33 0 54 -18t21 -53z" />
    <glyph glyph-name="plus" unicode="+" horiz-adv-x="1317" 
d="M1173 497h-451v-451h-127v451h-451v125h451v451h127v-451h451v-125z" />
    <glyph glyph-name="comma" unicode="," horiz-adv-x="552" 
d="M429 35q0 -72 -32.5 -136t-74.5 -110q-43 -48 -91 -85t-88 -58l-46 67q48 30 86 60t62 60q30 35 51 76t27 93h-51q-67 0 -104.5 35t-37.5 94q0 42 34 81.5t93 39.5q86 0 129 -57.5t43 -159.5z" />
    <glyph glyph-name="hyphen" unicode="-" horiz-adv-x="766" 
d="M681 465h-596v157h596v-157z" />
    <glyph glyph-name="hyphen" unicode="&#xad;" horiz-adv-x="766" 
d="M681 465h-596v157h596v-157z" />
    <glyph glyph-name="period" unicode="." horiz-adv-x="552" 
d="M415 115q0 -56 -40.5 -95.5t-96.5 -39.5t-96.5 39.5t-40.5 95.5t40.5 96.5t96.5 40.5t96.5 -40.5t40.5 -96.5z" />
    <glyph glyph-name="slash" unicode="/" horiz-adv-x="960" 
d="M870 1523l-691 -1947h-130l689 1947h132z" />
    <glyph glyph-name="zero" unicode="0" horiz-adv-x="1257" 
d="M1027 934q64 -77 95.5 -180.5t31.5 -216.5q0 -136 -39 -243.5t-107 -178.5q-70 -73 -166 -110t-214 -37q-129 0 -230 43t-164 118q-66 78 -98.5 182.5t-32.5 225.5q0 119 31.5 219t98.5 181q64 78 165 123t231 45q137 0 235 -46t163 -125zM933 537q0 238 -81.5 369
t-221.5 131q-142 0 -224 -131t-82 -369q0 -226 78.5 -363.5t225.5 -137.5t226 137.5t79 363.5z" />
    <glyph glyph-name="one" unicode="1" horiz-adv-x="880" 
d="M809 0h-674v71q30 2 93.5 8.5t87.5 13.5q31 10 47.5 32.5t16.5 67.5v702h-249v84h55q108 0 193.5 40t122.5 86h83q-3 -65 -6 -152t-3 -156v-593q0 -35 15.5 -62.5t44.5 -40.5q26 -11 85 -20t88 -10v-71z" />
    <glyph glyph-name="two" unicode="2" horiz-adv-x="1144" 
d="M1047 0h-937v136q27 31 75 69.5t114 83.5q40 27 96 59l127 70q79 42 121.5 74t77.5 79q23 31 37 77.5t14 132.5q0 125 -67 183.5t-172 58.5q-65 0 -123 -25.5t-87 -70.5q7 -32 17.5 -76t10.5 -86q0 -38 -31.5 -67.5t-93.5 -29.5q-50 0 -77 34.5t-27 92.5q0 54 30 108.5
t86 100.5q55 45 136 73t175 28q205 0 325.5 -91.5t120.5 -244.5q0 -73 -21.5 -133t-69.5 -106q-53 -51 -124 -87.5t-217 -101.5q-87 -39 -162 -81.5t-123 -82.5h769v-177z" />
    <glyph glyph-name="three" unicode="3" horiz-adv-x="1130" 
d="M487 -365q-94 0 -172 23.5t-134 63.5t-86.5 92t-30.5 107q0 49 24 88.5t77 39.5q60 0 91.5 -29.5t31.5 -67.5q0 -32 -10.5 -81t-16.5 -70q7 -9 25.5 -24t45.5 -27q32 -15 67 -24t99 -9q60 0 115.5 20t97.5 64q44 46 68.5 107.5t24.5 161.5q0 54 -11.5 107t-42.5 92
t-84.5 60.5t-135.5 21.5h-131v115h87q138 0 199 76t61 229q0 125 -59 188.5t-167 63.5q-52 0 -85.5 -12.5t-54.5 -24.5q-25 -14 -41 -31l-24 -25l17 -78.5t10 -88.5q0 -37 -31.5 -66.5t-92.5 -29.5q-53 0 -77.5 38t-24.5 88q0 52 29 106t86 101t139 76t189 29
q123 0 203.5 -36.5t126.5 -88.5q45 -51 62 -107t17 -96q0 -50 -14 -100.5t-46 -93.5q-35 -47 -92.5 -85.5t-144.5 -62.5v-16q56 -5 119.5 -25t114.5 -59q53 -41 87 -105.5t34 -163.5q0 -192 -154 -311.5t-385 -119.5z" />
    <glyph glyph-name="four" unicode="4" horiz-adv-x="1157" 
d="M1084 90h-203v-455h-192v455h-640v154l701 855h131v-878h203v-131zM689 221v655l-540 -655h540z" />
    <glyph glyph-name="five" unicode="5" horiz-adv-x="1082" 
d="M843 469q66 -52 109.5 -134t43.5 -205q0 -215 -147 -355t-373 -140q-175 0 -296 83t-121 193q0 51 25 89t77 38q60 0 91.5 -31.5t31.5 -68.5q0 -32 -11 -80t-17 -71q8 -7 26 -19t43 -23q26 -11 63.5 -19.5t87.5 -8.5q64 0 121 26t96 77q43 56 64.5 127.5t21.5 181.5
q0 141 -78.5 233.5t-206.5 92.5q-80 0 -149.5 -30t-124.5 -100l-67 26l85 722h716v-178h-635l-52 -424q45 32 118.5 63.5t161.5 31.5q73 0 151.5 -22.5t144.5 -74.5z" />
    <glyph glyph-name="six" unicode="6" horiz-adv-x="1159" 
d="M1075 461q0 -104 -37.5 -195t-100.5 -155q-73 -73 -161.5 -108t-184.5 -35q-111 0 -201 41t-153 116q-64 76 -99 186t-35 247q0 357 212.5 602t569.5 294l18 -90l-90 -16q-217 -70 -335.5 -218t-153.5 -359q86 75 170 106t177 31q167 0 285.5 -128t118.5 -319zM858 434
q0 162 -74.5 260t-199.5 98q-75 0 -139.5 -28t-124.5 -94q-1 -12 -3 -55.5t-2 -68.5q0 -234 76.5 -366.5t201.5 -132.5q119 0 192 103.5t73 283.5z" />
    <glyph glyph-name="seven" unicode="7" horiz-adv-x="1029" 
d="M1029 1008l-713 -1373h-125l671 1270h-393q-87 0 -136 -2t-90 -19q-31 -13 -55.5 -66.5t-37.5 -136.5h-61v392h940v-65z" />
    <glyph glyph-name="eight" unicode="8" horiz-adv-x="1221" 
d="M1117 376q0 -168 -145 -289t-381 -121q-221 0 -354 111t-133 286q0 129 78.5 215.5t232.5 146.5q-127 71 -190 156t-63 192q0 163 138.5 273t331.5 110t312.5 -104t119.5 -261q0 -101 -66 -191.5t-194 -148.5q166 -71 239.5 -157t73.5 -218zM875 1102q0 122 -72.5 198.5
t-185.5 76.5t-185 -73.5t-72 -182.5q0 -105 82 -178t292 -156q75 48 108 127t33 188zM917 329q0 63 -27 110.5t-78 86.5q-49 38 -136.5 79.5t-189.5 84.5q-96 -52 -141 -132.5t-45 -183.5q0 -147 86.5 -237.5t230.5 -90.5q138 0 219 80t81 203z" />
    <glyph glyph-name="nine" unicode="9" horiz-adv-x="1159" 
d="M1056 516q0 -174 -55 -327.5t-158 -269.5q-101 -114 -246.5 -189.5t-325.5 -99.5l-18 90l90 16q215 68 336 209t156 358q-82 -70 -163.5 -102.5t-183.5 -32.5q-163 0 -283.5 127t-120.5 320q0 207 139.5 349t344.5 142q223 0 355.5 -159t132.5 -431zM844 528
q0 234 -76.5 366.5t-201.5 132.5q-119 0 -192 -102.5t-73 -282.5q0 -162 74.5 -260t199.5 -98q78 0 143 28.5t121 91.5q0 4 1.5 16t1.5 34q0 14 1 34t1 40z" />
    <glyph glyph-name="colon" unicode=":" horiz-adv-x="640" 
d="M457 853q0 -56 -40.5 -96t-96.5 -40t-96.5 40t-40.5 96t40 96.5t97 40.5t97 -40.5t40 -96.5zM457 115q0 -56 -40.5 -95.5t-96.5 -39.5t-96.5 39.5t-40.5 95.5t40.5 96.5t96.5 40.5t96.5 -40.5t40.5 -96.5z" />
    <glyph glyph-name="semicolon" unicode=";" horiz-adv-x="640" 
d="M457 853q0 -56 -40.5 -96t-96.5 -40t-96.5 40t-40.5 96t40 96.5t97 40.5t97 -40.5t40 -96.5zM474 35q0 -72 -32.5 -135.5t-74.5 -110.5q-43 -48 -91 -85t-88 -58l-46 67q48 30 85.5 60.5t62.5 59.5q30 35 51 76t27 93h-51q-67 0 -104.5 35t-37.5 94q0 42 34 81.5t93 39.5
q86 0 129 -57.5t43 -159.5z" />
    <glyph glyph-name="semicolon" unicode="&#x37e;" horiz-adv-x="640" 
d="M457 853q0 -56 -40.5 -96t-96.5 -40t-96.5 40t-40.5 96t40 96.5t97 40.5t97 -40.5t40 -96.5zM474 35q0 -72 -32.5 -135.5t-74.5 -110.5q-43 -48 -91 -85t-88 -58l-46 67q48 30 85.5 60.5t62.5 59.5q30 35 51 76t27 93h-51q-67 0 -104.5 35t-37.5 94q0 42 34 81.5t93 39.5
q86 0 129 -57.5t43 -159.5z" />
    <glyph glyph-name="less" unicode="&#x3c;" horiz-adv-x="1317" 
d="M1118 22l-925 481v113l925 481v-137l-769 -400l769 -401v-137z" />
    <glyph glyph-name="equal" unicode="=" horiz-adv-x="1317" 
d="M1163 683h-1009v125h1009v-125zM1163 311h-1009v125h1009v-125z" />
    <glyph glyph-name="greater" unicode="&#x3e;" horiz-adv-x="1317" 
d="M1124 503l-925 -481v137l769 401l-769 400v137l925 -481v-113z" />
    <glyph glyph-name="question" unicode="?" horiz-adv-x="980" 
d="M771 1329q55 -58 81.5 -130.5t26.5 -157.5q0 -185 -118 -302t-324 -141v-221h-92v379q63 5 125 20.5t111 50.5q51 37 79.5 89.5t28.5 146.5q0 150 -63.5 230t-185.5 80q-46 0 -80.5 -13.5t-50.5 -25.5q5 -24 13.5 -69t8.5 -69q0 -37 -32 -67.5t-93 -30.5q-54 0 -77 37
t-23 86q0 40 22 78.5t69 74.5q40 32 108.5 55t142.5 23q106 0 188 -33.5t135 -89.5zM531 115q0 -56 -40.5 -95.5t-96.5 -39.5t-96.5 39.5t-40.5 95.5t40.5 96.5t96.5 40.5t96.5 -40.5t40.5 -96.5z" />
    <glyph glyph-name="at" unicode="@" horiz-adv-x="1902" 
d="M1530 -119q-100 -87 -237.5 -140.5t-306.5 -53.5q-151 0 -297 48.5t-263 147.5q-116 99 -187 246.5t-71 347.5q0 171 64 332t183 287q115 123 284.5 198.5t369.5 75.5q173 0 300 -55.5t208 -146.5q81 -90 121.5 -207t40.5 -244q0 -244 -134 -412.5t-339 -168.5
q-85 0 -144 42.5t-66 119.5l-7 2q-48 -73 -109.5 -116.5t-124.5 -43.5q-41 0 -83.5 13.5t-75.5 44.5q-33 33 -52.5 86t-19.5 131q0 73 33.5 163.5t90.5 172.5q57 83 147.5 144t195.5 61q56 0 99.5 -31.5t53.5 -92.5h6l43 112h149l-189 -538q-9 -25 -14.5 -57.5t-5.5 -51.5
q0 -51 26 -74.5t67 -23.5q155 0 259 145.5t104 383.5q0 118 -37 218.5t-113 177.5q-73 76 -184 120t-254 44q-136 0 -265 -53t-235 -156q-103 -100 -167 -249t-64 -337q0 -181 50 -318.5t141 -230.5q89 -90 210 -135t262 -45q159 0 283 43t223 125zM1182 742q-14 81 -45 118
t-91 37q-64 0 -117.5 -51.5t-90.5 -122.5q-39 -74 -60.5 -161.5t-21.5 -161.5q0 -85 20.5 -130.5t67.5 -45.5q68 0 122 47t101 133z" />
    <glyph glyph-name="A" unicode="A" horiz-adv-x="1338" 
d="M1291 418l-27 -418h-1178v71q30 2 80 8.5t65 13.5q32 15 44.5 39t12.5 61v1020q0 33 -11 58.5t-46 41.5q-27 13 -72.5 23t-72.5 12v71h1098v-342h-75q-20 76 -86.5 161.5t-126.5 93.5q-31 4 -74 6t-98 2h-223v-564h160q77 0 112.5 14.5t62.5 48.5q22 29 37.5 77.5
t20.5 91.5h75v-555h-75q-4 48 -21.5 101.5t-36.5 77.5q-31 39 -70.5 51t-104.5 12h-160v-426q0 -64 9 -101t35 -56t71 -24.5t128 -5.5h87q54 0 91 4q38 4 78.5 14.5t57.5 28.5q46 48 96.5 145.5t64.5 143.5h72z" />
    <glyph glyph-name="B" unicode="B" horiz-adv-x="1315" 
d="M723 -33q-127 0 -243.5 50t-206.5 144q-89 94 -142 229.5t-53 305.5t52 308.5t144 238.5q91 99 215 153t265 54q105 0 190 -26t162 -73l41 68h80l9 -506h-82q-16 74 -48 160.5t-75 146.5q-48 68 -114 106.5t-151 38.5q-97 0 -180.5 -43t-144.5 -127q-58 -81 -91 -206
t-33 -279q0 -136 34.5 -249.5t98.5 -199.5q64 -85 151.5 -133t195.5 -48q81 0 149 25.5t118 67.5q50 44 88 100t62 122l75 -36q-86 -211 -228 -301.5t-338 -90.5z" />
    <glyph glyph-name="C" unicode="C" horiz-adv-x="1485" 
d="M1471 567q-24 -3 -64.5 -9.5t-65.5 -18.5q-30 -15 -42.5 -42.5t-12.5 -64.5v-110q0 -120 1.5 -162t3.5 -69q-133 -60 -265 -92t-259 -32q-136 0 -262 51t-220 145q-95 95 -151 231t-56 304q0 162 53.5 300.5t151.5 240.5q95 100 226.5 155.5t281.5 55.5q120 0 209 -29
t157 -70l41 68h80l9 -496h-82q-21 82 -52 161.5t-80 142.5t-119.5 100.5t-168.5 37.5q-107 0 -191 -43.5t-146 -129.5q-61 -83 -94 -207t-33 -277q0 -135 32.5 -254.5t94.5 -206.5q62 -89 155 -140t211 -51q88 0 160.5 27t102.5 57q8 52 8.5 105t0.5 90v78q0 42 -11.5 74.5
t-47.5 47.5q-33 15 -89.5 22.5t-88.5 9.5v73h622v-73z" />
    <glyph glyph-name="D" unicode="D" horiz-adv-x="1669" 
d="M1567 0h-589v71l69.5 6t62.5 12q30 12 44 36.5t14 63.5v505h-667v-494q0 -35 11.5 -59t45.5 -42q17 -9 60.5 -18t68.5 -10v-71h-589v71l69.5 6t62.5 12q30 12 44 36.5t14 63.5v1024q0 32 -13 58.5t-45 41.5q-27 13 -65.5 23t-66.5 12v71h589v-71q-28 -1 -68.5 -9
t-60.5 -15q-34 -12 -45.5 -40t-11.5 -61v-440h667v430q0 32 -13 58.5t-45 41.5q-27 13 -65.5 23t-66.5 12v71h589v-71q-28 -1 -68.5 -9t-60.5 -15q-34 -12 -45.5 -40t-11.5 -61v-1023q0 -35 11.5 -59t45.5 -42q17 -9 60.5 -18t68.5 -10v-71z" />
    <glyph glyph-name="E" unicode="E" horiz-adv-x="1339" 
d="M1104 661q62 -42 103 -110t41 -165q0 -99 -43 -172t-112 -120q-67 -46 -151.5 -70t-174.5 -24h-672v71q24 2 70 8.5t66 15.5q31 14 44 37.5t13 60.5v1020q0 34 -11.5 60t-45.5 42q-30 15 -67 23t-62 10v71h655q76 0 145.5 -15t132.5 -53q59 -35 97 -95t38 -146
q0 -75 -27 -133.5t-76 -100.5q-46 -40 -105.5 -67.5t-128.5 -42.5v-9q61 -7 136.5 -30.5t134.5 -65.5zM863 875q37 43 51.5 94t14.5 121q0 117 -64 183.5t-202 66.5q-32 0 -80.5 -1.5l-81.5 -2.5v-545h127q82 0 140.5 21t94.5 63zM1001 422q0 126 -84.5 207t-241.5 81
q-64 0 -108 -1.5t-66 -2.5v-500q0 -63 51 -95t142 -32q149 0 228 87t79 256z" />
    <glyph glyph-name="F" unicode="F" horiz-adv-x="798" 
d="M718 0h-639v71l78 6t72 12q33 13 48 35.5t15 62.5v1028q0 35 -11 58.5t-52 39.5q-30 12 -75.5 22.5t-74.5 12.5v71h639v-71q-31 -1 -74 -7.5t-75 -16.5q-38 -12 -51 -39t-13 -60v-1027q0 -33 14.5 -58.5t49.5 -40.5q21 -8 68.5 -17.5t80.5 -10.5v-71z" />
    <glyph glyph-name="G" unicode="G" horiz-adv-x="1060" 
d="M1006 1348q-28 -1 -69.5 -7.5t-70.5 -16.5q-34 -12 -46 -40t-12 -61v-841q0 -66 -26.5 -140t-77.5 -132q-59 -68 -140.5 -106t-186.5 -38q-163 0 -264.5 91.5t-101.5 246.5q0 68 35 120.5t102 52.5q60 0 96.5 -33.5t36.5 -88.5q0 -32 -13 -64t-29 -57l-34 -54t-27 -56
q21 -33 65.5 -58t119.5 -25q73 0 119.5 33.5t69.5 89.5q22 52 31.5 128t9.5 170v751q0 35 -11.5 58.5t-47.5 41.5q-31 16 -77.5 24.5t-76.5 10.5v71h626v-71z" />
    <glyph glyph-name="H" unicode="H" horiz-adv-x="1422" 
d="M1475 0h-398q-115 178 -255.5 353.5t-294.5 340.5h-26v-494q0 -33 12.5 -59t45.5 -42q16 -7 59.5 -17t72.5 -11v-71h-589v71l67 6t62 12q30 13 43.5 38.5t13.5 61.5v1024q0 34 -11.5 59t-45.5 41q-27 13 -64 23t-65 12v71h589v-71q-28 -1 -70 -9t-62 -15q-34 -12 -46 -40
t-12 -61v-490h20q90 76 177 158.5t158 164.5q79 91 115.5 145.5t36.5 96.5q0 15 -18.5 24.5t-42.5 15.5q-28 6 -50 7.5l-36 2.5v71h532v-71q-3 0 -13 -1t-23 -2q-14 -1 -28 -4t-36 -7q-35 -8 -72.5 -25.5t-61.5 -43.5l-215 -242t-222 -228q152 -172 251.5 -296l211.5 -265
q43 -54 86 -86.5t74 -48.5q26 -13 65 -20t65 -8v-71z" />
    <glyph glyph-name="I" unicode="I" horiz-adv-x="1236" 
d="M1237 422l-30 -422h-1109v71q24 2 69.5 7t63.5 13q30 13 43.5 38t13.5 64v1016q0 34 -11.5 60t-45.5 42q-23 12 -64.5 23.5t-68.5 13.5v71h599v-71q-28 -1 -72.5 -10t-64.5 -16q-34 -12 -46.5 -41t-12.5 -62v-953q0 -66 6.5 -102.5t30.5 -56.5q23 -18 68.5 -23.5
t127.5 -5.5q37 0 77 2t76 8q35 6 64.5 16.5t43.5 26.5q41 46 95.5 139.5t75.5 151.5h71z" />
    <glyph glyph-name="J" unicode="J" horiz-adv-x="1899" 
d="M1806 0h-627v71q34 1 87.5 7t73.5 17q31 19 45.5 43.5t14.5 61.5v1032h-15l-484 -1209h-50l-461 1234h-13v-847q0 -123 15.5 -187t47.5 -92q22 -21 91 -40t90 -20v-71h-573v71q45 4 94.5 15t76.5 33q35 28 48 86t13 194v726q0 63 -15 103t-43 65q-31 27 -76 40t-89 15v71
h484l406 -1064l347 890q19 49 32.5 102.5t14.5 71.5h463v-71q-28 -1 -71.5 -9t-63.5 -15q-34 -12 -46 -40t-12 -61v-1023q0 -35 12 -59t46 -42q18 -10 64 -18.5t73 -9.5v-71z" />
    <glyph glyph-name="K" unicode="K" horiz-adv-x="1571" 
d="M1554 1348q-28 -1 -86 -16t-83 -31q-36 -25 -48.5 -96t-12.5 -180v-1039h-87l-860 1161v-732q0 -123 15.5 -189t47.5 -94q23 -22 95 -41t95 -20v-71h-582v71q27 2 91 19.5t80 31.5q35 28 48 85.5t13 196.5v699q0 46 -16 92t-43 71q-36 33 -97.5 56.5t-99.5 25.5v71h405
l798 -1082v675q0 124 -16 190.5t-46 88.5q-28 19 -91.5 37t-96.5 20v71h577v-71z" />
    <glyph glyph-name="L" unicode="L" horiz-adv-x="1524" 
d="M1244 1251q94 -98 147 -236.5t53 -306.5q0 -169 -54 -307t-150 -235q-93 -96 -216 -148t-262 -52q-148 0 -273.5 55.5t-215.5 154.5q-90 97 -141.5 235.5t-51.5 296.5q0 173 54 308.5t149 234.5q94 98 218.5 150t260.5 52q141 0 266 -53t216 -149zM1095 245
q56 91 81.5 206t25.5 257q0 146 -28.5 268t-83.5 208q-55 85 -138 132.5t-190 47.5q-120 0 -204 -55t-137 -147q-50 -88 -74.5 -206t-24.5 -248q0 -144 26 -260t82 -206q54 -88 136 -137.5t196 -49.5q107 0 193 50t140 140z" />
    <glyph glyph-name="M" unicode="M" horiz-adv-x="1249" 
d="M1184 1069q0 -111 -43.5 -196.5t-120.5 -141.5q-76 -56 -167 -82t-193 -26h-159v-430q0 -35 11.5 -61.5t47.5 -40.5q18 -7 63.5 -13t83.5 -7v-71h-609v71q24 2 69.5 7t63.5 13q30 13 43.5 38t13.5 64v1024q0 35 -10 63t-47 42q-38 13 -75.5 18.5t-64.5 7.5v71h648
q198 0 321.5 -95.5t123.5 -254.5zM880 827q34 48 45 99.5t11 92.5q0 57 -13.5 116t-46.5 103q-35 47 -92 73t-142 26h-141v-627h102q108 0 175.5 33.5t101.5 83.5z" />
    <glyph glyph-name="N" unicode="N" horiz-adv-x="1524" 
d="M1244 1251q94 -98 147 -236.5t53 -306.5q0 -134 -35 -248t-99 -204q-61 -86 -145 -150t-188 -101q2 -110 79 -197.5t166 -87.5q82 0 125 5.5t71 10.5v-79q-45 -13 -112.5 -27.5t-187.5 -14.5q-67 0 -131 19.5t-116 62.5t-86.5 109t-44.5 162q-143 5 -265 61.5t-209 154.5
q-88 99 -137 232.5t-49 291.5q0 173 54 308.5t149 234.5q94 98 218.5 150t260.5 52q141 0 266 -53t216 -149zM1095 245q56 91 81.5 206t25.5 257q0 146 -28.5 268t-83.5 208q-55 85 -138 132.5t-190 47.5q-120 0 -204 -55t-137 -147q-50 -88 -74.5 -206t-24.5 -248
q0 -144 26 -260t82 -206q54 -88 136 -137.5t196 -49.5q107 0 193 50t140 140z" />
    <glyph glyph-name="O" unicode="O" horiz-adv-x="1437" 
d="M1480 0h-382q-127 199 -229.5 344t-222.5 299h-145v-450q0 -35 11 -61.5t47 -40.5q18 -7 63 -13t76 -7v-71h-600v71q24 2 69.5 7t63.5 13q30 13 43.5 38t13.5 64v1026q0 35 -10 62t-47 41q-25 9 -65 16.5t-68 9.5v71h655q90 0 169 -18.5t143 -59.5q62 -40 99 -104.5
t37 -155.5q0 -82 -25 -145t-74 -109q-45 -43 -108 -74.5t-139 -53.5l174.5 -234l170.5 -231q44 -60 79.5 -88.5t70.5 -46.5q26 -13 65 -20t65 -8v-71zM954 1058q0 129 -74 204.5t-209 75.5h-170v-609h131q138 0 230 88.5t92 240.5z" />
    <glyph glyph-name="P" unicode="P" horiz-adv-x="1149" 
d="M981 651q45 -50 66.5 -109.5t21.5 -138.5q0 -188 -139 -310t-345 -122q-95 0 -190 29.5t-164 71.5l-43 -73h-80l-14 486h81q25 -90 58.5 -162.5t88.5 -135.5q52 -59 121.5 -94t161.5 -35q69 0 120.5 18t83.5 51t47.5 77.5t15.5 102.5q0 85 -48 158.5t-143 111.5
l-149 57.5t-145 59.5q-120 54 -186.5 141.5t-66.5 228.5q0 81 33 151t94 125q58 52 137 81.5t165 29.5q98 0 175.5 -30t141.5 -70l41 68h80l8 -471h-81q-22 81 -49.5 155t-71.5 134q-43 58 -105 92.5t-152 34.5q-95 0 -162 -61t-67 -149q0 -92 43 -152.5t125 -99.5
q73 -35 143.5 -60.5t136.5 -54.5q60 -26 115.5 -59t96.5 -77z" />
    <glyph glyph-name="Q" unicode="Q" horiz-adv-x="1267" 
d="M1251 1034h-69q-9 36 -32.5 85.5t-52.5 93.5q-30 46 -65.5 80.5t-68.5 39.5q-31 4 -78 6t-87 2h-58v-1135q0 -33 14 -60.5t49 -42.5q18 -7 75.5 -19t89.5 -13v-71h-670v71q28 2 85.5 8t79.5 15q33 13 48.5 37.5t15.5 65.5v1144h-58q-31 0 -77 -1.5t-88 -6.5
q-33 -4 -68.5 -39.5t-65.5 -80.5t-53 -95.5t-32 -83.5h-70v385h1236v-385z" />
    <glyph glyph-name="R" unicode="R" horiz-adv-x="1534" 
d="M1457 701q0 -181 -68 -314t-177 -218q-110 -85 -247 -127t-283 -42h-588v71q29 0 75.5 5.5t61.5 12.5q30 13 43.5 38.5t13.5 61.5v1024q0 34 -11.5 61t-45.5 43q-31 15 -67 22t-62 9v71h620q128 0 252 -39.5t216 -106.5q125 -89 196 -233t71 -339zM1212 702
q0 143 -38 258.5t-111 201.5q-69 82 -169.5 129t-223.5 47q-41 0 -92.5 -1.5t-76.5 -2.5v-1091q0 -91 53 -126t163 -35q127 0 222 45t154 125q62 84 90.5 194.5t28.5 255.5z" />
    <glyph glyph-name="S" unicode="S" horiz-adv-x="1227" 
d="M1199 1064h-75q-21 79 -87.5 169t-127.5 99q-31 4 -73.5 6t-96.5 2h-238v-570h163q74 0 115 15.5t70 47.5q20 22 36.5 68.5t21.5 99.5h76v-557h-76q-3 44 -20.5 100t-37.5 81q-30 37 -75.5 50.5t-109.5 13.5h-163v-489q0 -33 13 -59t46 -42q15 -7 65 -17t76 -11v-71h-615
v71q30 2 80 6.5t65 11.5q30 13 43.5 38.5t13.5 61.5v1024q0 33 -11 58.5t-46 41.5q-27 13 -72.5 23t-72.5 12v71h1113v-355z" />
    <glyph glyph-name="T" unicode="T" horiz-adv-x="1549" 
d="M1533 1348q-28 -1 -82 -12t-88 -33q-34 -23 -47 -95t-13 -176v-617q0 -118 -49 -205t-129 -143q-79 -54 -166.5 -77.5t-167.5 -23.5q-128 0 -228 33.5t-168 90.5q-67 57 -101 130.5t-34 153.5v839q0 35 -11.5 58.5t-46.5 43.5q-25 14 -64 22.5t-64 10.5v71h591v-71
q-28 -1 -70.5 -9t-62.5 -15q-34 -12 -45.5 -40t-11.5 -61v-784q0 -57 12.5 -119.5t49.5 -116.5q39 -55 106 -90t184 -35q110 0 184.5 35t117.5 92q41 54 58 113t17 119v582q0 111 -16 181.5t-47 92.5q-35 25 -95.5 39t-92.5 16v71h580v-71z" />
    <glyph glyph-name="U" unicode="U" horiz-adv-x="1365" 
d="M1407 1348q-26 -1 -63 -11.5t-61 -25.5q-34 -21 -54.5 -54t-40.5 -78l-201 -495.5l-276 -701.5h-83l-278 746l-182 485q-12 31 -32 54.5t-53 44.5q-27 17 -60 25.5t-61 10.5v71h587v-71q-75 -4 -126.5 -15t-51.5 -39q0 -11 4 -26t7 -24l120 -319.5l236 -630.5l175 437
t133 346q33 91 38.5 126t5.5 57q0 23 -20.5 38.5t-54.5 26.5q-33 10 -67 15t-69 8v71h528v-71z" />
    <glyph glyph-name="V" unicode="V" horiz-adv-x="1998" 
d="M2028 1348q-25 -1 -58 -11.5t-61 -27.5q-35 -22 -56.5 -50.5t-37.5 -79.5l-165 -539.5l-203 -657.5h-92l-358 1092l-373 -1092h-88l-205 726.5l-142 504.5q-9 31 -26.5 55t-47.5 44q-25 17 -58.5 25.5t-60.5 10.5v71h579v-71q-76 -4 -129.5 -15t-53.5 -37q0 -10 3 -26.5
t5 -26.5q23 -88 81.5 -290.5l173.5 -606.5l354 1053h98l357 -1076l124 433.5t86 317.5q24 93 30 127.5t6 58.5q0 34 -46.5 57t-150.5 31v71h515v-71z" />
    <glyph glyph-name="W" unicode="W" horiz-adv-x="1455" 
d="M1457 0h-664v71q82 2 132.5 15.5t50.5 41.5q0 15 -23 62t-59 105l-95 150.5l-109 165.5q-88 -116 -200 -279.5t-112 -192.5q0 -33 30.5 -48.5t134.5 -19.5v-71h-530v71q26 2 66.5 7.5t66.5 18.5q52 28 83.5 60.5t63.5 76.5l164 219.5l177 239.5l-148 215.5l-192 279.5
q-43 63 -67.5 89t-65.5 45q-24 11 -66.5 17.5t-67.5 8.5v71h657v-71q-58 -2 -120.5 -14.5t-62.5 -38.5q0 -19 25 -66.5t59 -101.5l78 -124t105 -157q113 153 195 276t82 160q0 32 -37.5 47t-126.5 19v71h529v-71q-25 -1 -65.5 -7.5t-67.5 -18.5q-52 -25 -77.5 -54t-68.5 -84
l-147.5 -193.5l-162.5 -220.5l178.5 -259l188.5 -277q31 -45 71 -85.5t65 -55.5q24 -14 64.5 -17.5t68.5 -4.5v-71z" />
    <glyph glyph-name="X" unicode="X" horiz-adv-x="1260" 
d="M1314 1348q-17 -1 -54 -13.5t-53 -24.5q-39 -24 -53 -37t-54 -68q-78 -110 -144 -223l-165 -287q-37 -64 -49 -103t-12 -113v-271q0 -36 14.5 -62.5t49.5 -42.5q21 -8 75 -19.5t87 -12.5v-71h-664v71q28 2 84 7.5t78 14.5q36 15 49.5 41t13.5 64v345q0 16 -19.5 58.5
t-46.5 94.5l-133 251l-127 231q-33 57 -58.5 86t-58.5 51q-24 15 -57.5 23t-60.5 10v71h605v-71q-102 -2 -144 -14t-42 -34q0 -6 6 -21t17 -38l31 -59.5l34 -64.5l96 -177.5l128 -230.5l239.5 394.5t82.5 169.5q0 23 -17 37t-45 22q-29 8 -63 10.5t-63 5.5v71h493v-71z" />
    <glyph glyph-name="Y" unicode="Y" horiz-adv-x="1232" 
d="M1214 443l-47 -443h-1140v35l893 1305h-327q-57 0 -95.5 -2t-70.5 -8q-66 -13 -148.5 -109t-124.5 -203h-70l43 401h1063v-35l-893 -1305h337q85 0 181 12t125 41q65 62 121 152t83 159h70z" />
    <glyph glyph-name="Z" unicode="Z" horiz-adv-x="1374" 
d="M1421 0h-591v71q78 5 129.5 20t51.5 37q0 9 -2 22t-6 23l-118 318h-497q-28 -70 -45.5 -122l-31.5 -96q-13 -43 -18 -70t-5 -44q0 -40 63 -62t142 -26v-71h-534v71q26 2 65 11.5t64 25.5q40 27 62 56.5t43 81.5l236 600l230 593h80l473 -1224q15 -39 34 -63t53 -47
q23 -14 60 -23.5t62 -10.5v-71zM849 580l-215 550l-211 -550h426z" />
    <glyph glyph-name="bracketleft" unicode="[" horiz-adv-x="768" 
d="M701 -310h-533v1829h533v-91h-355v-1646h355v-92z" />
    <glyph glyph-name="backslash" unicode="\" horiz-adv-x="960" 
d="M911 -424h-130l-691 1947h132z" />
    <glyph glyph-name="bracketright" unicode="]" horiz-adv-x="768" 
d="M600 -310h-533v92h355v1646h-355v91h533v-1829z" />
    <glyph glyph-name="asciicircum" unicode="^" horiz-adv-x="1317" 
d="M1126 796h-145l-321 524l-324 -524h-145l412 660h113z" />
    <glyph glyph-name="underscore" unicode="_" horiz-adv-x="1317" 
d="M1322 -282h-1327v101h1327v-101z" />
    <glyph glyph-name="grave" unicode="`" 
d="M739 1142l-38 -32l-184 143.5t-120 93.5q-38 32 -53.5 52t-15.5 61q0 29 23 53.5t59 24.5q39 0 67 -18t60 -70l80 -125.5z" />
    <glyph glyph-name="a" unicode="a" horiz-adv-x="990" 
d="M948 232q-62 -118 -166 -188t-239 -70q-119 0 -208.5 42t-147.5 114t-86.5 168t-28.5 203q0 96 30.5 188.5t89.5 166.5q57 71 141.5 114.5t189.5 43.5q108 0 185 -34t125 -93q46 -56 68.5 -132t22.5 -165v-66h-653q0 -97 18.5 -176t58.5 -139q39 -58 102 -91.5t150 -33.5
q89 0 153.5 41.5t124.5 149.5zM727 608q0 56 -9.5 120t-30.5 107q-23 46 -63 75t-103 29q-105 0 -174.5 -87.5t-75.5 -243.5h456z" />
    <glyph glyph-name="b" unicode="b" horiz-adv-x="930" 
d="M528 -26q-214 0 -335 142t-121 381q0 104 32.5 194.5t94.5 164.5q59 71 148 114.5t194 43.5q145 0 236 -69.5t91 -189.5q0 -50 -24 -88.5t-79 -38.5q-59 0 -91.5 30t-32.5 67q0 45 12 92.5t14 69.5q-18 31 -53.5 41.5t-76.5 10.5q-48 0 -91.5 -20.5t-84.5 -75.5
q-37 -50 -60 -135t-23 -203q0 -186 82.5 -303.5t216.5 -117.5q97 0 162.5 47t121.5 141l64 -42q-66 -118 -174 -187t-223 -69z" />
    <glyph glyph-name="c" unicode="c" horiz-adv-x="1043" 
d="M917 102q40 -38 63 -86t23 -119t-31 -133.5t-94 -108.5q-67 -47 -160 -73t-230 -26q-224 0 -335 65.5t-111 191.5q0 102 80 161t204 64v14q-30 9 -62 22.5t-55 31.5q-26 21 -42 49.5t-16 70.5q0 53 37.5 97.5t113.5 76.5v15q-96 45 -149 115.5t-53 163.5q0 140 104.5 230
t267.5 90q45 0 89.5 -9t90.5 -23h344v-96h-232v-6q37 -43 55 -95t18 -102q0 -130 -105.5 -220t-245.5 -90h-121q-23 -8 -48 -29t-25 -57q0 -37 21 -56.5t51 -26.5q29 -8 67.5 -10t79.5 -3q44 -1 120.5 -6t108.5 -6q46 -2 92.5 -22t84.5 -55zM647 687q0 117 -47.5 186.5
t-133.5 69.5q-47 0 -80.5 -19.5t-54.5 -55.5q-20 -33 -28.5 -79.5t-8.5 -95.5q0 -111 48.5 -181t125.5 -70q86 0 132.5 69.5t46.5 175.5zM839 -140q0 56 -26 92t-79 49q-28 4 -115 9t-202 5q-108 -21 -153.5 -70.5t-45.5 -127.5q0 -35 15 -67t52 -59q35 -26 94 -42.5
t144 -16.5q147 0 231.5 56.5t84.5 171.5z" />
    <glyph glyph-name="d" unicode="d" horiz-adv-x="1192" 
d="M1143 0h-484v66q23 2 51 4t46 8q28 9 41.5 31.5t13.5 58.5v507q0 105 -49.5 162t-120.5 57q-52 0 -96.5 -16.5t-79.5 -40.5q-34 -25 -52 -50t-28 -42v-567q0 -34 13.5 -56t41.5 -34q22 -10 45.5 -15t51.5 -7v-66h-484v66q23 2 48 4.5t42 7.5q28 9 42 31.5t14 58.5v1148
q0 34 -15.5 68t-40.5 51q-18 13 -63.5 18.5t-73.5 7.5v64l365 23l14 -15v-688h4l60 58.5t71 53.5q38 24 89.5 40t115.5 16q132 0 203 -83.5t71 -240.5v-513q0 -35 12.5 -56.5t41.5 -33.5q23 -9 41.5 -13.5t48.5 -6.5v-66z" />
    <glyph glyph-name="e" unicode="e" horiz-adv-x="1147" 
d="M1073 494q0 -222 -140 -373t-325 -151q-81 0 -159.5 25t-147.5 67l-74 -115l-62 14q5 74 7 178t2 201v976q0 34 -15.5 68t-39.5 49q-19 13 -63.5 19.5t-71.5 8.5v64l362 23l14 -15v-650l7 -2q62 66 135.5 99t144.5 33q182 0 304 -144t122 -375zM864 487q0 74 -16 151
t-50 134q-34 58 -89 94t-132 36q-70 0 -122.5 -27.5t-94.5 -74.5v-574q6 -24 23.5 -56t47.5 -61q30 -28 68 -45.5t93 -17.5q122 0 197 118t75 323z" />
    <glyph glyph-name="f" unicode="f" horiz-adv-x="600" 
d="M551 0h-477v66l47.5 4t42.5 8q28 9 41.5 31.5t13.5 58.5v609q0 32 -14.5 58.5t-40.5 44.5q-19 12 -55 20.5t-66 10.5v65l348 22l14 -14v-804q0 -35 13.5 -58t42.5 -34q22 -9 43 -14.5t47 -7.5v-66zM425 1387q0 -57 -37.5 -99.5t-92.5 -42.5q-51 0 -88.5 40.5t-37.5 92.5
q0 55 37.5 96t88.5 41q57 0 93.5 -38.5t36.5 -89.5z" />
    <glyph glyph-name="g" unicode="g" horiz-adv-x="598" 
d="M431 60q0 -110 -32 -206.5t-85 -159.5q-57 -67 -128.5 -102.5t-157.5 -35.5q-89 0 -134 35.5t-45 83.5q0 43 24 75.5t70 32.5q31 0 55 -13t42 -34q16 -18 32.5 -44.5l31.5 -51.5q76 0 108.5 92t32.5 295v742q0 32 -15.5 61.5t-40.5 47.5q-16 11 -76.5 22t-91.5 14v62
l396 22l14 -14v-924zM446 1388q0 -57 -37.5 -99.5t-92.5 -42.5q-51 0 -88.5 40.5t-37.5 92.5q0 55 37.5 96t88.5 41q57 0 93.5 -38.5t36.5 -89.5z" />
    <glyph glyph-name="h" unicode="h" horiz-adv-x="1097" 
d="M1117 0h-298l-167 242t-185 251l-82 -77v-234q0 -36 13 -59.5t42 -34.5q24 -10 46 -15t51 -7v-66h-484v66q23 2 48 4.5t42 7.5q28 9 42 31.5t14 58.5v1146q0 37 -15.5 69.5t-40.5 49.5q-21 16 -65.5 21t-71.5 7v64l365 23l14 -15v-1043l168.5 167.5t152.5 159.5
q8 9 17.5 23.5t9.5 23.5q0 27 -43.5 40t-83.5 18v64h434v-62q-84 -25 -148.5 -62.5t-98.5 -67.5q-24 -20 -68 -65t-123 -118q82 -101 184.5 -242l149.5 -204q44 -59 79 -77t102 -22v-66z" />
    <glyph glyph-name="i" unicode="i" horiz-adv-x="586" 
d="M534 0h-481v66q23 2 49 4.5t43 7.5q28 9 42 31.5t14 58.5v1142q0 36 -15.5 67.5t-40.5 49.5q-18 12 -66 22t-77 12v64l371 23l14 -15v-1353q0 -35 13 -57.5t42 -34.5q22 -10 43.5 -15t48.5 -7v-66z" />
    <glyph glyph-name="j" unicode="j" horiz-adv-x="1804" 
d="M1761 0h-481v66l46.5 4t41.5 8q28 9 41.5 31.5t13.5 58.5v509q0 104 -47.5 160.5t-118.5 56.5q-49 0 -92 -15t-79 -42q-29 -22 -48.5 -47.5t-29.5 -42.5v-569q0 -35 12 -57.5t41 -34.5q23 -9 41.5 -13.5t48.5 -6.5v-66h-471v66l44.5 4t39.5 8q28 9 41.5 31.5t13.5 58.5
v509q0 104 -47.5 160.5t-118.5 56.5q-49 0 -92 -15.5t-79 -42.5q-29 -22 -49 -49.5l-30 -41.5v-565q0 -34 14 -57t42 -35q21 -10 43 -15t49 -7v-66h-479v66l47.5 4t42.5 8q28 9 41.5 31.5t13.5 58.5v613q0 32 -14.5 57.5t-40.5 43.5q-19 12 -47 19.5t-58 9.5v65l330 22
l14 -14v-141h7l61 59t67 55q35 24 87.5 40t113.5 16q96 0 165 -51.5t99 -124.5l63.5 61.5t72.5 56.5q38 26 89.5 42t114.5 16q125 0 198 -82t73 -252v-501q0 -35 12 -57.5t41 -34.5q23 -9 45.5 -13.5t50.5 -6.5v-66z" />
    <glyph glyph-name="k" unicode="k" horiz-adv-x="1210" 
d="M1161 0h-483v66q23 2 50.5 4t45.5 8q28 9 41.5 31.5t13.5 58.5v507q0 105 -49.5 162t-120.5 57q-53 0 -97 -16.5t-78 -40.5q-33 -23 -52.5 -49.5t-28.5 -42.5v-567q0 -34 14 -56t42 -34q21 -10 45.5 -15t50.5 -7v-66h-483v66l47.5 4t42.5 8q28 9 41.5 31.5t13.5 58.5v609
q0 34 -14.5 62.5t-40.5 46.5q-19 12 -45 17.5t-56 7.5v65l328 22l14 -14v-139h5l60 57.5t68 54.5q37 24 88 40t115 16q142 0 210.5 -88.5t68.5 -235.5v-513q0 -35 12 -56.5t41 -33.5q24 -10 41.5 -14t48.5 -6v-66z" />
    <glyph glyph-name="l" unicode="l" horiz-adv-x="1104" 
d="M1033 503q0 -104 -33 -204.5t-94 -170.5q-69 -80 -160 -119t-204 -39q-94 0 -179 35.5t-151 103.5q-65 67 -103.5 163.5t-38.5 216.5q0 231 134.5 378t352.5 147q207 0 341.5 -139.5t134.5 -371.5zM826 501q0 75 -15 158.5t-45 141.5q-32 62 -84 99.5t-127 37.5
q-77 0 -131.5 -38t-88.5 -104q-32 -61 -45 -139t-13 -151q0 -96 15.5 -177.5t49.5 -145.5t85.5 -100.5t127.5 -36.5q125 0 198 121t73 334z" />
    <glyph glyph-name="m" unicode="m" horiz-adv-x="1170" 
d="M973 869q59 -70 91.5 -162.5t32.5 -211.5q0 -117 -39 -213.5t-103 -164.5q-67 -69 -149 -106t-174 -37q-89 0 -146 20t-93 47h-8v-296q0 -36 14 -60t43 -35q24 -9 68.5 -17.5t73.5 -9.5v-67h-551v67q31 2 60 5t52 10q30 10 42 35t12 59v1049q0 30 -15 58t-39 45
q-18 12 -50 18.5t-62 8.5v65l336 22l14 -12v-111l8 -2q52 60 129 100t153 40q92 0 168.5 -39t131.5 -105zM810 160q40 62 59 144t19 183q0 74 -16 151t-50 134q-34 58 -89 94t-132 36q-74 0 -126 -32.5t-90 -77.5v-583q9 -27 29.5 -56t45.5 -50q31 -25 67 -40.5t88 -15.5
q56 0 108 29.5t87 83.5z" />
    <glyph glyph-name="n" unicode="n" horiz-adv-x="1146" 
d="M1154 -444h-533v67q31 2 61 5t54 10q31 10 43 35t12 59v364l-6 2q-16 -18 -45.5 -41.5t-61.5 -38.5q-40 -21 -77 -32.5t-93 -11.5q-90 0 -169.5 37.5t-138.5 106.5q-59 68 -93.5 167.5t-34.5 218.5q0 113 40 205.5t106 161.5q63 65 151.5 103.5t175.5 38.5
q65 0 115.5 -12.5t86.5 -29.5q31 -13 62 -33.5t44 -27.5l85 130l57 -8q-4 -74 -10.5 -182t-6.5 -189v-912q0 -35 13 -60.5t42 -38.5q24 -10 61 -17.5t60 -9.5v-67zM791 183v589q-8 25 -27 55.5t-45 53.5q-28 24 -68.5 40t-93.5 16q-117 0 -196.5 -121t-79.5 -333
q0 -84 15.5 -152t53.5 -127q36 -56 91 -89.5t139 -33.5q72 0 123 30.5t88 71.5z" />
    <glyph glyph-name="o" unicode="o" horiz-adv-x="839" 
d="M827 859q0 -51 -25 -90.5t-77 -39.5q-56 0 -85.5 29t-29.5 64q0 22 3.5 40t6.5 36q-47 0 -110 -38t-107 -108v-574q0 -35 13.5 -57t42.5 -33q25 -10 64.5 -15t68.5 -7v-66h-520v66l47.5 4t42.5 8q28 9 41.5 31.5t13.5 58.5v609q0 31 -14.5 61t-40.5 48q-19 12 -45 17.5
t-56 7.5v65l328 22l14 -14v-139h5q62 81 138 123t139 42t102.5 -41t39.5 -110z" />
    <glyph glyph-name="p" unicode="p" horiz-adv-x="885" 
d="M723 483q41 -36 63 -83t22 -115q0 -137 -102.5 -224t-265.5 -87q-86 0 -158.5 31t-103.5 57l-20 -65h-75l-10 343h69q8 -39 34 -91t63 -94q39 -44 93.5 -74t122.5 -30q96 0 148 43.5t52 124.5q0 42 -16.5 72.5t-48.5 53.5q-33 23 -81 41.5t-107 36.5q-47 14 -104.5 38.5
t-98.5 57.5q-44 35 -72 86t-28 120q0 121 90 205t241 84q58 0 118.5 -15t98.5 -36l23 52h72l15 -317h-69q-21 106 -90.5 172.5t-169.5 66.5q-82 0 -129 -41t-47 -99q0 -45 15.5 -75t46.5 -51q30 -20 75.5 -37.5t112.5 -39.5q66 -21 124.5 -49t96.5 -62z" />
    <glyph glyph-name="q" unicode="q" horiz-adv-x="707" 
d="M681 43q-65 -27 -123 -45.5t-142 -18.5q-124 0 -174.5 62.5t-50.5 176.5v668h-178v96h182v307h182v-307h283v-96h-281v-551q0 -62 4.5 -103.5t21.5 -72.5q16 -29 48 -44t86 -15q25 0 73.5 4.5t68.5 11.5v-73z" />
    <glyph glyph-name="r" unicode="r" horiz-adv-x="1176" 
d="M1152 18l-344 -22l-15 14v92l-8 2q-52 -58 -128.5 -95t-157.5 -37q-84 0 -162.5 37.5t-136.5 105.5q-59 69 -93.5 166t-34.5 214q0 107 37 203t102 168q61 67 149.5 107t180.5 40q69 0 135.5 -17.5t114.5 -44.5v343q0 42 -14 76.5t-39 52.5q-28 19 -75.5 27.5
t-102.5 12.5v62l403 23l15 -15v-1330q0 -35 13.5 -59.5t39.5 -41.5q19 -12 55 -15t66 -4v-65zM791 191v577q-8 26 -26 56t-45 55q-29 25 -68 41.5t-91 16.5q-60 0 -110.5 -31t-89.5 -89q-37 -56 -58.5 -142.5t-21.5 -191.5q0 -84 16 -152.5t54 -127.5q35 -56 89.5 -90
t129.5 -34q80 0 132.5 35t88.5 77z" />
    <glyph glyph-name="s" unicode="s" horiz-adv-x="666" 
d="M806 1429q0 -45 -24 -76t-73 -31q-31 0 -54.5 13t-43.5 35t-37 50t-29 45q-67 -3 -103.5 -93.5t-36.5 -288.5v-101h254v-96h-254v-708q0 -35 13.5 -57t42.5 -33q24 -9 64 -14.5t69 -7.5v-66h-520v66l47.5 4t42.5 8q28 9 41.5 31.5t13.5 58.5v718h-195v96h195v63
q0 225 116.5 364.5t291.5 139.5q89 0 134 -35t45 -85z" />
    <glyph glyph-name="t" unicode="t" horiz-adv-x="1178" 
d="M1129 18l-321 -22l-15 14v125h-6q-24 -25 -54 -53.5t-69 -51.5q-45 -27 -87 -41t-119 -14q-131 0 -199.5 85.5t-68.5 248.5v472q0 36 -13.5 60.5t-39.5 42.5q-18 12 -45 17.5t-57 7.5v65l329 24l15 -14v-685q0 -107 48 -161t115 -54q55 0 98 17t72 40q27 21 47.5 44.5
t31.5 43.5v559q0 33 -14 58.5t-39 43.5q-18 12 -53.5 14.5t-79.5 4.5v65l358 24l15 -14v-783q0 -34 14 -58t39 -41q18 -11 43 -14.5t55 -4.5v-65z" />
    <glyph glyph-name="u" unicode="u" horiz-adv-x="1017" 
d="M1046 925q-45 -8 -85.5 -32.5t-69.5 -86.5l-122 -279.5l-131 -305.5q-20 -46 -42.5 -109l-41.5 -121h-78l-175 428.5l-166 396.5q-20 46 -64.5 71.5t-89.5 32.5v66h456v-70q-30 -1 -75 -12.5t-45 -31.5q0 -3 5 -15.5t10 -28.5l116 -285l122 -295l90.5 214l117.5 286
l19 50.5t9 47.5q0 17 -16.5 30.5t-39.5 23.5t-45 15t-36 7v64h377v-61z" />
    <glyph glyph-name="v" unicode="v" horiz-adv-x="1510" 
d="M1541 922q-42 -4 -90.5 -35t-70.5 -93l-94.5 -278.5l-99.5 -295.5q-18 -52 -36.5 -112t-33.5 -115h-86l-265 726l-267 -726h-82l-146.5 440.5l-126.5 380.5q-16 47 -61 74t-87 32v66h440v-70q-33 -1 -71.5 -11t-38.5 -33q0 -4 3.5 -17t8.5 -28l72.5 -234.5l104.5 -336.5
l252 710h96l257 -700l85.5 259.5t74.5 235.5q7 26 13.5 47.5t6.5 42.5q0 18 -16 32t-39 23q-20 8 -43.5 12t-34.5 4v64h375v-64z" />
    <glyph glyph-name="w" unicode="w" horiz-adv-x="1034" 
d="M1022 0h-452v66q45 5 76.5 10t31.5 26q0 9 -10 28t-20 35l-68.5 104.5l-106.5 156.5q-52 -65 -96 -126.5l-92 -130.5q-7 -10 -14.5 -25t-7.5 -24q0 -22 28.5 -36.5t85.5 -19.5v-64h-365v62q68 20 109.5 48.5t76.5 70.5l86.5 110l143.5 190l-124.5 178.5l-121.5 175.5
q-26 38 -59.5 61.5t-94.5 23.5v66h429v-66q-32 0 -63 -4t-31 -18q0 -9 6 -20t15 -24l68.5 -105l100.5 -150l81.5 112l85.5 122q4 7 8 17.5t4 20.5q0 21 -34.5 33.5t-65.5 17.5v64h364v-62q-77 -20 -120 -47.5t-73 -63.5l-78.5 -101l-127.5 -168l148 -210l115 -169
q29 -44 64.5 -69.5t97.5 -29.5v-66z" />
    <glyph glyph-name="x" unicode="x" horiz-adv-x="1008" 
d="M-3 -322q0 50 27.5 81.5t68.5 31.5q32 0 55 -12t41 -31q15 -15 32 -41t27 -43q50 27 119.5 141t100.5 200l-172 424l-161 387q-19 46 -64 71.5t-90 32.5v66h450v-70q-30 -1 -72 -12.5t-42 -26.5q0 -6 4.5 -20t10.5 -29q38 -99 116 -285.5t121 -298.5l93.5 221.5
t108.5 270.5l20 52.5t13 57.5q0 26 -45.5 48.5t-86.5 27.5v64h366v-62q-30 -5 -79 -34.5t-73 -83.5l-211.5 -503t-140.5 -334q-63 -140 -112.5 -218.5t-96.5 -123.5q-46 -42 -83.5 -56.5t-77.5 -14.5q-78 0 -122.5 37t-44.5 85z" />
    <glyph glyph-name="y" unicode="y" horiz-adv-x="909" 
d="M853 0h-798v53l558 852h-138q-87 0 -136 -3t-90 -20q-28 -11 -52.5 -63t-42.5 -136h-61v303h754v-41l-567 -864q36 -1 79 -1.5t93 -0.5q40 0 83.5 1t111.5 5q40 2 60.5 27t31.5 57q11 29 26.5 80t27.5 99h60v-348z" />
    <glyph glyph-name="z" unicode="z" horiz-adv-x="1032" 
d="M1006 18q-47 -17 -82.5 -27.5t-80.5 -10.5q-78 0 -124.5 36.5t-59.5 106.5h-6q-65 -72 -139.5 -110t-179.5 -38q-111 0 -182.5 68t-71.5 178q0 57 16 102t48 81q25 30 66 53.5t77 37.5q45 17 182.5 63t185.5 72v99q0 13 -5.5 50t-23.5 70q-20 37 -56.5 64.5t-103.5 27.5
q-46 0 -85.5 -15.5t-55.5 -32.5q0 -20 9.5 -59t9.5 -72q0 -35 -31.5 -64t-87.5 -29q-50 0 -73.5 35.5t-23.5 79.5q0 46 32.5 88t84.5 75q45 28 109 47.5t125 19.5q84 0 146.5 -11.5t113.5 -49.5q51 -37 77.5 -100.5t26.5 -163.5q0 -143 -3 -253.5t-3 -241.5q0 -39 13.5 -62
t41.5 -39q15 -9 47.5 -10t66.5 -1v-64zM657 546q-85 -25 -149 -49t-119 -60q-50 -34 -79 -80.5t-29 -110.5q0 -83 43.5 -122t110.5 -39q71 0 125 34.5t91 81.5z" />
    <glyph glyph-name="braceleft" unicode="{" horiz-adv-x="881" 
d="M814 -333q-105 0 -189 14.5t-141 54.5q-58 41 -87.5 109.5t-29.5 181.5q0 60 7.5 129.5t7.5 124.5q0 72 -21 119.5t-62 76.5q-40 29 -99 42t-128 18v129q70 6 130.5 20.5t97.5 41.5q43 31 62.5 78.5t19.5 115.5q0 57 -7.5 126t-7.5 129q0 104 29.5 175t87.5 113
q57 41 142 56.5t188 15.5v-82q-40 -2 -93 -10.5t-84 -25.5q-36 -20 -58.5 -63.5t-22.5 -117.5v-234q0 -105 -25 -174t-74 -112q-45 -40 -107 -63.5t-138 -37.5v-31q72 -14 135.5 -37t109.5 -64q47 -42 73 -111t26 -175v-233q0 -71 21 -115t60 -67q37 -21 86.5 -28t90.5 -9
v-80z" />
    <glyph glyph-name="bar" unicode="|" horiz-adv-x="768" 
d="M448 -424h-127v1947h127v-1947z" />
    <glyph glyph-name="braceright" unicode="}" horiz-adv-x="881" 
d="M809 537q-69 -5 -128.5 -18.5t-98.5 -41.5q-41 -29 -62 -76.5t-21 -119.5q0 -55 7.5 -124.5t7.5 -129.5q0 -113 -29.5 -181.5t-87.5 -109.5q-56 -39 -140.5 -54t-189.5 -15v80q41 2 91 9t86 28q39 23 60 67t21 115v233q0 106 26 175t73 111q46 41 109.5 64t135.5 37v31
q-76 14 -138 37.5t-107 63.5q-49 43 -74 112t-25 174v234q0 74 -22.5 117.5t-58.5 63.5q-31 17 -84 25.5t-93 10.5v82q103 0 188 -15.5t142 -56.5q58 -42 87.5 -113t29.5 -175q0 -60 -7.5 -129t-7.5 -126q0 -68 19.5 -115.5t62.5 -78.5q37 -26 97.5 -41t130.5 -21v-129z" />
    <glyph glyph-name="asciitilde" unicode="~" horiz-adv-x="1317" 
d="M1187 714q-14 -37 -46.5 -92.5t-72.5 -95.5q-49 -49 -103.5 -77.5t-118.5 -28.5q-72 0 -132 21.5t-110 46.5q-51 26 -100.5 47t-99.5 21q-67 0 -110.5 -46t-85.5 -130l-78 31q13 38 46.5 92t73.5 96q39 42 99.5 74t121.5 32q74 0 133.5 -21.5t110.5 -46.5l98.5 -47.5
t99.5 -20.5q70 0 114.5 49t81.5 127z" />
    <glyph glyph-name="exclamdown" unicode="&#xa1;" horiz-adv-x="678" 
d="M481 1309q0 -56 -40.5 -95.5t-96.5 -39.5t-96.5 39.5t-40.5 95.5t40.5 96.5t96.5 40.5t96.5 -40.5t40.5 -96.5zM472 103q0 -57 -36 -96t-92 -39t-92 38.5t-36 96.5q0 65 32 332.5t55 556.5h78q23 -242 57 -537t34 -352z" />
    <glyph glyph-name="cent" unicode="&#xa2;" horiz-adv-x="1137" 
d="M1040 234q-59 -100 -161.5 -172.5t-227.5 -80.5v-280h-82v281q-205 18 -316.5 160.5t-111.5 356.5q0 193 119 339.5t309 171.5v265h82v-260q146 -1 244 -71.5t98 -188.5q0 -61 -26.5 -94t-79.5 -33q-65 0 -93.5 30t-28.5 67q0 45 14.5 92t16.5 70q-17 26 -57 40t-88 17
v-856q5 0 9 -0.5t11 -0.5q104 0 176.5 48.5t134.5 144.5zM569 100v839q-44 -11 -84 -41.5t-71 -80.5t-50.5 -129.5t-19.5 -180.5q0 -160 59 -266t166 -141z" />
    <glyph glyph-name="sterling" unicode="&#xa3;" horiz-adv-x="1274" 
d="M299 177h866v-177h-1048v148q69 23 112.5 73t66.5 116q22 61 31 134.5t9 149.5h-167v96h167l-9 120t-6 132q0 212 126.5 349.5t328.5 137.5q88 0 154.5 -27t109.5 -67q44 -42 68 -94.5t24 -107.5q0 -50 -24 -87.5t-80 -37.5q-59 0 -93 29.5t-34 67.5q0 44 12.5 91
t17.5 69q-13 28 -55 56t-104 28q-35 0 -75.5 -10t-81.5 -43q-39 -32 -64 -91t-25 -149q0 -64 5 -177.5t5 -188.5h396v-96h-396q0 -136 -60 -247.5t-177 -187.5v-9z" />
    <glyph glyph-name="currency" unicode="&#xa4;" horiz-adv-x="1170" 
d="M1005 228l-86 -87l-188 184q-31 -19 -68.5 -30.5t-77.5 -11.5q-36 0 -75 11.5t-69 30.5l-189 -186l-85 90l184 186q-20 31 -31 69.5t-11 74.5q0 42 10.5 76t31.5 68l-184 189l88 86l186 -185q25 17 69 29.5t75 12.5q40 0 78.5 -12t66.5 -29l185 184l90 -85l-186 -190
q20 -31 31.5 -69.5t11.5 -74.5q0 -39 -12.5 -78t-30.5 -66zM747 559q0 68 -47.5 116.5t-114.5 48.5t-114.5 -48t-47.5 -117q0 -67 47.5 -116t114.5 -49t114.5 48t47.5 117z" />
    <glyph glyph-name="yen" unicode="&#xa5;" horiz-adv-x="1259" 
d="M1282 1348q-17 -1 -54 -13.5t-53 -24.5q-39 -24 -53.5 -36.5t-53.5 -68.5q-113 -168 -176.5 -277.5l-165.5 -284.5v-83h393v-96h-393v-257q0 -36 13 -62.5t45 -42.5q18 -8 66.5 -19t78.5 -12v-71h-610v71q24 2 74.5 7t70.5 14q29 13 43 38.5t14 66.5v267h-393v96h393v64
q-87 176 -148 286l-150 268q-33 57 -58.5 86t-58.5 51q-24 15 -57.5 23t-60.5 10v71h579v-71q-97 -4 -132 -14t-35 -34q0 -11 17 -46t59 -113l87.5 -159.5l124.5 -223.5l202.5 340t88.5 175q0 23 -15 37t-41 22q-27 8 -53 10.5l-60 5.5v71h472v-71z" />
    <glyph glyph-name="brokenbar" unicode="&#xa6;" horiz-adv-x="768" 
d="M448 723h-127v800h127v-800zM448 -424h-127v810h127v-810z" />
    <glyph glyph-name="section" unicode="&#xa7;" 
d="M903 634q0 -100 -67 -186.5t-183 -129.5q110 -47 159 -113t49 -154q0 -65 -28 -122t-80 -98q-56 -43 -126 -66t-170 -23q-91 0 -147.5 17.5t-90.5 44.5t-47.5 56t-13.5 54q0 44 25.5 72.5t73.5 28.5q34 0 57 -19t38 -44q16 -25 31 -61t27 -62q16 -4 34.5 -7t48.5 -3
q91 0 153.5 55.5t62.5 125.5q0 61 -51.5 118.5t-227.5 124.5q-169 66 -239 151.5t-70 201.5q0 95 59 173t182 131q-107 51 -155.5 112.5t-48.5 148.5q0 62 26 114t79 93q49 39 127 62.5t170 23.5q90 0 149 -18.5t91 -44.5t45 -56.5t13 -54.5q0 -46 -26 -72.5t-73 -26.5
q-32 0 -55 18t-40 45q-19 31 -30.5 60t-27.5 63q-14 4 -38 7t-45 3q-92 0 -151.5 -52t-59.5 -127q0 -41 21 -71.5t60 -56.5q39 -27 106.5 -56.5l118.5 -50.5q149 -62 217 -143.5t68 -185.5zM748 587q0 88 -77.5 156t-224.5 119q-92 -38 -132 -95.5t-40 -130.5
q0 -98 75.5 -162t232.5 -127q92 52 129 110.5t37 129.5z" />
    <glyph glyph-name="dieresis" unicode="&#xa8;" 
d="M845 1364q0 -51 -34.5 -87t-83.5 -36t-83.5 36t-34.5 87t34.5 87t83.5 36t83.5 -36t34.5 -87zM415 1364q0 -51 -34.5 -87t-83.5 -36t-83.5 36t-34.5 87t34.5 87t83.5 36t83.5 -36t34.5 -87z" />
    <glyph glyph-name="copyright" unicode="&#xa9;" horiz-adv-x="1929" 
d="M1849 602q0 -366 -259.5 -624.5t-625.5 -258.5t-625 258.5t-259 624.5t259 624.5t625 258.5t625.5 -258.5t259.5 -624.5zM1750 602q0 325 -229 560t-557 235t-556.5 -235t-228.5 -560t228.5 -560t556.5 -235t557 235t229 560zM1375 404q-21 -52 -55.5 -106t-80.5 -93
q-52 -44 -111 -69t-146 -25q-107 0 -197.5 33t-156.5 97q-65 63 -100.5 152t-35.5 199q0 105 38 196t108 160q67 66 164.5 105t208.5 39q58 0 122.5 -20t96.5 -44l45 66h59l5 -363h-54q-20 60 -41.5 108.5t-59.5 91.5q-35 40 -86 64t-126 24q-120 0 -196.5 -111.5
t-76.5 -305.5q0 -183 92.5 -289.5t231.5 -106.5q101 0 172 53.5t122 169.5z" />
    <glyph glyph-name="ordfeminine" unicode="&#xaa;" 
d="M933 648q-39 -13 -71.5 -22t-70.5 -9q-65 0 -103.5 31.5t-49.5 88.5h-5q-55 -58 -120 -91t-149 -33q-89 0 -148.5 57t-59.5 143q0 51 14 90t38 68q24 26 55 41.5t64 28.5q70 28 162.5 56.5t145.5 56.5v55q0 10 -5.5 41t-19.5 56q-16 30 -48 52.5t-85 22.5
q-33 0 -63.5 -12.5t-45.5 -27.5q2 -15 8.5 -45.5t6.5 -52.5q0 -29 -31 -50.5t-77 -21.5q-44 0 -62.5 30.5t-18.5 65.5q0 76 96 131t197 55q67 0 122.5 -10.5t96.5 -38.5q43 -30 66.5 -80t23.5 -134q0 -116 -2.5 -200.5t-2.5 -191.5q0 -30 11.5 -49t35.5 -32q15 -8 41.5 -8.5
t53.5 -0.5v-60zM636 1075q-77 -23 -124.5 -39.5t-94.5 -44.5q-40 -24 -63 -59t-23 -82q0 -66 32 -97t85 -31q68 0 111 26.5t73 60.5z" />
    <glyph glyph-name="guillemotleft" unicode="&#xab;" horiz-adv-x="1190" 
d="M997 160l-49 -40l-355 332q-9 8 -25.5 27t-16.5 49t16.5 49t28.5 31l352 329l49 -41l-259 -367zM616 160l-49 -40l-355 332q-9 8 -25.5 27t-16.5 49t15.5 48t29.5 32l352 329l49 -41l-259 -367z" />
    <glyph glyph-name="logicalnot" unicode="&#xac;" horiz-adv-x="1317" 
d="M1163 76h-132v451h-887v125h1019v-576z" />
    <glyph glyph-name="registered" unicode="&#xae;" horiz-adv-x="1929" 
d="M1849 602q0 -366 -259.5 -624.5t-625.5 -258.5t-625 258.5t-259 624.5t259 624.5t625 258.5t625.5 -258.5t259.5 -624.5zM1750 602q0 325 -229 560t-557 235t-556.5 -235t-228.5 -560t228.5 -560t556.5 -235t557 235t229 560zM1542 145h-287q-95 134 -165 223.5
l-143 180.5h-105v-262q0 -22 8.5 -40.5t33.5 -27.5q11 -4 46 -9.5t53 -6.5v-58h-439v58q18 2 49 6t46 10q22 9 31.5 26t9.5 42v642q0 24 -7 41.5t-34 26.5q-21 7 -48 12.5t-47 7.5v58h492q56 0 110 -12t98 -38q43 -26 70 -68.5t27 -102.5q0 -109 -59.5 -171t-175.5 -94
l136.5 -166.5l99.5 -123.5q28 -35 55 -52t52 -25q20 -7 48 -12.5t45 -6.5v-58zM1155 834q0 83 -50 126t-147 43h-116v-378h87q104 0 165 55t61 154z" />
    <glyph glyph-name="overscore" unicode="&#xaf;" horiz-adv-x="1317" 
d="M1322 1603h-1327v101h1327v-101z" />
    <glyph glyph-name="degree" unicode="&#xb0;" horiz-adv-x="859" 
d="M755 1128q0 -137 -91.5 -231t-234.5 -94q-144 0 -234.5 95t-90.5 230q0 141 93 233t232 92q143 0 234.5 -94t91.5 -231zM607 1120q0 125 -49 191.5t-130 66.5q-82 0 -129 -67t-47 -180q0 -117 47 -185t133 -68q67 0 121 61.5t54 180.5z" />
    <glyph glyph-name="plusminus" unicode="&#xb1;" horiz-adv-x="1317" 
d="M1168 0h-1019v125h446v402h-446v125h446v451h127v-451h446v-125h-446v-402h446v-125z" />
    <glyph glyph-name="twosuperior" unicode="&#xb2;" 
d="M900 490h-753v111q39 65 119 128t193 134q35 22 77.5 58.5t65.5 67.5q30 40 45.5 83.5t15.5 109.5q0 96 -49 146t-129 50q-57 0 -97.5 -19.5t-58.5 -45.5l13.5 -54.5t7.5 -63.5q0 -31 -27.5 -54t-80.5 -23q-48 0 -68.5 31.5t-20.5 70.5q0 91 104.5 162t242.5 71
q157 0 256 -75.5t99 -202.5q0 -75 -22.5 -130.5t-59.5 -94.5q-39 -41 -87.5 -71t-100.5 -55q-64 -31 -155.5 -83t-150.5 -107h621v-144z" />
    <glyph glyph-name="threesuperior" unicode="&#xb3;" 
d="M795 927q37 -27 61 -70.5t24 -105.5q0 -126 -115 -211t-307 -85q-135 0 -233 58t-98 142q0 45 23.5 72.5t60.5 27.5q52 0 79 -22.5t27 -49.5q0 -22 -7.5 -52t-13.5 -50q25 -21 70 -37t98 -16q101 0 162.5 57.5t61.5 169.5q0 35 -8.5 68.5t-30.5 57.5t-62.5 38t-102.5 14
h-107v94h76q103 0 147.5 49t44.5 150q0 72 -41.5 113.5t-120.5 41.5q-45 0 -82 -15t-60 -44q5 -17 12 -50.5t7 -56.5q0 -26 -28.5 -48.5t-78.5 -22.5q-46 0 -66.5 28.5t-20.5 64.5q0 37 22 73t69 70q40 30 111 51.5t148 21.5q93 0 157.5 -24t102.5 -62q36 -37 48.5 -75.5
t12.5 -63.5q0 -30 -10.5 -65.5t-33.5 -63.5q-24 -29 -64.5 -55.5t-105.5 -44.5v-9q41 -4 90 -20.5t82 -42.5z" />
    <glyph glyph-name="acute" unicode="&#xb4;" 
d="M696 1460q0 -38 -17.5 -62t-51.5 -51l-130.5 -102l-173.5 -135l-38 32l125.5 187.5l76.5 120.5q31 51 60 69.5t67 18.5q36 0 59 -24.5t23 -53.5z" />
    <glyph glyph-name="mu1" unicode="&#xb5;" horiz-adv-x="1160" 
d="M1133 19q-47 -17 -83.5 -27.5t-81.5 -10.5q-77 0 -128.5 39t-64.5 115h-6l-57.5 -58t-63.5 -50q-41 -24 -80 -36t-114 -12q-58 0 -111 24t-79 57h-6v-58q0 -68 26.5 -182t26.5 -162q0 -49 -31 -75.5t-68 -26.5q-40 0 -65.5 27t-25.5 73q0 59 18 154t24 146q7 55 9.5 98.5
t2.5 81.5v850h189v-677q0 -104 46.5 -160.5t117.5 -56.5q55 0 98.5 16t70.5 37q25 20 45 43t31 43v755h189v-784q0 -43 13 -68t43 -40q17 -9 49 -10t66 -1v-64z" />
    <glyph glyph-name="paragraph" unicode="&#xb6;" 
d="M1000 1345h-111v-1561h-103v1561h-160v-1561h-103v922q-193 0 -308.5 92.5t-115.5 260.5q0 162 107 261t277 99h517v-74z" />
    <glyph glyph-name="middot" unicode="&#xb7;" horiz-adv-x="572" 
d="M425 559q0 -56 -40.5 -95.5t-96.5 -39.5t-96.5 39.5t-40.5 95.5t40.5 96.5t96.5 40.5t96.5 -40.5t40.5 -96.5z" />
    <glyph glyph-name="cedilla" unicode="&#xb8;" 
d="M630 -129q34 -16 55 -45.5t21 -73.5q0 -58 -32 -98t-89 -62q-55 -20 -122 -28t-156 -8v72q41 0 89 1t82 9q40 9 62 27.5t22 52.5q0 49 -55 62t-110 13v224h79v-116q45 0 81 -5.5t73 -24.5z" />
    <glyph glyph-name="onesuperior" unicode="&#xb9;" 
d="M789 490h-565v71q30 1 84 4.5t74 10.5t32.5 23t12.5 42v631h-207v78h62q78 0 146 28.5t102 66.5h73q-2 -45 -4.5 -119.5t-2.5 -117.5v-559q0 -23 11.5 -41t31.5 -27q19 -8 68.5 -14t81.5 -6v-71z" />
    <glyph glyph-name="ordmasculine" unicode="&#xba;" 
d="M908 1038q0 -185 -109 -308.5t-295 -123.5q-161 0 -274.5 118t-113.5 303q0 187 111 306.5t290 119.5q174 0 282.5 -116t108.5 -299zM673 785q24 47 37 111.5t13 139.5q0 63 -10.5 125t-34.5 110q-25 49 -65 78.5t-98 29.5q-61 0 -103 -30.5t-67 -81.5
q-25 -48 -35 -110.5t-10 -116.5q0 -75 12 -139t38 -113t66.5 -78.5t97.5 -29.5q54 0 94 28t65 77z" />
    <glyph glyph-name="guillemotright" unicode="&#xbb;" horiz-adv-x="1190" 
d="M1020 528q0 -32 -17 -50.5t-25 -25.5l-355 -332l-49 40l259 369l-259 367l49 41l352 -329q11 -10 28 -32.5t17 -47.5zM639 528q0 -32 -17 -50.5t-25 -25.5l-355 -332l-49 40l259 369l-259 367l49 41l352 -329q10 -9 27.5 -30.5t17.5 -49.5z" />
    <glyph glyph-name="onequarter" unicode="&#xbc;" horiz-adv-x="2150" 
d="M700 490h-565v71q30 1 84 4.5t74 10.5t32.5 23t12.5 42v631h-207v78h62q78 0 146 28.5t102 66.5h73q-2 -45 -4.5 -119.5t-2.5 -117.5v-559q0 -23 11.5 -41t31.5 -27q19 -8 68.5 -14t81.5 -6v-71zM1447 1419l-739 -1419h-135l737 1419h137zM1988 212h-159v-232h-166v232
h-495v126l543 623h118v-640h159v-109zM1663 321v453l-393 -453h393z" />
    <glyph glyph-name="onehalf" unicode="&#xbd;" horiz-adv-x="2150" 
d="M700 490h-565v71q30 1 84 4.5t74 10.5t32.5 23t12.5 42v631h-207v78h62q78 0 146 28.5t102 66.5h73q-2 -45 -4.5 -119.5t-2.5 -117.5v-559q0 -23 11.5 -41t31.5 -27q19 -8 68.5 -14t81.5 -6v-71zM1437 1419l-739 -1419h-135l737 1419h137zM2044 0h-753v111q39 65 119 128
t193 134q35 22 77.5 58.5t65.5 67.5q30 40 45.5 83.5t15.5 109.5q0 96 -49 146t-129 50q-57 0 -97.5 -19.5t-58.5 -45.5l13.5 -54.5t7.5 -63.5q0 -31 -27.5 -54t-80.5 -23q-48 0 -68.5 31.5t-20.5 70.5q0 91 104.5 162t242.5 71q157 0 256 -75.5t99 -202.5
q0 -75 -22.5 -130.5t-59.5 -94.5q-39 -41 -87.5 -71t-100.5 -55q-64 -31 -155.5 -83t-150.5 -107h621v-144z" />
    <glyph glyph-name="threequarters" unicode="&#xbe;" horiz-adv-x="2150" 
d="M785 927q37 -27 61 -70.5t24 -105.5q0 -126 -115 -211t-307 -85q-135 0 -233 58t-98 142q0 45 23.5 72.5t60.5 27.5q52 0 79 -22.5t27 -49.5q0 -22 -7.5 -52t-13.5 -50q25 -21 70 -37t98 -16q101 0 162.5 57.5t61.5 169.5q0 35 -8.5 68.5t-30.5 57.5t-62.5 38t-102.5 14
h-107v94h76q103 0 147.5 49t44.5 150q0 72 -41.5 113.5t-120.5 41.5q-45 0 -82 -15t-60 -44q5 -17 12 -50.5t7 -56.5q0 -26 -28.5 -48.5t-78.5 -22.5q-46 0 -66.5 28.5t-20.5 64.5q0 37 22 73t69 70q40 30 111 51.5t148 21.5q93 0 157.5 -24t102.5 -62q36 -37 48.5 -75.5
t12.5 -63.5q0 -30 -10.5 -65.5t-33.5 -63.5q-24 -29 -64.5 -55.5t-105.5 -44.5v-9q41 -4 90 -20.5t82 -42.5zM1599 1419l-739 -1419h-135l737 1419h137zM2078 212h-159v-232h-166v232h-495v126l543 623h118v-640h159v-109zM1753 321v453l-393 -453h393z" />
    <glyph glyph-name="questiondown" unicode="&#xbf;" horiz-adv-x="980" 
d="M723 1311q0 -56 -40.5 -96.5t-96.5 -40.5t-96.5 40.5t-40.5 96.5t40.5 95.5t96.5 39.5t96.5 -39.5t40.5 -95.5zM874 205q0 -40 -22 -78.5t-69 -74.5q-41 -31 -109 -54.5t-142 -23.5q-106 0 -187.5 33t-135.5 90q-55 58 -81.5 130.5t-26.5 157.5q0 185 118 302t324 141
v221h92v-379q-63 -5 -125 -20.5t-111 -50.5q-51 -37 -79.5 -89.5t-28.5 -146.5q0 -150 63.5 -230t185.5 -80q46 0 80.5 13.5t50.5 25.5q-5 24 -13.5 69t-8.5 69q0 37 32 67.5t93 30.5q54 0 77 -37t23 -86z" />
    <glyph glyph-name="Agrave" unicode="&#xc0;" horiz-adv-x="1338" 
d="M1291 418l-27 -418h-1178v71q30 2 80 8.5t65 13.5q32 15 44.5 39t12.5 61v1020q0 33 -11 58.5t-46 41.5q-27 13 -72.5 23t-72.5 12v71h1098v-342h-75q-20 76 -86.5 161.5t-126.5 93.5q-31 4 -74 6t-98 2h-223v-564h160q77 0 112.5 14.5t62.5 48.5q22 29 37.5 77.5
t20.5 91.5h75v-555h-75q-4 48 -21.5 101.5t-36.5 77.5q-31 39 -70.5 51t-104.5 12h-160v-426q0 -64 9 -101t35 -56t71 -24.5t128 -5.5h87q54 0 91 4q38 4 78.5 14.5t57.5 28.5q46 48 96.5 145.5t64.5 143.5h72zM939 1546l-31 -39l-209.5 102l-136.5 66q-49 25 -70.5 48.5
t-21.5 64.5q0 35 25 57.5t67 22.5q30 0 55.5 -13.5t59.5 -49.5l103.5 -105.5z" />
    <glyph glyph-name="Aacute" unicode="&#xc1;" horiz-adv-x="1338" 
d="M1291 418l-27 -418h-1178v71q30 2 80 8.5t65 13.5q32 15 44.5 39t12.5 61v1020q0 33 -11 58.5t-46 41.5q-27 13 -72.5 23t-72.5 12v71h1098v-342h-75q-20 76 -86.5 161.5t-126.5 93.5q-31 4 -74 6t-98 2h-223v-564h160q77 0 112.5 14.5t62.5 48.5q22 29 37.5 77.5
t20.5 91.5h75v-555h-75q-4 48 -21.5 101.5t-36.5 77.5q-31 39 -70.5 51t-104.5 12h-160v-426q0 -64 9 -101t35 -56t71 -24.5t128 -5.5h87q54 0 91 4q38 4 78.5 14.5t57.5 28.5q46 48 96.5 145.5t64.5 143.5h72zM893 1675l-136.5 -66.5l-209.5 -101.5l-31 39l148.5 143.5
l113.5 115.5q32 34 58.5 48.5t56.5 14.5q38 0 65 -23t27 -57q0 -43 -26 -68t-66 -45z" />
    <glyph glyph-name="Acircumflex" unicode="&#xc2;" horiz-adv-x="1338" 
d="M1291 418l-27 -418h-1178v71q30 2 80 8.5t65 13.5q32 15 44.5 39t12.5 61v1020q0 33 -11 58.5t-46 41.5q-27 13 -72.5 23t-72.5 12v71h1098v-342h-75q-20 76 -86.5 161.5t-126.5 93.5q-31 4 -74 6t-98 2h-223v-564h160q77 0 112.5 14.5t62.5 48.5q22 29 37.5 77.5
t20.5 91.5h75v-555h-75q-4 48 -21.5 101.5t-36.5 77.5q-31 39 -70.5 51t-104.5 12h-160v-426q0 -64 9 -101t35 -56t71 -24.5t128 -5.5h87q54 0 91 4q38 4 78.5 14.5t57.5 28.5q46 48 96.5 145.5t64.5 143.5h72zM1026 1539l-48 -32l-279 212l-275 -212l-48 32l234 284
q18 22 35.5 33.5t57.5 11.5q41 0 56.5 -11t30.5 -30z" />
    <glyph glyph-name="Atilde" unicode="&#xc3;" horiz-adv-x="1338" 
d="M1291 418l-27 -418h-1178v71q30 2 80 8.5t65 13.5q32 15 44.5 39t12.5 61v1020q0 33 -11 58.5t-46 41.5q-27 13 -72.5 23t-72.5 12v71h1098v-342h-75q-20 76 -86.5 161.5t-126.5 93.5q-31 4 -74 6t-98 2h-223v-564h160q77 0 112.5 14.5t62.5 48.5q22 29 37.5 77.5
t20.5 91.5h75v-555h-75q-4 48 -21.5 101.5t-36.5 77.5q-31 39 -70.5 51t-104.5 12h-160v-426q0 -64 9 -101t35 -56t71 -24.5t128 -5.5h87q54 0 91 4q38 4 78.5 14.5t57.5 28.5q46 48 96.5 145.5t64.5 143.5h72zM1087 1825q-10 -38 -30 -78t-55 -79q-36 -39 -75.5 -62.5
t-94.5 -23.5q-57 0 -100 16.5t-74 34.5q-35 20 -66.5 36t-69.5 16q-31 0 -46.5 -8t-32.5 -27q-16 -18 -32 -47.5l-30 -53.5l-58 25q10 32 34 77t52 79q30 36 73 61.5t90 25.5q56 0 96.5 -16.5t74.5 -35.5l64 -36t64 -15q40 0 64.5 9.5t38.5 26.5q16 19 26.5 41t25.5 57z" />
    <glyph glyph-name="Adieresis" unicode="&#xc4;" horiz-adv-x="1338" 
d="M1291 418l-27 -418h-1178v71q30 2 80 8.5t65 13.5q32 15 44.5 39t12.5 61v1020q0 33 -11 58.5t-46 41.5q-27 13 -72.5 23t-72.5 12v71h1098v-342h-75q-20 76 -86.5 161.5t-126.5 93.5q-31 4 -74 6t-98 2h-223v-564h160q77 0 112.5 14.5t62.5 48.5q22 29 37.5 77.5
t20.5 91.5h75v-555h-75q-4 48 -21.5 101.5t-36.5 77.5q-31 39 -70.5 51t-104.5 12h-160v-426q0 -64 9 -101t35 -56t71 -24.5t128 -5.5h87q54 0 91 4q38 4 78.5 14.5t57.5 28.5q46 48 96.5 145.5t64.5 143.5h72zM1038 1718q0 -51 -34.5 -87t-83.5 -36t-83.5 36t-34.5 87
t34.5 87t83.5 36t83.5 -36t34.5 -87zM588 1718q0 -51 -34.5 -87t-83.5 -36t-83.5 36t-34.5 87t34.5 87t83.5 36t83.5 -36t34.5 -87z" />
    <glyph glyph-name="Aring" unicode="&#xc5;" horiz-adv-x="1374" 
d="M1421 0h-591v71q78 5 129.5 20t51.5 37q0 9 -2 22t-6 23l-118 318h-497q-28 -70 -45.5 -122l-31.5 -96q-13 -42 -18 -69.5t-5 -44.5q0 -40 63 -62t142 -26v-71h-534v71q26 2 65.5 11.5t63.5 25.5q40 27 62 56.5t43 81.5l226.5 577l234.5 602q-101 12 -158 71.5t-57 149.5
q0 98 75 160t183 62q112 0 185 -60.5t73 -161.5q0 -86 -58 -147t-153 -73l468 -1211q15 -39 34 -63t53 -47q22 -15 59.5 -24t62.5 -10v-71zM849 580l-215 550l-211 -550h426zM829 1646q0 68 -33.5 113t-98.5 45q-63 0 -97.5 -43t-34.5 -115q0 -69 34 -115t98 -46t98 45.5
t34 115.5z" />
    <glyph glyph-name="AE" unicode="&#xc6;" horiz-adv-x="1988" 
d="M1941 418l-27 -418h-1168v71q24 2 74.5 7.5t70.5 14.5q32 15 44.5 39t12.5 61v409h-480q-43 -71 -80.5 -139.5t-98.5 -192.5q-13 -25 -22 -51t-9 -49q0 -45 42.5 -69.5t125.5 -29.5v-71h-523v71q28 2 66.5 13t63.5 25q35 20 65.5 55.5t55.5 79.5l303 529l309 553
q-25 9 -77 14.5t-93 7.5v71h1238v-342h-75q-19 76 -86 161.5t-127 93.5q-31 4 -74 6t-98 2h-213v-564h150q76 0 112.5 14.5t62.5 48.5q22 29 37.5 77.5t20.5 91.5h75v-555h-75q-4 48 -21.5 101.5t-36.5 77.5q-31 39 -70 51t-105 12h-150v-426q0 -64 9 -101t35 -56
q27 -19 71.5 -24.5t127.5 -5.5h85.5t87.5 4q41 5 77.5 14.5t53.5 28.5q46 48 96.5 145.5t64.5 143.5h72zM948 690v641h-77l-354 -641h431z" />
    <glyph glyph-name="Ccedilla" unicode="&#xc7;" horiz-adv-x="1315" 
d="M669 -30q-111 9 -213.5 58t-182.5 133q-89 94 -142 229.5t-53 305.5t52 308.5t144 238.5q91 99 215 153t265 54q105 0 190 -26t162 -73l41 68h80l9 -506h-82q-16 74 -48 160.5t-75 146.5q-48 68 -114 106.5t-151 38.5q-97 0 -180.5 -43t-144.5 -127q-58 -81 -91 -206
t-33 -279q0 -136 34.5 -249.5t98.5 -199.5q64 -85 151.5 -133t195.5 -48q81 0 149 25.5t118 67.5q50 44 88 100t62 122l75 -36q-82 -204 -218.5 -294.5t-322.5 -96.5v-67q45 0 81 -5.5t73 -24.5q34 -16 55 -45.5t21 -73.5q0 -58 -32 -98t-89 -62q-55 -20 -122 -28t-156 -8
v72q41 0 89 1t82 9q40 9 62 27.5t22 52.5q0 24 -15 39.5t-40 23.5q-20 7 -53.5 9.5t-56.5 2.5v177z" />
    <glyph glyph-name="Egrave" unicode="&#xc8;" horiz-adv-x="1339" 
d="M1104 661q62 -42 103 -110t41 -165q0 -99 -43 -172t-112 -120q-67 -46 -151.5 -70t-174.5 -24h-672v71q24 2 70 8.5t66 15.5q31 14 44 37.5t13 60.5v1020q0 34 -11.5 60t-45.5 42q-30 15 -67 23t-62 10v71h655q76 0 145.5 -15t132.5 -53q59 -35 97 -95t38 -146
q0 -75 -27 -133.5t-76 -100.5q-46 -40 -105.5 -67.5t-128.5 -42.5v-9q61 -7 136.5 -30.5t134.5 -65.5zM863 875q37 43 51.5 94t14.5 121q0 117 -64 183.5t-202 66.5q-32 0 -80.5 -1.5l-81.5 -2.5v-545h127q82 0 140.5 21t94.5 63zM1001 422q0 126 -84.5 207t-241.5 81
q-64 0 -108 -1.5t-66 -2.5v-500q0 -63 51 -95t142 -32q149 0 228 87t79 256zM846 1546l-31 -39l-209.5 102l-136.5 66q-49 25 -70.5 48.5t-21.5 64.5q0 35 25 57.5t67 22.5q30 0 55.5 -13.5t59.5 -49.5l103.5 -105.5z" />
    <glyph glyph-name="Eacute" unicode="&#xc9;" horiz-adv-x="1339" 
d="M1104 661q62 -42 103 -110t41 -165q0 -99 -43 -172t-112 -120q-67 -46 -151.5 -70t-174.5 -24h-672v71q24 2 70 8.5t66 15.5q31 14 44 37.5t13 60.5v1020q0 34 -11.5 60t-45.5 42q-30 15 -67 23t-62 10v71h655q76 0 145.5 -15t132.5 -53q59 -35 97 -95t38 -146
q0 -75 -27 -133.5t-76 -100.5q-46 -40 -105.5 -67.5t-128.5 -42.5v-9q61 -7 136.5 -30.5t134.5 -65.5zM863 875q37 43 51.5 94t14.5 121q0 117 -64 183.5t-202 66.5q-32 0 -80.5 -1.5l-81.5 -2.5v-545h127q82 0 140.5 21t94.5 63zM1001 422q0 126 -84.5 207t-241.5 81
q-64 0 -108 -1.5t-66 -2.5v-500q0 -63 51 -95t142 -32q149 0 228 87t79 256zM871 1675l-136.5 -66.5l-209.5 -101.5l-31 39l148.5 143.5l113.5 115.5q32 34 58.5 48.5t56.5 14.5q38 0 65 -23t27 -57q0 -43 -26 -68t-66 -45z" />
    <glyph glyph-name="Ecircumflex" unicode="&#xca;" horiz-adv-x="1339" 
d="M1104 661q62 -42 103 -110t41 -165q0 -99 -43 -172t-112 -120q-67 -46 -151.5 -70t-174.5 -24h-672v71q24 2 70 8.5t66 15.5q31 14 44 37.5t13 60.5v1020q0 34 -11.5 60t-45.5 42q-30 15 -67 23t-62 10v71h655q76 0 145.5 -15t132.5 -53q59 -35 97 -95t38 -146
q0 -75 -27 -133.5t-76 -100.5q-46 -40 -105.5 -67.5t-128.5 -42.5v-9q61 -7 136.5 -30.5t134.5 -65.5zM863 875q37 43 51.5 94t14.5 121q0 117 -64 183.5t-202 66.5q-32 0 -80.5 -1.5l-81.5 -2.5v-545h127q82 0 140.5 21t94.5 63zM1001 422q0 126 -84.5 207t-241.5 81
q-64 0 -108 -1.5t-66 -2.5v-500q0 -63 51 -95t142 -32q149 0 228 87t79 256zM1004 1539l-48 -32l-279 212l-275 -212l-48 32l234 284q18 22 35.5 33.5t57.5 11.5q41 0 56.5 -11t30.5 -30z" />
    <glyph glyph-name="Edieresis" unicode="&#xcb;" horiz-adv-x="1339" 
d="M1104 661q62 -42 103 -110t41 -165q0 -99 -43 -172t-112 -120q-67 -46 -151.5 -70t-174.5 -24h-672v71q24 2 70 8.5t66 15.5q31 14 44 37.5t13 60.5v1020q0 34 -11.5 60t-45.5 42q-30 15 -67 23t-62 10v71h655q76 0 145.5 -15t132.5 -53q59 -35 97 -95t38 -146
q0 -75 -27 -133.5t-76 -100.5q-46 -40 -105.5 -67.5t-128.5 -42.5v-9q61 -7 136.5 -30.5t134.5 -65.5zM863 875q37 43 51.5 94t14.5 121q0 117 -64 183.5t-202 66.5q-32 0 -80.5 -1.5l-81.5 -2.5v-545h127q82 0 140.5 21t94.5 63zM1001 422q0 126 -84.5 207t-241.5 81
q-64 0 -108 -1.5t-66 -2.5v-500q0 -63 51 -95t142 -32q149 0 228 87t79 256zM1031 1730q0 -51 -34.5 -87t-83.5 -36t-83.5 36t-34.5 87t34.5 87t83.5 36t83.5 -36t34.5 -87zM581 1730q0 -51 -34.5 -87t-83.5 -36t-83.5 36t-34.5 87t34.5 87t83.5 36t83.5 -36t34.5 -87z" />
    <glyph glyph-name="Igrave" unicode="&#xcc;" horiz-adv-x="1236" 
d="M1237 422l-30 -422h-1109v71q24 2 69.5 7t63.5 13q30 13 43.5 38t13.5 64v1016q0 34 -11.5 60t-45.5 42q-23 12 -64.5 23.5t-68.5 13.5v71h599v-71q-28 -1 -72.5 -10t-64.5 -16q-34 -12 -46.5 -41t-12.5 -62v-953q0 -66 6.5 -102.5t30.5 -56.5q23 -18 68.5 -23.5
t127.5 -5.5q37 0 77 2t76 8q35 6 64.5 16.5t43.5 26.5q41 46 95.5 139.5t75.5 151.5h71zM674 1546l-31 -39l-209.5 102l-136.5 66q-49 25 -70.5 48.5t-21.5 64.5q0 35 25 57.5t67 22.5q30 0 55.5 -13.5t59.5 -49.5l103.5 -105.5z" />
    <glyph glyph-name="Iacute" unicode="&#xcd;" horiz-adv-x="1236" 
d="M1237 422l-30 -422h-1109v71q24 2 69.5 7t63.5 13q30 13 43.5 38t13.5 64v1016q0 34 -11.5 60t-45.5 42q-23 12 -64.5 23.5t-68.5 13.5v71h599v-71q-28 -1 -72.5 -10t-64.5 -16q-34 -12 -46.5 -41t-12.5 -62v-953q0 -66 6.5 -102.5t30.5 -56.5q23 -18 68.5 -23.5
t127.5 -5.5q37 0 77 2t76 8q35 6 64.5 16.5t43.5 26.5q41 46 95.5 139.5t75.5 151.5h71zM544 1675l-136.5 -66.5l-209.5 -101.5l-31 39l148.5 143.5l113.5 115.5q32 34 58.5 48.5t56.5 14.5q38 0 65 -23t27 -57q0 -43 -26 -68t-66 -45z" />
    <glyph glyph-name="Icircumflex" unicode="&#xce;" horiz-adv-x="1236" 
d="M1237 422l-30 -422h-1109v71q24 2 69.5 7t63.5 13q30 13 43.5 38t13.5 64v1016q0 34 -11.5 60t-45.5 42q-23 12 -64.5 23.5t-68.5 13.5v71h599v-71q-28 -1 -72.5 -10t-64.5 -16q-34 -12 -46.5 -41t-12.5 -62v-953q0 -66 6.5 -102.5t30.5 -56.5q23 -18 68.5 -23.5
t127.5 -5.5q37 0 77 2t76 8q35 6 64.5 16.5t43.5 26.5q41 46 95.5 139.5t75.5 151.5h71zM724 1539l-48 -32l-279 212l-275 -212l-48 32l234 284q18 22 35.5 33.5t57.5 11.5q41 0 56.5 -11t30.5 -30z" />
    <glyph glyph-name="Idieresis" unicode="&#xcf;" horiz-adv-x="1236" 
d="M1237 422l-30 -422h-1109v71q24 2 69.5 7t63.5 13q30 13 43.5 38t13.5 64v1016q0 34 -11.5 60t-45.5 42q-23 12 -64.5 23.5t-68.5 13.5v71h599v-71q-28 -1 -72.5 -10t-64.5 -16q-34 -12 -46.5 -41t-12.5 -62v-953q0 -66 6.5 -102.5t30.5 -56.5q23 -18 68.5 -23.5
t127.5 -5.5q37 0 77 2t76 8q35 6 64.5 16.5t43.5 26.5q41 46 95.5 139.5t75.5 151.5h71zM732 1730q0 -51 -34.5 -87t-83.5 -36t-83.5 36t-34.5 87t34.5 87t83.5 36t83.5 -36t34.5 -87zM302 1730q0 -51 -34.5 -87t-83.5 -36t-83.5 36t-34.5 87t34.5 87t83.5 36t83.5 -36
t34.5 -87z" />
    <glyph glyph-name="Eth" unicode="&#xd0;" horiz-adv-x="1534" 
d="M1457 701q0 -181 -68 -314t-177 -218q-110 -85 -247 -127t-283 -42h-588v71q29 0 75.5 5.5t61.5 12.5q30 13 43.5 38.5t13.5 61.5v512h-186v98h186v414q0 34 -11.5 61t-45.5 43q-31 15 -67 22t-62 9v71h620q128 0 252 -39.5t216 -106.5q125 -89 196 -233t71 -339z
M1212 702q0 143 -38 258.5t-111 201.5q-69 82 -169.5 129t-223.5 47q-41 0 -92.5 -1.5t-76.5 -2.5v-535h301v-98h-301v-458q0 -91 53 -126t163 -35q127 0 222 45t154 125q62 84 90.5 194.5t28.5 255.5z" />
    <glyph glyph-name="Ntilde" unicode="&#xd1;" horiz-adv-x="1524" 
d="M1244 1251q94 -98 147 -236.5t53 -306.5q0 -134 -35 -248t-99 -204q-61 -86 -145 -150t-188 -101q2 -110 79 -197.5t166 -87.5q82 0 125 5.5t71 10.5v-79q-45 -13 -112.5 -27.5t-187.5 -14.5q-67 0 -131 19.5t-116 62.5t-86.5 109t-44.5 162q-143 5 -265 61.5t-209 154.5
q-88 99 -137 232.5t-49 291.5q0 173 54 308.5t149 234.5q94 98 218.5 150t260.5 52q141 0 266 -53t216 -149zM1095 245q56 91 81.5 206t25.5 257q0 146 -28.5 268t-83.5 208q-55 85 -138 132.5t-190 47.5q-120 0 -204 -55t-137 -147q-50 -88 -74.5 -206t-24.5 -248
q0 -144 26 -260t82 -206q54 -88 136 -137.5t196 -49.5q107 0 193 50t140 140zM1194 1835q-10 -38 -30 -78t-55 -79q-36 -39 -75.5 -62.5t-94.5 -23.5q-57 0 -100 16.5t-74 34.5q-35 20 -66.5 36t-69.5 16q-31 0 -46.5 -8t-32.5 -27q-16 -18 -32 -47.5l-30 -53.5l-58 25
q10 32 34 77t52 79q30 36 73 61.5t90 25.5q56 0 96.5 -16.5t74.5 -35.5l64 -36t64 -15q40 0 64.5 9.5t38.5 26.5q16 19 26.5 41t25.5 57z" />
    <glyph glyph-name="Ograve" unicode="&#xd2;" horiz-adv-x="1437" 
d="M1480 0h-382q-127 199 -229.5 344t-222.5 299h-145v-450q0 -35 11 -61.5t47 -40.5q18 -7 63 -13t76 -7v-71h-600v71q24 2 69.5 7t63.5 13q30 13 43.5 38t13.5 64v1026q0 35 -10 62t-47 41q-25 9 -65 16.5t-68 9.5v71h655q90 0 169 -18.5t143 -59.5q62 -40 99 -104.5
t37 -155.5q0 -82 -25 -145t-74 -109q-45 -43 -108 -74.5t-139 -53.5l174.5 -234l170.5 -231q44 -60 79.5 -88.5t70.5 -46.5q26 -13 65 -20t65 -8v-71zM954 1058q0 129 -74 204.5t-209 75.5h-170v-609h131q138 0 230 88.5t92 240.5zM1031 1546l-31 -39l-209.5 102l-136.5 66
q-49 25 -70.5 48.5t-21.5 64.5q0 35 25 57.5t67 22.5q30 0 55.5 -13.5t59.5 -49.5l103.5 -105.5z" />
    <glyph glyph-name="Oacute" unicode="&#xd3;" horiz-adv-x="1437" 
d="M1480 0h-382q-127 199 -229.5 344t-222.5 299h-145v-450q0 -35 11 -61.5t47 -40.5q18 -7 63 -13t76 -7v-71h-600v71q24 2 69.5 7t63.5 13q30 13 43.5 38t13.5 64v1026q0 35 -10 62t-47 41q-25 9 -65 16.5t-68 9.5v71h655q90 0 169 -18.5t143 -59.5q62 -40 99 -104.5
t37 -155.5q0 -82 -25 -145t-74 -109q-45 -43 -108 -74.5t-139 -53.5l174.5 -234l170.5 -231q44 -60 79.5 -88.5t70.5 -46.5q26 -13 65 -20t65 -8v-71zM954 1058q0 129 -74 204.5t-209 75.5h-170v-609h131q138 0 230 88.5t92 240.5zM913 1675l-136.5 -66.5l-209.5 -101.5
l-31 39l148.5 143.5l113.5 115.5q32 34 58.5 48.5t56.5 14.5q38 0 65 -23t27 -57q0 -43 -26 -68t-66 -45z" />
    <glyph glyph-name="Ocircumflex" unicode="&#xd4;" horiz-adv-x="1437" 
d="M1480 0h-382q-127 199 -229.5 344t-222.5 299h-145v-450q0 -35 11 -61.5t47 -40.5q18 -7 63 -13t76 -7v-71h-600v71q24 2 69.5 7t63.5 13q30 13 43.5 38t13.5 64v1026q0 35 -10 62t-47 41q-25 9 -65 16.5t-68 9.5v71h655q90 0 169 -18.5t143 -59.5q62 -40 99 -104.5
t37 -155.5q0 -82 -25 -145t-74 -109q-45 -43 -108 -74.5t-139 -53.5l174.5 -234l170.5 -231q44 -60 79.5 -88.5t70.5 -46.5q26 -13 65 -20t65 -8v-71zM954 1058q0 129 -74 204.5t-209 75.5h-170v-609h131q138 0 230 88.5t92 240.5zM1087 1539l-48 -32l-279 212l-275 -212
l-48 32l234 284q18 22 35.5 33.5t57.5 11.5q41 0 56.5 -11t30.5 -30z" />
    <glyph glyph-name="Otilde" unicode="&#xd5;" horiz-adv-x="1437" 
d="M1480 0h-382q-127 199 -229.5 344t-222.5 299h-145v-450q0 -35 11 -61.5t47 -40.5q18 -7 63 -13t76 -7v-71h-600v71q24 2 69.5 7t63.5 13q30 13 43.5 38t13.5 64v1026q0 35 -10 62t-47 41q-25 9 -65 16.5t-68 9.5v71h655q90 0 169 -18.5t143 -59.5q62 -40 99 -104.5
t37 -155.5q0 -82 -25 -145t-74 -109q-45 -43 -108 -74.5t-139 -53.5l174.5 -234l170.5 -231q44 -60 79.5 -88.5t70.5 -46.5q26 -13 65 -20t65 -8v-71zM954 1058q0 129 -74 204.5t-209 75.5h-170v-609h131q138 0 230 88.5t92 240.5zM1144 1835q-10 -38 -30 -78t-55 -79
q-36 -39 -75.5 -62.5t-94.5 -23.5q-57 0 -100 16.5t-74 34.5q-35 20 -66.5 36t-69.5 16q-31 0 -46.5 -8t-32.5 -27q-16 -18 -32 -47.5l-30 -53.5l-58 25q10 32 34 77t52 79q30 36 73 61.5t90 25.5q56 0 96.5 -16.5t74.5 -35.5l64 -36t64 -15q40 0 64.5 9.5t38.5 26.5
q16 19 26.5 41t25.5 57z" />
    <glyph glyph-name="Odieresis" unicode="&#xd6;" horiz-adv-x="1437" 
d="M1480 0h-382q-127 199 -229.5 344t-222.5 299h-145v-450q0 -35 11 -61.5t47 -40.5q18 -7 63 -13t76 -7v-71h-600v71q24 2 69.5 7t63.5 13q30 13 43.5 38t13.5 64v1026q0 35 -10 62t-47 41q-25 9 -65 16.5t-68 9.5v71h655q90 0 169 -18.5t143 -59.5q62 -40 99 -104.5
t37 -155.5q0 -82 -25 -145t-74 -109q-45 -43 -108 -74.5t-139 -53.5l174.5 -234l170.5 -231q44 -60 79.5 -88.5t70.5 -46.5q26 -13 65 -20t65 -8v-71zM954 1058q0 129 -74 204.5t-209 75.5h-170v-609h131q138 0 230 88.5t92 240.5zM1105 1730q0 -51 -34.5 -87t-83.5 -36
t-83.5 36t-34.5 87t34.5 87t83.5 36t83.5 -36t34.5 -87zM655 1730q0 -51 -34.5 -87t-83.5 -36t-83.5 36t-34.5 87t34.5 87t83.5 36t83.5 -36t34.5 -87z" />
    <glyph glyph-name="multiply" unicode="&#xd7;" horiz-adv-x="1317" 
d="M1108 199l-89 -89l-361 363l-362 -364l-88 89l364 362l-364 361l89 88l361 -362l362 363l88 -88l-364 -362z" />
    <glyph glyph-name="Oslash" unicode="&#xd8;" horiz-adv-x="1524" 
d="M1444 708q0 -171 -55.5 -309.5t-148.5 -233.5q-93 -96 -216 -148t-262 -52q-128 0 -238 43t-195 117l-174 -210l-64 50l181 215q-90 99 -141 235.5t-51 292.5q0 173 54 308.5t149 234.5q94 99 219 151t260 52q122 0 232.5 -41.5t200.5 -119.5l151 183l65 -52l-158 -188
q88 -98 139.5 -230.5t51.5 -297.5zM1098 1176q-58 93 -142 141t-194 48q-119 0 -203 -53.5t-140 -149.5q-50 -86 -75 -205.5t-25 -248.5q0 -116 16.5 -216t49.5 -177zM1098 244q55 92 81 207t26 257q0 114 -16 214.5t-49 179.5l-714 -859q54 -88 138.5 -138.5t197.5 -50.5
q109 0 194 48.5t142 141.5z" />
    <glyph glyph-name="Ugrave" unicode="&#xd9;" horiz-adv-x="1365" 
d="M1407 1348q-26 -1 -63 -11.5t-61 -25.5q-34 -21 -54.5 -54t-40.5 -78l-201 -495.5l-276 -701.5h-83l-278 746l-182 485q-12 31 -32 54.5t-53 44.5q-27 17 -60 25.5t-61 10.5v71h587v-71q-75 -4 -126.5 -15t-51.5 -39q0 -11 4 -26t7 -24l120 -319.5l236 -630.5l175 437
t133 346q33 91 38.5 126t5.5 57q0 23 -20.5 38.5t-54.5 26.5q-33 10 -67 15t-69 8v71h528v-71zM1021 1546l-31 -39l-209.5 102l-136.5 66q-49 25 -70.5 48.5t-21.5 64.5q0 35 25 57.5t67 22.5q30 0 55.5 -13.5t59.5 -49.5l103.5 -105.5z" />
    <glyph glyph-name="Uacute" unicode="&#xda;" horiz-adv-x="1365" 
d="M1407 1348q-26 -1 -63 -11.5t-61 -25.5q-34 -21 -54.5 -54t-40.5 -78l-201 -495.5l-276 -701.5h-83l-278 746l-182 485q-12 31 -32 54.5t-53 44.5q-27 17 -60 25.5t-61 10.5v71h587v-71q-75 -4 -126.5 -15t-51.5 -39q0 -11 4 -26t7 -24l120 -319.5l236 -630.5l175 437
t133 346q33 91 38.5 126t5.5 57q0 23 -20.5 38.5t-54.5 26.5q-33 10 -67 15t-69 8v71h528v-71zM960 1675l-136.5 -66.5l-209.5 -101.5l-31 39l148.5 143.5l113.5 115.5q32 34 58.5 48.5t56.5 14.5q38 0 65 -23t27 -57q0 -43 -26 -68t-66 -45z" />
    <glyph glyph-name="Ucircumflex" unicode="&#xdb;" horiz-adv-x="1365" 
d="M1407 1348q-26 -1 -63 -11.5t-61 -25.5q-34 -21 -54.5 -54t-40.5 -78l-201 -495.5l-276 -701.5h-83l-278 746l-182 485q-12 31 -32 54.5t-53 44.5q-27 17 -60 25.5t-61 10.5v71h587v-71q-75 -4 -126.5 -15t-51.5 -39q0 -11 4 -26t7 -24l120 -319.5l236 -630.5l175 437
t133 346q33 91 38.5 126t5.5 57q0 23 -20.5 38.5t-54.5 26.5q-33 10 -67 15t-69 8v71h528v-71zM1135 1539l-48 -32l-279 212l-275 -212l-48 32l234 284q18 22 35.5 33.5t57.5 11.5q41 0 56.5 -11t30.5 -30z" />
    <glyph glyph-name="Udieresis" unicode="&#xdc;" horiz-adv-x="1365" 
d="M1407 1348q-26 -1 -63 -11.5t-61 -25.5q-34 -21 -54.5 -54t-40.5 -78l-201 -495.5l-276 -701.5h-83l-278 746l-182 485q-12 31 -32 54.5t-53 44.5q-27 17 -60 25.5t-61 10.5v71h587v-71q-75 -4 -126.5 -15t-51.5 -39q0 -11 4 -26t7 -24l120 -319.5l236 -630.5l175 437
t133 346q33 91 38.5 126t5.5 57q0 23 -20.5 38.5t-54.5 26.5q-33 10 -67 15t-69 8v71h528v-71zM1158 1730q0 -51 -34.5 -87t-83.5 -36t-83.5 36t-34.5 87t34.5 87t83.5 36t83.5 -36t34.5 -87zM708 1730q0 -51 -34.5 -87t-83.5 -36t-83.5 36t-34.5 87t34.5 87t83.5 36
t83.5 -36t34.5 -87z" />
    <glyph glyph-name="Yacute" unicode="&#xdd;" horiz-adv-x="1232" 
d="M1214 443l-47 -443h-1140v35l893 1305h-327q-57 0 -95.5 -2t-70.5 -8q-66 -13 -148.5 -109t-124.5 -203h-70l43 401h1063v-35l-893 -1305h337q85 0 181 12t125 41q65 62 121 152t83 159h70zM871 1675l-136.5 -66.5l-209.5 -101.5l-31 39l148.5 143.5l113.5 115.5
q32 34 58.5 48.5t56.5 14.5q38 0 65 -23t27 -57q0 -43 -26 -68t-66 -45z" />
    <glyph glyph-name="Thorn" unicode="&#xde;" horiz-adv-x="1258" 
d="M1189 757q0 -114 -44 -197t-116 -135q-72 -51 -163.5 -76.5t-195.5 -25.5h-169v-130q0 -35 11 -61.5t47 -40.5q18 -7 62.5 -13t82.5 -7v-71h-606v71q24 2 69.5 7t63.5 13q30 13 43.5 38t13.5 64v1022q0 33 -11 58t-46 40q-29 13 -67.5 23t-67.5 12v71h597v-71
q-29 -1 -71.5 -9t-62.5 -15q-34 -12 -46 -38.5t-12 -60.5v-93h252q189 0 312.5 -103t123.5 -272zM886 529q34 50 44.5 102t10.5 94q0 58 -14 118t-48 105q-37 48 -94.5 74.5t-142.5 26.5h-141v-638h109q108 0 175 34t101 84z" />
    <glyph glyph-name="germandbls" unicode="&#xdf;" horiz-adv-x="1123" 
d="M928 806q50 -52 83 -128.5t33 -179.5q0 -225 -125 -367t-309 -142q-32 0 -65 3t-56 8v81q23 -5 46 -7.5t43 -2.5q69 0 120 34t79 91q30 59 44 134.5t14 173.5q0 173 -74.5 280t-211.5 107h-20v85h36q39 0 80.5 15t74.5 46q35 34 55.5 84t20.5 119q0 113 -50 173.5
t-133 60.5q-117 0 -172.5 -107.5t-55.5 -306.5v-1060h-326v66l47 4.5t43 8.5q25 9 37 32.5t12 61.5v833q0 137 21 232.5t103 183.5q67 72 146 100t155 28q71 0 129.5 -16.5t110.5 -55.5q49 -37 78 -93t29 -139q0 -75 -27.5 -131.5t-67.5 -92.5t-86.5 -57t-85.5 -25v-9
q53 -11 113.5 -42t111.5 -83z" />
    <glyph glyph-name="agrave" unicode="&#xe0;" horiz-adv-x="990" 
d="M948 232q-62 -118 -166 -188t-239 -70q-119 0 -208.5 42t-147.5 114t-86.5 168t-28.5 203q0 96 30.5 188.5t89.5 166.5q57 71 141.5 114.5t189.5 43.5q108 0 185 -34t125 -93q46 -56 68.5 -132t22.5 -165v-66h-653q0 -97 18.5 -176t58.5 -139q39 -58 102 -91.5t150 -33.5
q89 0 153.5 41.5t124.5 149.5zM727 608q0 56 -9.5 120t-30.5 107q-23 46 -63 75t-103 29q-105 0 -174.5 -87.5t-75.5 -243.5h456zM694 1142l-38 -32l-184 143.5t-120 93.5q-38 32 -53.5 52t-15.5 61q0 29 23 53.5t59 24.5q39 0 67 -18t60 -70l80 -125.5z" />
    <glyph glyph-name="aacute" unicode="&#xe1;" horiz-adv-x="990" 
d="M948 232q-62 -118 -166 -188t-239 -70q-119 0 -208.5 42t-147.5 114t-86.5 168t-28.5 203q0 96 30.5 188.5t89.5 166.5q57 71 141.5 114.5t189.5 43.5q108 0 185 -34t125 -93q46 -56 68.5 -132t22.5 -165v-66h-653q0 -97 18.5 -176t58.5 -139q39 -58 102 -91.5t150 -33.5
q89 0 153.5 41.5t124.5 149.5zM727 608q0 56 -9.5 120t-30.5 107q-23 46 -63 75t-103 29q-105 0 -174.5 -87.5t-75.5 -243.5h456zM738 1460q0 -38 -17.5 -62t-51.5 -51l-130.5 -102l-173.5 -135l-38 32l125.5 187.5l76.5 120.5q31 51 60 69.5t67 18.5q36 0 59 -24.5
t23 -53.5z" />
    <glyph glyph-name="acircumflex" unicode="&#xe2;" horiz-adv-x="990" 
d="M948 232q-62 -118 -166 -188t-239 -70q-119 0 -208.5 42t-147.5 114t-86.5 168t-28.5 203q0 96 30.5 188.5t89.5 166.5q57 71 141.5 114.5t189.5 43.5q108 0 185 -34t125 -93q46 -56 68.5 -132t22.5 -165v-66h-653q0 -97 18.5 -176t58.5 -139q39 -58 102 -91.5t150 -33.5
q89 0 153.5 41.5t124.5 149.5zM727 608q0 56 -9.5 120t-30.5 107q-23 46 -63 75t-103 29q-105 0 -174.5 -87.5t-75.5 -243.5h456zM817 1156l-48 -32l-279 273l-275 -273l-48 32l237 347q17 25 32.5 35t57.5 10q40 0 55 -10.5t29 -30.5z" />
    <glyph glyph-name="atilde" unicode="&#xe3;" horiz-adv-x="990" 
d="M948 232q-62 -118 -166 -188t-239 -70q-119 0 -208.5 42t-147.5 114t-86.5 168t-28.5 203q0 96 30.5 188.5t89.5 166.5q57 71 141.5 114.5t189.5 43.5q108 0 185 -34t125 -93q46 -56 68.5 -132t22.5 -165v-66h-653q0 -97 18.5 -176t58.5 -139q39 -58 102 -91.5t150 -33.5
q89 0 153.5 41.5t124.5 149.5zM727 608q0 56 -9.5 120t-30.5 107q-23 46 -63 75t-103 29q-105 0 -174.5 -87.5t-75.5 -243.5h456zM888 1467q-10 -38 -30 -78t-55 -79q-36 -39 -75.5 -62.5t-94.5 -23.5q-57 0 -100 16.5t-74 34.5q-35 20 -66.5 36t-69.5 16q-31 0 -46.5 -8
t-32.5 -27q-16 -18 -32 -47.5l-30 -53.5l-58 25q10 32 34 77t52 79q30 36 73 61.5t90 25.5q56 0 96.5 -16.5t74.5 -35.5l64 -36t64 -15q40 0 64.5 9.5t38.5 26.5q16 19 26.5 41t25.5 57z" />
    <glyph glyph-name="adieresis" unicode="&#xe4;" horiz-adv-x="990" 
d="M948 232q-62 -118 -166 -188t-239 -70q-119 0 -208.5 42t-147.5 114t-86.5 168t-28.5 203q0 96 30.5 188.5t89.5 166.5q57 71 141.5 114.5t189.5 43.5q108 0 185 -34t125 -93q46 -56 68.5 -132t22.5 -165v-66h-653q0 -97 18.5 -176t58.5 -139q39 -58 102 -91.5t150 -33.5
q89 0 153.5 41.5t124.5 149.5zM727 608q0 56 -9.5 120t-30.5 107q-23 46 -63 75t-103 29q-105 0 -174.5 -87.5t-75.5 -243.5h456zM826 1364q0 -51 -34.5 -87t-83.5 -36t-83.5 36t-34.5 87t34.5 87t83.5 36t83.5 -36t34.5 -87zM396 1364q0 -51 -34.5 -87t-83.5 -36t-83.5 36
t-34.5 87t34.5 87t83.5 36t83.5 -36t34.5 -87z" />
    <glyph glyph-name="aring" unicode="&#xe5;" horiz-adv-x="990" 
d="M948 232q-62 -118 -166 -188t-239 -70q-119 0 -208.5 42t-147.5 114t-86.5 168t-28.5 203q0 96 30.5 188.5t89.5 166.5q57 71 141.5 114.5t189.5 43.5q108 0 185 -34t125 -93q46 -56 68.5 -132t22.5 -165v-66h-653q0 -97 18.5 -176t58.5 -139q39 -58 102 -91.5t150 -33.5
q89 0 153.5 41.5t124.5 149.5zM727 608q0 56 -9.5 120t-30.5 107q-23 46 -63 75t-103 29q-105 0 -174.5 -87.5t-75.5 -243.5h456zM751 1337q0 -98 -71 -160.5t-187 -62.5q-117 0 -187.5 61t-70.5 162q0 98 75 160t183 62q112 0 185 -60.5t73 -161.5zM625 1337
q0 68 -33.5 113t-98.5 45q-63 0 -97.5 -43t-34.5 -115q0 -69 34 -114t98 -45t98 44t34 115z" />
    <glyph glyph-name="ae" unicode="&#xe6;" horiz-adv-x="1509" 
d="M1468 233q-58 -123 -159.5 -191t-224.5 -68q-127 0 -215 45.5t-157 142.5h-6q-77 -100 -163.5 -144t-203.5 -44q-113 0 -185.5 66.5t-72.5 179.5q0 61 17 107.5t46 81.5q28 33 64.5 55t74.5 38q138 55 214 77l145 43v107q0 14 -5.5 49t-23.5 72q-18 36 -52.5 63.5
t-92.5 27.5q-50 0 -89.5 -15.5t-55.5 -32.5q0 -20 9.5 -59t9.5 -72q0 -35 -31.5 -64t-87.5 -29q-50 0 -73.5 35.5t-23.5 79.5q0 48 32 88.5t83 73.5q46 30 111.5 49t119.5 19q100 0 181 -25t130 -96q51 53 125.5 87t154.5 34q104 0 176 -33.5t116 -88.5q46 -56 67 -128.5
t21 -156.5v-58h-618q0 -228 74.5 -346.5t231.5 -118.5q104 0 164 51.5t103 140.5zM1246 631q0 40 -8 102t-25 100q-21 46 -59.5 76t-102.5 30q-100 0 -162.5 -90.5t-63.5 -217.5h421zM644 194v343q-80 -16 -141 -37t-115 -58q-51 -35 -79 -83t-28 -111q0 -83 39.5 -122.5
t104.5 -39.5q76 0 130 32.5t89 75.5z" />
    <glyph glyph-name="ccedilla" unicode="&#xe7;" horiz-adv-x="930" 
d="M459 -22q-182 23 -284.5 162t-102.5 357q0 104 32.5 194.5t94.5 164.5q59 71 148 114.5t194 43.5q145 0 236 -69.5t91 -189.5q0 -50 -24 -88.5t-79 -38.5q-59 0 -91.5 30t-32.5 67q0 45 12 92.5t14 69.5q-18 31 -53.5 41.5t-76.5 10.5q-48 0 -91.5 -20.5t-84.5 -75.5
q-37 -50 -60 -135t-23 -203q0 -186 82.5 -303.5t216.5 -117.5q97 0 162.5 47t121.5 141l64 -42q-64 -115 -169.5 -184t-217.5 -72v-73q45 0 81 -5.5t73 -24.5q34 -16 55 -45.5t21 -73.5q0 -58 -32 -98t-89 -62q-55 -20 -122 -28t-156 -8v72q41 0 89 1t82 9q40 9 62 27.5
t22 52.5q0 24 -15 39.5t-40 23.5q-20 7 -53.5 9.5t-56.5 2.5v185z" />
    <glyph glyph-name="egrave" unicode="&#xe8;" horiz-adv-x="1147" 
d="M1073 494q0 -222 -140 -373t-325 -151q-81 0 -159.5 25t-147.5 67l-74 -115l-62 14q5 74 7 178t2 201v976q0 34 -15.5 68t-39.5 49q-19 13 -63.5 19.5t-71.5 8.5v64l362 23l14 -15v-650l7 -2q62 66 135.5 99t144.5 33q182 0 304 -144t122 -375zM864 487q0 74 -16 151
t-50 134q-34 58 -89 94t-132 36q-70 0 -122.5 -27.5t-94.5 -74.5v-574q6 -24 23.5 -56t47.5 -61q30 -28 68 -45.5t93 -17.5q122 0 197 118t75 323zM695 1142l-38 -32l-184 143.5t-120 93.5q-38 32 -53.5 52t-15.5 61q0 29 23 53.5t59 24.5q39 0 67 -18t60 -70l80 -125.5z
" />
    <glyph glyph-name="eacute" unicode="&#xe9;" horiz-adv-x="1147" 
d="M1073 494q0 -222 -140 -373t-325 -151q-81 0 -159.5 25t-147.5 67l-74 -115l-62 14q5 74 7 178t2 201v976q0 34 -15.5 68t-39.5 49q-19 13 -63.5 19.5t-71.5 8.5v64l362 23l14 -15v-650l7 -2q62 66 135.5 99t144.5 33q182 0 304 -144t122 -375zM864 487q0 74 -16 151
t-50 134q-34 58 -89 94t-132 36q-70 0 -122.5 -27.5t-94.5 -74.5v-574q6 -24 23.5 -56t47.5 -61q30 -28 68 -45.5t93 -17.5q122 0 197 118t75 323zM763 1460q0 -38 -17.5 -62t-51.5 -51l-130.5 -102l-173.5 -135l-38 32l125.5 187.5l76.5 120.5q31 51 60 69.5t67 18.5
q36 0 59 -24.5t23 -53.5z" />
    <glyph glyph-name="ecircumflex" unicode="&#xea;" horiz-adv-x="1147" 
d="M1073 494q0 -222 -140 -373t-325 -151q-81 0 -159.5 25t-147.5 67l-74 -115l-62 14q5 74 7 178t2 201v976q0 34 -15.5 68t-39.5 49q-19 13 -63.5 19.5t-71.5 8.5v64l362 23l14 -15v-650l7 -2q62 66 135.5 99t144.5 33q182 0 304 -144t122 -375zM864 487q0 74 -16 151
t-50 134q-34 58 -89 94t-132 36q-70 0 -122.5 -27.5t-94.5 -74.5v-574q6 -24 23.5 -56t47.5 -61q30 -28 68 -45.5t93 -17.5q122 0 197 118t75 323zM847 1150l-48 -32l-279 273l-275 -273l-48 32l237 347q17 25 32.5 35t57.5 10q40 0 55 -10.5t29 -30.5z" />
    <glyph glyph-name="edieresis" unicode="&#xeb;" horiz-adv-x="1147" 
d="M1073 494q0 -222 -140 -373t-325 -151q-81 0 -159.5 25t-147.5 67l-74 -115l-62 14q5 74 7 178t2 201v976q0 34 -15.5 68t-39.5 49q-19 13 -63.5 19.5t-71.5 8.5v64l362 23l14 -15v-650l7 -2q62 66 135.5 99t144.5 33q182 0 304 -144t122 -375zM864 487q0 74 -16 151
t-50 134q-34 58 -89 94t-132 36q-70 0 -122.5 -27.5t-94.5 -74.5v-574q6 -24 23.5 -56t47.5 -61q30 -28 68 -45.5t93 -17.5q122 0 197 118t75 323zM862 1364q0 -51 -34.5 -87t-83.5 -36t-83.5 36t-34.5 87t34.5 87t83.5 36t83.5 -36t34.5 -87zM432 1364q0 -51 -34.5 -87
t-83.5 -36t-83.5 36t-34.5 87t34.5 87t83.5 36t83.5 -36t34.5 -87z" />
    <glyph glyph-name="igrave" unicode="&#xec;" horiz-adv-x="600" 
d="M551 0h-477v66l47.5 4t42.5 8q28 9 41.5 31.5t13.5 58.5v609q0 32 -14.5 58.5t-40.5 44.5q-19 12 -55 20.5t-66 10.5v65l348 22l14 -14v-804q0 -35 13.5 -58t42.5 -34q22 -9 43 -14.5t47 -7.5v-66zM452 1142l-38 -32l-184 143.5t-120 93.5q-38 32 -53.5 52t-15.5 61
q0 29 23 53.5t59 24.5q39 0 67 -18t60 -70l80 -125.5z" />
    <glyph glyph-name="iacute" unicode="&#xed;" horiz-adv-x="600" 
d="M551 0h-477v66l47.5 4t42.5 8q28 9 41.5 31.5t13.5 58.5v609q0 32 -14.5 58.5t-40.5 44.5q-19 12 -55 20.5t-66 10.5v65l348 22l14 -14v-804q0 -35 13.5 -58t42.5 -34q22 -9 43 -14.5t47 -7.5v-66zM511 1460q0 -38 -17.5 -62t-51.5 -51l-130.5 -102l-173.5 -135l-38 32
l125.5 187.5l76.5 120.5q31 51 60 69.5t67 18.5q36 0 59 -24.5t23 -53.5z" />
    <glyph glyph-name="icircumflex" unicode="&#xee;" horiz-adv-x="600" 
d="M551 0h-477v66l47.5 4t42.5 8q28 9 41.5 31.5t13.5 58.5v609q0 32 -14.5 58.5t-40.5 44.5q-19 12 -55 20.5t-66 10.5v65l348 22l14 -14v-804q0 -35 13.5 -58t42.5 -34q22 -9 43 -14.5t47 -7.5v-66zM560 1150l-48 -29l-244 270l-240 -270l-48 29l202 343q11 20 30 34.5
t60 14.5q44 0 60.5 -16t23.5 -29z" />
    <glyph glyph-name="idieresis" unicode="&#xef;" horiz-adv-x="600" 
d="M551 0h-477v66l47.5 4t42.5 8q28 9 41.5 31.5t13.5 58.5v609q0 32 -14.5 58.5t-40.5 44.5q-19 12 -55 20.5t-66 10.5v65l348 22l14 -14v-804q0 -35 13.5 -58t42.5 -34q22 -9 43 -14.5t47 -7.5v-66zM566 1364q0 -51 -33 -87t-82 -36t-82 36t-33 87t33 87t82 36t82 -36
t33 -87zM216 1364q0 -51 -33 -87t-82 -36t-82 36t-33 87t33 87t82 36t82 -36t33 -87z" />
    <glyph glyph-name="eth" unicode="&#xf0;" horiz-adv-x="1089" 
d="M1014 611q0 -294 -128 -468t-354 -174q-89 0 -171.5 33.5t-148.5 100.5q-65 66 -103.5 163t-38.5 220q0 221 127 360t327 139q94 0 165.5 -42.5t105.5 -96.5l8 2q-15 128 -64.5 238t-109.5 197l-231 -138l-50 78l228 131q-31 40 -75.5 77.5t-90.5 68.5l50 56
q46 -23 110 -67t103 -81l203 123l51 -78l-190 -110q137 -146 207 -323t70 -409zM746 190q30 63 44.5 146t14.5 176q0 177 -70 285.5t-190 108.5q-77 0 -128.5 -35.5t-83.5 -93.5q-28 -51 -42 -126t-14 -152q0 -228 70 -341t196 -113q71 0 122 40t81 105z" />
    <glyph glyph-name="ntilde" unicode="&#xf1;" horiz-adv-x="1146" 
d="M1154 -444h-533v67q31 2 61 5t54 10q31 10 43 35t12 59v364l-6 2q-16 -18 -45.5 -41.5t-61.5 -38.5q-40 -21 -77 -32.5t-93 -11.5q-90 0 -169.5 37.5t-138.5 106.5q-59 68 -93.5 167.5t-34.5 218.5q0 113 40 205.5t106 161.5q63 65 151.5 103.5t175.5 38.5
q65 0 115.5 -12.5t86.5 -29.5q31 -13 62 -33.5t44 -27.5l85 130l57 -8q-4 -74 -10.5 -182t-6.5 -189v-912q0 -35 13 -60.5t42 -38.5q24 -10 61 -17.5t60 -9.5v-67zM791 183v589q-8 25 -27 55.5t-45 53.5q-28 24 -68.5 40t-93.5 16q-117 0 -196.5 -121t-79.5 -333
q0 -84 15.5 -152t53.5 -127q36 -56 91 -89.5t139 -33.5q72 0 123 30.5t88 71.5zM986 1467q-10 -38 -30 -78t-55 -79q-36 -39 -75.5 -62.5t-94.5 -23.5q-57 0 -100 16.5t-74 34.5q-35 20 -66.5 36t-69.5 16q-31 0 -46.5 -8t-32.5 -27q-16 -18 -32 -47.5l-30 -53.5l-58 25
q10 32 34 77t52 79q30 36 73 61.5t90 25.5q56 0 96.5 -16.5t74.5 -35.5l64 -36t64 -15q40 0 64.5 9.5t38.5 26.5q16 19 26.5 41t25.5 57z" />
    <glyph glyph-name="ograve" unicode="&#xf2;" horiz-adv-x="839" 
d="M827 859q0 -51 -25 -90.5t-77 -39.5q-56 0 -85.5 29t-29.5 64q0 22 3.5 40t6.5 36q-47 0 -110 -38t-107 -108v-574q0 -35 13.5 -57t42.5 -33q25 -10 64.5 -15t68.5 -7v-66h-520v66l47.5 4t42.5 8q28 9 41.5 31.5t13.5 58.5v609q0 31 -14.5 61t-40.5 48q-19 12 -45 17.5
t-56 7.5v65l328 22l14 -14v-139h5q62 81 138 123t139 42t102.5 -41t39.5 -110zM786 1142l-38 -32l-184 143.5t-120 93.5q-38 32 -53.5 52t-15.5 61q0 29 23 53.5t59 24.5q39 0 67 -18t60 -70l80 -125.5z" />
    <glyph glyph-name="oacute" unicode="&#xf3;" horiz-adv-x="839" 
d="M827 859q0 -51 -25 -90.5t-77 -39.5q-56 0 -85.5 29t-29.5 64q0 22 3.5 40t6.5 36q-47 0 -110 -38t-107 -108v-574q0 -35 13.5 -57t42.5 -33q25 -10 64.5 -15t68.5 -7v-66h-520v66l47.5 4t42.5 8q28 9 41.5 31.5t13.5 58.5v609q0 31 -14.5 61t-40.5 48q-19 12 -45 17.5
t-56 7.5v65l328 22l14 -14v-139h5q62 81 138 123t139 42t102.5 -41t39.5 -110zM743 1460q0 -38 -17.5 -62t-51.5 -51l-130.5 -102l-173.5 -135l-38 32l125.5 187.5l76.5 120.5q31 51 60 69.5t67 18.5q36 0 59 -24.5t23 -53.5z" />
    <glyph glyph-name="ocircumflex" unicode="&#xf4;" horiz-adv-x="839" 
d="M827 859q0 -51 -25 -90.5t-77 -39.5q-56 0 -85.5 29t-29.5 64q0 22 3.5 40t6.5 36q-47 0 -110 -38t-107 -108v-574q0 -35 13.5 -57t42.5 -33q25 -10 64.5 -15t68.5 -7v-66h-520v66l47.5 4t42.5 8q28 9 41.5 31.5t13.5 58.5v609q0 31 -14.5 61t-40.5 48q-19 12 -45 17.5
t-56 7.5v65l328 22l14 -14v-139h5q62 81 138 123t139 42t102.5 -41t39.5 -110zM884 1150l-48 -32l-279 273l-275 -273l-48 32l237 347q17 25 32.5 35t57.5 10q40 0 55 -10.5t29 -30.5z" />
    <glyph glyph-name="otilde" unicode="&#xf5;" horiz-adv-x="839" 
d="M827 859q0 -51 -25 -90.5t-77 -39.5q-56 0 -85.5 29t-29.5 64q0 22 3.5 40t6.5 36q-47 0 -110 -38t-107 -108v-574q0 -35 13.5 -57t42.5 -33q25 -10 64.5 -15t68.5 -7v-66h-520v66l47.5 4t42.5 8q28 9 41.5 31.5t13.5 58.5v609q0 31 -14.5 61t-40.5 48q-19 12 -45 17.5
t-56 7.5v65l328 22l14 -14v-139h5q62 81 138 123t139 42t102.5 -41t39.5 -110zM941 1467q-10 -38 -30 -78t-55 -79q-36 -39 -75.5 -62.5t-94.5 -23.5q-57 0 -100 16.5t-74 34.5q-35 20 -66.5 36t-69.5 16q-31 0 -46.5 -8t-32.5 -27q-16 -18 -32 -47.5l-30 -53.5l-58 25
q10 32 34 77t52 79q30 36 73 61.5t90 25.5q56 0 96.5 -16.5t74.5 -35.5l64 -36t64 -15q40 0 64.5 9.5t38.5 26.5q16 19 26.5 41t25.5 57z" />
    <glyph glyph-name="odieresis" unicode="&#xf6;" horiz-adv-x="839" 
d="M827 859q0 -51 -25 -90.5t-77 -39.5q-56 0 -85.5 29t-29.5 64q0 22 3.5 40t6.5 36q-47 0 -110 -38t-107 -108v-574q0 -35 13.5 -57t42.5 -33q25 -10 64.5 -15t68.5 -7v-66h-520v66l47.5 4t42.5 8q28 9 41.5 31.5t13.5 58.5v609q0 31 -14.5 61t-40.5 48q-19 12 -45 17.5
t-56 7.5v65l328 22l14 -14v-139h5q62 81 138 123t139 42t102.5 -41t39.5 -110zM892 1364q0 -51 -34.5 -87t-83.5 -36t-83.5 36t-34.5 87t34.5 87t83.5 36t83.5 -36t34.5 -87zM462 1364q0 -51 -34.5 -87t-83.5 -36t-83.5 36t-34.5 87t34.5 87t83.5 36t83.5 -36t34.5 -87z" />
    <glyph glyph-name="divide" unicode="&#xf7;" horiz-adv-x="1317" 
d="M788 966q0 -53 -38 -91t-91 -38t-91 38t-38 91t38 90t91 37t91 -37t38 -90zM1173 497h-1029v125h1029v-125zM788 153q0 -53 -38 -90t-91 -37t-91 37t-38 90t38 91t91 38t91 -38t38 -91z" />
    <glyph glyph-name="oslash" unicode="&#xf8;" horiz-adv-x="1104" 
d="M1033 503q0 -104 -33 -204.5t-94 -170.5q-69 -80 -160 -119t-204 -39q-79 0 -152 27t-135 78l-83 -102t-43 -54l-58 43l133 163q-61 68 -97.5 158.5t-36.5 205.5q0 231 134.5 378t352.5 147q88 0 159 -25t130 -72l111 141l58 -44l-118 -145q64 -69 100 -162.5t36 -203.5z
M763 815q-33 58 -81.5 90.5t-126.5 32.5q-81 0 -135.5 -39.5t-87.5 -102.5q-32 -61 -45.5 -139t-13.5 -151q0 -69 8.5 -136t25.5 -122zM763 180q35 67 51 144t16 177q0 63 -8 128t-26 119l-456 -569q34 -62 85 -97.5t130 -35.5q70 0 122.5 36.5t85.5 97.5z" />
    <glyph glyph-name="ugrave" unicode="&#xf9;" horiz-adv-x="1017" 
d="M1046 925q-45 -8 -85.5 -32.5t-69.5 -86.5l-122 -279.5l-131 -305.5q-20 -46 -42.5 -109l-41.5 -121h-78l-175 428.5l-166 396.5q-20 46 -64.5 71.5t-89.5 32.5v66h456v-70q-30 -1 -75 -12.5t-45 -31.5q0 -3 5 -15.5t10 -28.5l116 -285l122 -295l90.5 214l117.5 286
l19 50.5t9 47.5q0 17 -16.5 30.5t-39.5 23.5t-45 15t-36 7v64h377v-61zM769 1142l-38 -32l-184 143.5t-120 93.5q-38 32 -53.5 52t-15.5 61q0 29 23 53.5t59 24.5q39 0 67 -18t60 -70l80 -125.5z" />
    <glyph glyph-name="uacute" unicode="&#xfa;" horiz-adv-x="1017" 
d="M1046 925q-45 -8 -85.5 -32.5t-69.5 -86.5l-122 -279.5l-131 -305.5q-20 -46 -42.5 -109l-41.5 -121h-78l-175 428.5l-166 396.5q-20 46 -64.5 71.5t-89.5 32.5v66h456v-70q-30 -1 -75 -12.5t-45 -31.5q0 -3 5 -15.5t10 -28.5l116 -285l122 -295l90.5 214l117.5 286
l19 50.5t9 47.5q0 17 -16.5 30.5t-39.5 23.5t-45 15t-36 7v64h377v-61zM808 1460q0 -38 -17.5 -62t-51.5 -51l-130.5 -102l-173.5 -135l-38 32l125.5 187.5l76.5 120.5q31 51 60 69.5t67 18.5q36 0 59 -24.5t23 -53.5z" />
    <glyph glyph-name="ucircumflex" unicode="&#xfb;" horiz-adv-x="1017" 
d="M1046 925q-45 -8 -85.5 -32.5t-69.5 -86.5l-122 -279.5l-131 -305.5q-20 -46 -42.5 -109l-41.5 -121h-78l-175 428.5l-166 396.5q-20 46 -64.5 71.5t-89.5 32.5v66h456v-70q-30 -1 -75 -12.5t-45 -31.5q0 -3 5 -15.5t10 -28.5l116 -285l122 -295l90.5 214l117.5 286
l19 50.5t9 47.5q0 17 -16.5 30.5t-39.5 23.5t-45 15t-36 7v64h377v-61zM898 1150l-48 -32l-279 273l-275 -273l-48 32l237 347q17 25 32.5 35t57.5 10q40 0 55 -10.5t29 -30.5z" />
    <glyph glyph-name="udieresis" unicode="&#xfc;" horiz-adv-x="1017" 
d="M1046 925q-45 -8 -85.5 -32.5t-69.5 -86.5l-122 -279.5l-131 -305.5q-20 -46 -42.5 -109l-41.5 -121h-78l-175 428.5l-166 396.5q-20 46 -64.5 71.5t-89.5 32.5v66h456v-70q-30 -1 -75 -12.5t-45 -31.5q0 -3 5 -15.5t10 -28.5l116 -285l122 -295l90.5 214l117.5 286
l19 50.5t9 47.5q0 17 -16.5 30.5t-39.5 23.5t-45 15t-36 7v64h377v-61zM906 1364q0 -51 -34.5 -87t-83.5 -36t-83.5 36t-34.5 87t34.5 87t83.5 36t83.5 -36t34.5 -87zM476 1364q0 -51 -34.5 -87t-83.5 -36t-83.5 36t-34.5 87t34.5 87t83.5 36t83.5 -36t34.5 -87z" />
    <glyph glyph-name="yacute" unicode="&#xfd;" horiz-adv-x="909" 
d="M853 0h-798v53l558 852h-138q-87 0 -136 -3t-90 -20q-28 -11 -52.5 -63t-42.5 -136h-61v303h754v-41l-567 -864q36 -1 79 -1.5t93 -0.5q40 0 83.5 1t111.5 5q40 2 60.5 27t31.5 57q11 29 26.5 80t27.5 99h60v-348zM759 1460q0 -38 -17.5 -62t-51.5 -51l-130.5 -102
l-173.5 -135l-38 32l125.5 187.5l76.5 120.5q31 51 60 69.5t67 18.5q36 0 59 -24.5t23 -53.5z" />
    <glyph glyph-name="thorn" unicode="&#xfe;" horiz-adv-x="1145" 
d="M948 869q59 -70 91.5 -162.5t32.5 -211.5q0 -117 -38.5 -214t-103.5 -164q-67 -69 -149 -106t-174 -37q-89 0 -146 20t-93 47h-8v-296q0 -36 14 -60t43 -35q23 -9 68 -17.5t74 -9.5v-67h-551v67q31 2 60 4.5t52 10.5q30 10 42 35t12 59v1584q-3 32 -17 67t-39 52
q-18 12 -63.5 18t-73.5 8v64l365 23l14 -15v-656l6 -4q52 60 129 100t153 40q92 0 168.5 -39.5t131.5 -104.5zM863 487q0 74 -16 151t-50 134q-34 58 -89 94t-132 36q-74 0 -126 -32.5t-90 -77.5v-583q9 -27 29.5 -56t45.5 -50q31 -25 67 -40.5t88 -15.5q56 0 108 29.5
t87 83.5q40 62 59 144t19 183z" />
    <glyph glyph-name="ydieresis" unicode="&#xff;" horiz-adv-x="909" 
d="M853 0h-798v53l558 852h-138q-87 0 -136 -3t-90 -20q-28 -11 -52.5 -63t-42.5 -136h-61v303h754v-41l-567 -864q36 -1 79 -1.5t93 -0.5q40 0 83.5 1t111.5 5q40 2 60.5 27t31.5 57q11 29 26.5 80t27.5 99h60v-348zM876 1364q0 -51 -34.5 -87t-83.5 -36t-83.5 36t-34.5 87
t34.5 87t83.5 36t83.5 -36t34.5 -87zM446 1364q0 -51 -34.5 -87t-83.5 -36t-83.5 36t-34.5 87t34.5 87t83.5 36t83.5 -36t34.5 -87z" />
    <glyph glyph-name="Amacron" unicode="&#x100;" horiz-adv-x="1338" 
d="M1291 418l-27 -418h-1178v71q30 2 80 8.5t65 13.5q32 15 44.5 39t12.5 61v1020q0 33 -11 58.5t-46 41.5q-27 13 -72.5 23t-72.5 12v71h1098v-342h-75q-20 76 -86.5 161.5t-126.5 93.5q-31 4 -74 6t-98 2h-223v-564h160q77 0 112.5 14.5t62.5 48.5q22 29 37.5 77.5
t20.5 91.5h75v-555h-75q-4 48 -21.5 101.5t-36.5 77.5q-31 39 -70.5 51t-104.5 12h-160v-426q0 -64 9 -101t35 -56t71 -24.5t128 -5.5h87q54 0 91 4q38 4 78.5 14.5t57.5 28.5q46 48 96.5 145.5t64.5 143.5h72zM1043 1645h-686v128h686v-128z" />
    <glyph glyph-name="amacron" unicode="&#x101;" horiz-adv-x="990" 
d="M948 232q-62 -118 -166 -188t-239 -70q-119 0 -208.5 42t-147.5 114t-86.5 168t-28.5 203q0 96 30.5 188.5t89.5 166.5q57 71 141.5 114.5t189.5 43.5q108 0 185 -34t125 -93q46 -56 68.5 -132t22.5 -165v-66h-653q0 -97 18.5 -176t58.5 -139q39 -58 102 -91.5t150 -33.5
q89 0 153.5 41.5t124.5 149.5zM727 608q0 56 -9.5 120t-30.5 107q-23 46 -63 75t-103 29q-105 0 -174.5 -87.5t-75.5 -243.5h456zM846 1291h-686v128h686v-128z" />
    <glyph glyph-name="Abreve" unicode="&#x102;" horiz-adv-x="1338" 
d="M1291 418l-27 -418h-1178v71q30 2 80 8.5t65 13.5q32 15 44.5 39t12.5 61v1020q0 33 -11 58.5t-46 41.5q-27 13 -72.5 23t-72.5 12v71h1098v-342h-75q-20 76 -86.5 161.5t-126.5 93.5q-31 4 -74 6t-98 2h-223v-564h160q77 0 112.5 14.5t62.5 48.5q22 29 37.5 77.5
t20.5 91.5h75v-555h-75q-4 48 -21.5 101.5t-36.5 77.5q-31 39 -70.5 51t-104.5 12h-160v-426q0 -64 9 -101t35 -56t71 -24.5t128 -5.5h87q54 0 91 4q38 4 78.5 14.5t57.5 28.5q46 48 96.5 145.5t64.5 143.5h72zM1016 1851q-27 -161 -105 -241t-213 -80q-132 0 -212.5 81.5
t-105.5 239.5l55 16q29 -92 89 -140.5t174 -48.5t174 48.5t89 140.5z" />
    <glyph glyph-name="abreve" unicode="&#x103;" horiz-adv-x="990" 
d="M948 232q-62 -118 -166 -188t-239 -70q-119 0 -208.5 42t-147.5 114t-86.5 168t-28.5 203q0 96 30.5 188.5t89.5 166.5q57 71 141.5 114.5t189.5 43.5q108 0 185 -34t125 -93q46 -56 68.5 -132t22.5 -165v-66h-653q0 -97 18.5 -176t58.5 -139q39 -58 102 -91.5t150 -33.5
q89 0 153.5 41.5t124.5 149.5zM727 608q0 56 -9.5 120t-30.5 107q-23 46 -63 75t-103 29q-105 0 -174.5 -87.5t-75.5 -243.5h456zM807 1495q-28 -189 -105.5 -278.5t-207.5 -89.5q-132 0 -210 94.5t-103 273.5l55 12q14 -47 34 -90t47 -73q31 -32 70.5 -49.5t106.5 -17.5
q61 0 103.5 17t71.5 48t48.5 73t34.5 92z" />
    <glyph glyph-name="Aogonek" unicode="&#x104;" horiz-adv-x="1374" 
d="M1114 0h-284v71q78 5 129.5 20t51.5 37q0 9 -2 22t-6 23l-118 318h-497q-28 -70 -45.5 -122l-31.5 -96q-13 -43 -18 -70t-5 -44q0 -40 63 -62t142 -26v-71h-534v71q26 2 65 11.5t64 25.5q40 27 62 56.5t43 81.5l236 600l230 593h80l473 -1224q15 -39 34 -63t53 -47
q23 -14 60 -23.5t62 -10.5v-71h-230q-46 -44 -69.5 -96t-23.5 -121q0 -36 9.5 -63.5t35.5 -48.5q26 -22 70.5 -33t108.5 -10v-72h-115q-128 0 -197.5 52.5t-69.5 141.5q0 62 43 125.5t131 124.5zM849 580l-215 550l-211 -550h426z" />
    <glyph glyph-name="aogonek" unicode="&#x105;" horiz-adv-x="1032" 
d="M548 -250q0 64 45 128.5t139 128.5q-31 20 -48 47t-25 69h-6q-65 -72 -139.5 -110t-179.5 -38q-111 0 -182.5 68t-71.5 178q0 57 16 102t48 81q25 30 66 53.5t77 37.5q45 17 182.5 63t185.5 72v99q0 13 -5.5 50t-23.5 70q-20 37 -56.5 64.5t-103.5 27.5
q-46 0 -85.5 -15.5t-55.5 -32.5q0 -20 9.5 -59t9.5 -72q0 -35 -31.5 -64t-87.5 -29q-50 0 -73.5 35.5t-23.5 79.5q0 46 32.5 88t84.5 75q45 28 109 47.5t125 19.5q84 0 146.5 -11.5t113.5 -49.5q51 -37 77.5 -100.5t26.5 -163.5q0 -143 -3 -253.5t-3 -241.5q0 -39 13.5 -62
t41.5 -39q15 -9 47.5 -10t66.5 -1v-64q-47 -17 -82.5 -27.5t-80.5 -10.5q-15 0 -29.5 1.5t-26.5 4.5q-39 -42 -60 -89t-21 -114q0 -36 9.5 -63.5t35.5 -48.5q26 -22 70.5 -33t108.5 -10v-72h-115q-128 0 -197.5 52.5t-69.5 141.5zM657 546q-85 -25 -149 -49t-119 -60
q-50 -34 -79 -80.5t-29 -110.5q0 -83 43.5 -122t110.5 -39q71 0 125 34.5t91 81.5z" />
    <glyph glyph-name="Cacute" unicode="&#x106;" horiz-adv-x="1485" 
d="M1471 567q-24 -3 -64.5 -9.5t-65.5 -18.5q-30 -15 -42.5 -42.5t-12.5 -64.5v-110q0 -120 1.5 -162t3.5 -69q-133 -60 -265 -92t-259 -32q-136 0 -262 51t-220 145q-95 95 -151 231t-56 304q0 162 53.5 300.5t151.5 240.5q95 100 226.5 155.5t281.5 55.5q120 0 209 -29
t157 -70l41 68h80l9 -496h-82q-21 82 -52 161.5t-80 142.5t-119.5 100.5t-168.5 37.5q-107 0 -191 -43.5t-146 -129.5q-61 -83 -94 -207t-33 -277q0 -135 32.5 -254.5t94.5 -206.5q62 -89 155 -140t211 -51q88 0 160.5 27t102.5 57q8 52 8.5 105t0.5 90v78q0 42 -11.5 74.5
t-47.5 47.5q-33 15 -89.5 22.5t-88.5 9.5v73h622v-73zM879 1675l-136.5 -66.5l-209.5 -101.5l-31 39l148.5 143.5l113.5 115.5q32 34 58.5 48.5t56.5 14.5q38 0 65 -23t27 -57q0 -43 -26 -68t-66 -45z" />
    <glyph glyph-name="cacute" unicode="&#x107;" horiz-adv-x="1043" 
d="M917 102q40 -38 63 -86t23 -119t-31 -133.5t-94 -108.5q-67 -47 -160 -73t-230 -26q-224 0 -335 65.5t-111 191.5q0 102 80 161t204 64v14q-30 9 -62 22.5t-55 31.5q-26 21 -42 49.5t-16 70.5q0 53 37.5 97.5t113.5 76.5v15q-96 45 -149 115.5t-53 163.5q0 140 104.5 230
t267.5 90q45 0 89.5 -9t90.5 -23h344v-96h-232v-6q37 -43 55 -95t18 -102q0 -130 -105.5 -220t-245.5 -90h-121q-23 -8 -48 -29t-25 -57q0 -37 21 -56.5t51 -26.5q29 -8 67.5 -10t79.5 -3q44 -1 120.5 -6t108.5 -6q46 -2 92.5 -22t84.5 -55zM647 687q0 117 -47.5 186.5
t-133.5 69.5q-47 0 -80.5 -19.5t-54.5 -55.5q-20 -33 -28.5 -79.5t-8.5 -95.5q0 -111 48.5 -181t125.5 -70q86 0 132.5 69.5t46.5 175.5zM839 -140q0 56 -26 92t-79 49q-28 4 -115 9t-202 5q-108 -21 -153.5 -70.5t-45.5 -127.5q0 -35 15 -67t52 -59q35 -26 94 -42.5
t144 -16.5q147 0 231.5 56.5t84.5 171.5zM721 1460q0 -38 -17.5 -62t-51.5 -51l-130.5 -102l-173.5 -135l-38 32l125.5 187.5l76.5 120.5q31 51 60 69.5t67 18.5q36 0 59 -24.5t23 -53.5z" />
    <glyph glyph-name="Ccircumflex" unicode="&#x108;" horiz-adv-x="1485" 
d="M1471 567q-24 -3 -64.5 -9.5t-65.5 -18.5q-30 -15 -42.5 -42.5t-12.5 -64.5v-110q0 -120 1.5 -162t3.5 -69q-133 -60 -265 -92t-259 -32q-136 0 -262 51t-220 145q-95 95 -151 231t-56 304q0 162 53.5 300.5t151.5 240.5q95 100 226.5 155.5t281.5 55.5q120 0 209 -29
t157 -70l41 68h80l9 -496h-82q-21 82 -52 161.5t-80 142.5t-119.5 100.5t-168.5 37.5q-107 0 -191 -43.5t-146 -129.5q-61 -83 -94 -207t-33 -277q0 -135 32.5 -254.5t94.5 -206.5q62 -89 155 -140t211 -51q88 0 160.5 27t102.5 57q8 52 8.5 105t0.5 90v78q0 42 -11.5 74.5
t-47.5 47.5q-33 15 -89.5 22.5t-88.5 9.5v73h622v-73zM1062 1539l-48 -32l-279 212l-275 -212l-48 32l234 284q18 22 35.5 33.5t57.5 11.5q41 0 56.5 -11t30.5 -30z" />
    <glyph glyph-name="ccircumflex" unicode="&#x109;" horiz-adv-x="1043" 
d="M917 102q40 -38 63 -86t23 -119t-31 -133.5t-94 -108.5q-67 -47 -160 -73t-230 -26q-224 0 -335 65.5t-111 191.5q0 102 80 161t204 64v14q-30 9 -62 22.5t-55 31.5q-26 21 -42 49.5t-16 70.5q0 53 37.5 97.5t113.5 76.5v15q-96 45 -149 115.5t-53 163.5q0 140 104.5 230
t267.5 90q45 0 89.5 -9t90.5 -23h344v-96h-232v-6q37 -43 55 -95t18 -102q0 -130 -105.5 -220t-245.5 -90h-121q-23 -8 -48 -29t-25 -57q0 -37 21 -56.5t51 -26.5q29 -8 67.5 -10t79.5 -3q44 -1 120.5 -6t108.5 -6q46 -2 92.5 -22t84.5 -55zM647 687q0 117 -47.5 186.5
t-133.5 69.5q-47 0 -80.5 -19.5t-54.5 -55.5q-20 -33 -28.5 -79.5t-8.5 -95.5q0 -111 48.5 -181t125.5 -70q86 0 132.5 69.5t46.5 175.5zM839 -140q0 56 -26 92t-79 49q-28 4 -115 9t-202 5q-108 -21 -153.5 -70.5t-45.5 -127.5q0 -35 15 -67t52 -59q35 -26 94 -42.5
t144 -16.5q147 0 231.5 56.5t84.5 171.5zM847 1150l-48 -32l-279 273l-275 -273l-48 32l237 347q17 25 32.5 35t57.5 10q40 0 55 -10.5t29 -30.5z" />
    <glyph glyph-name="Cdotaccent" unicode="&#x10a;" horiz-adv-x="1485" 
d="M1471 567q-24 -3 -64.5 -9.5t-65.5 -18.5q-30 -15 -42.5 -42.5t-12.5 -64.5v-110q0 -120 1.5 -162t3.5 -69q-133 -60 -265 -92t-259 -32q-136 0 -262 51t-220 145q-95 95 -151 231t-56 304q0 162 53.5 300.5t151.5 240.5q95 100 226.5 155.5t281.5 55.5q120 0 209 -29
t157 -70l41 68h80l9 -496h-82q-21 82 -52 161.5t-80 142.5t-119.5 100.5t-168.5 37.5q-107 0 -191 -43.5t-146 -129.5q-61 -83 -94 -207t-33 -277q0 -135 32.5 -254.5t94.5 -206.5q62 -89 155 -140t211 -51q88 0 160.5 27t102.5 57q8 52 8.5 105t0.5 90v78q0 42 -11.5 74.5
t-47.5 47.5q-33 15 -89.5 22.5t-88.5 9.5v73h622v-73zM877 1738q0 -57 -37.5 -98.5t-92.5 -41.5q-51 0 -88.5 39t-37.5 92q0 55 37.5 95t88.5 40q57 0 93.5 -37.5t36.5 -88.5z" />
    <glyph glyph-name="cdotaccent" unicode="&#x10b;" horiz-adv-x="1043" 
d="M917 102q40 -38 63 -86t23 -119t-31 -133.5t-94 -108.5q-67 -47 -160 -73t-230 -26q-224 0 -335 65.5t-111 191.5q0 102 80 161t204 64v14q-30 9 -62 22.5t-55 31.5q-26 21 -42 49.5t-16 70.5q0 53 37.5 97.5t113.5 76.5v15q-96 45 -149 115.5t-53 163.5q0 140 104.5 230
t267.5 90q45 0 89.5 -9t90.5 -23h344v-96h-232v-6q37 -43 55 -95t18 -102q0 -130 -105.5 -220t-245.5 -90h-121q-23 -8 -48 -29t-25 -57q0 -37 21 -56.5t51 -26.5q29 -8 67.5 -10t79.5 -3q44 -1 120.5 -6t108.5 -6q46 -2 92.5 -22t84.5 -55zM647 687q0 117 -47.5 186.5
t-133.5 69.5q-47 0 -80.5 -19.5t-54.5 -55.5q-20 -33 -28.5 -79.5t-8.5 -95.5q0 -111 48.5 -181t125.5 -70q86 0 132.5 69.5t46.5 175.5zM839 -140q0 56 -26 92t-79 49q-28 4 -115 9t-202 5q-108 -21 -153.5 -70.5t-45.5 -127.5q0 -35 15 -67t52 -59q35 -26 94 -42.5
t144 -16.5q147 0 231.5 56.5t84.5 171.5zM646 1387q0 -57 -37.5 -98.5t-92.5 -41.5q-51 0 -88.5 39t-37.5 92q0 55 37.5 95t88.5 40q57 0 93.5 -37.5t36.5 -88.5z" />
    <glyph glyph-name="Ccaron" unicode="&#x10c;" horiz-adv-x="1485" 
d="M1471 567q-24 -3 -64.5 -9.5t-65.5 -18.5q-30 -15 -42.5 -42.5t-12.5 -64.5v-110q0 -120 1.5 -162t3.5 -69q-133 -60 -265 -92t-259 -32q-136 0 -262 51t-220 145q-95 95 -151 231t-56 304q0 162 53.5 300.5t151.5 240.5q95 100 226.5 155.5t281.5 55.5q120 0 209 -29
t157 -70l41 68h80l9 -496h-82q-21 82 -52 161.5t-80 142.5t-119.5 100.5t-168.5 37.5q-107 0 -191 -43.5t-146 -129.5q-61 -83 -94 -207t-33 -277q0 -135 32.5 -254.5t94.5 -206.5q62 -89 155 -140t211 -51q88 0 160.5 27t102.5 57q8 52 8.5 105t0.5 90v78q0 42 -11.5 74.5
t-47.5 47.5q-33 15 -89.5 22.5t-88.5 9.5v73h622v-73zM1075 1836l-234 -284q-21 -26 -32.5 -35.5t-60.5 -9.5q-41 0 -56.5 11t-30.5 30l-236 288l48 32l279 -214l275 214z" />
    <glyph glyph-name="ccaron" unicode="&#x10d;" horiz-adv-x="1043" 
d="M917 102q40 -38 63 -86t23 -119t-31 -133.5t-94 -108.5q-67 -47 -160 -73t-230 -26q-224 0 -335 65.5t-111 191.5q0 102 80 161t204 64v14q-30 9 -62 22.5t-55 31.5q-26 21 -42 49.5t-16 70.5q0 53 37.5 97.5t113.5 76.5v15q-96 45 -149 115.5t-53 163.5q0 140 104.5 230
t267.5 90q45 0 89.5 -9t90.5 -23h344v-96h-232v-6q37 -43 55 -95t18 -102q0 -130 -105.5 -220t-245.5 -90h-121q-23 -8 -48 -29t-25 -57q0 -37 21 -56.5t51 -26.5q29 -8 67.5 -10t79.5 -3q44 -1 120.5 -6t108.5 -6q46 -2 92.5 -22t84.5 -55zM647 687q0 117 -47.5 186.5
t-133.5 69.5q-47 0 -80.5 -19.5t-54.5 -55.5q-20 -33 -28.5 -79.5t-8.5 -95.5q0 -111 48.5 -181t125.5 -70q86 0 132.5 69.5t46.5 175.5zM839 -140q0 56 -26 92t-79 49q-28 4 -115 9t-202 5q-108 -21 -153.5 -70.5t-45.5 -127.5q0 -35 15 -67t52 -59q35 -26 94 -42.5
t144 -16.5q147 0 231.5 56.5t84.5 171.5zM847 1510l-239 -351q-17 -22 -29 -31.5t-55 -9.5q-45 0 -59.5 11t-30.5 34l-237 347l48 32l275 -273l279 273z" />
    <glyph glyph-name="Dcaron" unicode="&#x10e;" horiz-adv-x="1669" 
d="M1567 0h-589v71l69.5 6t62.5 12q30 12 44 36.5t14 63.5v505h-667v-494q0 -35 11.5 -59t45.5 -42q17 -9 60.5 -18t68.5 -10v-71h-589v71l69.5 6t62.5 12q30 12 44 36.5t14 63.5v1024q0 32 -13 58.5t-45 41.5q-27 13 -65.5 23t-66.5 12v71h589v-71q-28 -1 -68.5 -9
t-60.5 -15q-34 -12 -45.5 -40t-11.5 -61v-440h667v430q0 32 -13 58.5t-45 41.5q-27 13 -65.5 23t-66.5 12v71h589v-71q-28 -1 -68.5 -9t-60.5 -15q-34 -12 -45.5 -40t-11.5 -61v-1023q0 -35 11.5 -59t45.5 -42q17 -9 60.5 -18t68.5 -10v-71zM1036 1836l-234 -284
q-21 -26 -32.5 -35.5t-60.5 -9.5q-41 0 -56.5 11t-30.5 30l-236 288l48 32l279 -214l275 214z" />
    <glyph glyph-name="dcaron" unicode="&#x10f;" horiz-adv-x="1362" 
d="M1143 0h-484v66q23 2 51 4t46 8q28 9 41.5 31.5t13.5 58.5v507q0 105 -49.5 162t-120.5 57q-52 0 -96.5 -16.5t-79.5 -40.5q-34 -25 -52 -50t-28 -42v-567q0 -34 13.5 -56t41.5 -34q22 -10 45.5 -15t51.5 -7v-66h-484v66q23 2 48 4.5t42 7.5q28 9 42 31.5t14 58.5v1148
q0 34 -15.5 68t-40.5 51q-18 13 -63.5 18.5t-73.5 7.5v64l365 23l14 -15v-688h4l60 58.5t71 53.5q38 24 89.5 40t115.5 16q132 0 203 -83.5t71 -240.5v-513q0 -35 12.5 -56.5t41.5 -33.5q23 -9 41.5 -13.5t48.5 -6.5v-66zM1384 1340q0 -66 -28.5 -120.5t-68.5 -94.5
q-40 -41 -88 -73.5t-77 -47.5l-34 59q41 24 78.5 49.5t57.5 48.5q27 30 43 62.5t20 85.5h-48q-63 0 -98 32t-35 89q0 41 32 77.5t87 36.5q85 0 122 -56.5t37 -147.5z" />
    <glyph glyph-name="Dcroat" unicode="&#x110;" horiz-adv-x="1534" 
d="M1457 701q0 -181 -68 -314t-177 -218q-110 -85 -247 -127t-283 -42h-588v71q29 0 75.5 5.5t61.5 12.5q30 13 43.5 38.5t13.5 61.5v512h-186v98h186v414q0 34 -11.5 61t-45.5 43q-31 15 -67 22t-62 9v71h620q128 0 252 -39.5t216 -106.5q125 -89 196 -233t71 -339z
M1212 702q0 143 -38 258.5t-111 201.5q-69 82 -169.5 129t-223.5 47q-41 0 -92.5 -1.5t-76.5 -2.5v-535h301v-98h-301v-458q0 -91 53 -126t163 -35q127 0 222 45t154 125q62 84 90.5 194.5t28.5 255.5z" />
    <glyph glyph-name="dcroat" unicode="&#x111;" horiz-adv-x="1176" 
d="M1152 18l-344 -22l-15 14v92l-8 2q-52 -58 -128.5 -95t-157.5 -37q-84 0 -162.5 37.5t-136.5 105.5q-59 69 -93.5 166t-34.5 214q0 107 37 203t102 168q61 67 149.5 107t180.5 40q69 0 135.5 -17.5t114.5 -44.5v219h-361v85h362v39q0 55 -14.5 83t-39.5 46
q-28 19 -75.5 27.5t-102.5 12.5v62l403 23l15 -15v-278h217v-85h-217v-967q0 -35 13.5 -59.5t39.5 -41.5q19 -12 55 -15t66 -4v-65zM791 191v577q-8 26 -26 56t-45 55q-29 25 -68 41.5t-91 16.5q-60 0 -110.5 -31t-89.5 -89q-37 -56 -58.5 -142.5t-21.5 -191.5
q0 -84 16 -152.5t54 -127.5q35 -56 89.5 -90t129.5 -34q80 0 132.5 35t88.5 77z" />
    <glyph glyph-name="Emacron" unicode="&#x112;" horiz-adv-x="1339" 
d="M1104 661q62 -42 103 -110t41 -165q0 -99 -43 -172t-112 -120q-67 -46 -151.5 -70t-174.5 -24h-672v71q24 2 70 8.5t66 15.5q31 14 44 37.5t13 60.5v1020q0 34 -11.5 60t-45.5 42q-30 15 -67 23t-62 10v71h655q76 0 145.5 -15t132.5 -53q59 -35 97 -95t38 -146
q0 -75 -27 -133.5t-76 -100.5q-46 -40 -105.5 -67.5t-128.5 -42.5v-9q61 -7 136.5 -30.5t134.5 -65.5zM863 875q37 43 51.5 94t14.5 121q0 117 -64 183.5t-202 66.5q-32 0 -80.5 -1.5l-81.5 -2.5v-545h127q82 0 140.5 21t94.5 63zM1001 422q0 126 -84.5 207t-241.5 81
q-64 0 -108 -1.5t-66 -2.5v-500q0 -63 51 -95t142 -32q149 0 228 87t79 256zM1062 1657h-686v128h686v-128z" />
    <glyph glyph-name="emacron" unicode="&#x113;" horiz-adv-x="1147" 
d="M1073 494q0 -222 -140 -373t-325 -151q-81 0 -159.5 25t-147.5 67l-74 -115l-62 14q5 74 7 178t2 201v976q0 34 -15.5 68t-39.5 49q-19 13 -63.5 19.5t-71.5 8.5v64l362 23l14 -15v-650l7 -2q62 66 135.5 99t144.5 33q182 0 304 -144t122 -375zM864 487q0 74 -16 151
t-50 134q-34 58 -89 94t-132 36q-70 0 -122.5 -27.5t-94.5 -74.5v-574q6 -24 23.5 -56t47.5 -61q30 -28 68 -45.5t93 -17.5q122 0 197 118t75 323zM862 1291h-686v128h686v-128z" />
    <glyph glyph-name="Ebreve" unicode="&#x114;" horiz-adv-x="1339" 
d="M1104 661q62 -42 103 -110t41 -165q0 -99 -43 -172t-112 -120q-67 -46 -151.5 -70t-174.5 -24h-672v71q24 2 70 8.5t66 15.5q31 14 44 37.5t13 60.5v1020q0 34 -11.5 60t-45.5 42q-30 15 -67 23t-62 10v71h655q76 0 145.5 -15t132.5 -53q59 -35 97 -95t38 -146
q0 -75 -27 -133.5t-76 -100.5q-46 -40 -105.5 -67.5t-128.5 -42.5v-9q61 -7 136.5 -30.5t134.5 -65.5zM863 875q37 43 51.5 94t14.5 121q0 117 -64 183.5t-202 66.5q-32 0 -80.5 -1.5l-81.5 -2.5v-545h127q82 0 140.5 21t94.5 63zM1001 422q0 126 -84.5 207t-241.5 81
q-64 0 -108 -1.5t-66 -2.5v-500q0 -63 51 -95t142 -32q149 0 228 87t79 256zM1037 1851q-27 -161 -105 -241t-213 -80q-132 0 -212.5 81.5t-105.5 239.5l55 16q29 -92 89 -140.5t174 -48.5t174 48.5t89 140.5z" />
    <glyph glyph-name="ebreve" unicode="&#x115;" horiz-adv-x="1147" 
d="M1073 494q0 -222 -140 -373t-325 -151q-81 0 -159.5 25t-147.5 67l-74 -115l-62 14q5 74 7 178t2 201v976q0 34 -15.5 68t-39.5 49q-19 13 -63.5 19.5t-71.5 8.5v64l362 23l14 -15v-650l7 -2q62 66 135.5 99t144.5 33q182 0 304 -144t122 -375zM864 487q0 74 -16 151
t-50 134q-34 58 -89 94t-132 36q-70 0 -122.5 -27.5t-94.5 -74.5v-574q6 -24 23.5 -56t47.5 -61q30 -28 68 -45.5t93 -17.5q122 0 197 118t75 323zM832 1495q-28 -189 -105.5 -278.5t-207.5 -89.5q-132 0 -210 94.5t-103 273.5l55 12q14 -47 34 -90t47 -73
q31 -32 70.5 -49.5t106.5 -17.5q61 0 103.5 17t71.5 48t48.5 73t34.5 92z" />
    <glyph glyph-name="Edotaccent" unicode="&#x116;" horiz-adv-x="1339" 
d="M1104 661q62 -42 103 -110t41 -165q0 -99 -43 -172t-112 -120q-67 -46 -151.5 -70t-174.5 -24h-672v71q24 2 70 8.5t66 15.5q31 14 44 37.5t13 60.5v1020q0 34 -11.5 60t-45.5 42q-30 15 -67 23t-62 10v71h655q76 0 145.5 -15t132.5 -53q59 -35 97 -95t38 -146
q0 -75 -27 -133.5t-76 -100.5q-46 -40 -105.5 -67.5t-128.5 -42.5v-9q61 -7 136.5 -30.5t134.5 -65.5zM863 875q37 43 51.5 94t14.5 121q0 117 -64 183.5t-202 66.5q-32 0 -80.5 -1.5l-81.5 -2.5v-545h127q82 0 140.5 21t94.5 63zM1001 422q0 126 -84.5 207t-241.5 81
q-64 0 -108 -1.5t-66 -2.5v-500q0 -63 51 -95t142 -32q149 0 228 87t79 256zM803 1738q0 -57 -37.5 -98.5t-92.5 -41.5q-51 0 -88.5 39t-37.5 92q0 55 37.5 95t88.5 40q57 0 93.5 -37.5t36.5 -88.5z" />
    <glyph glyph-name="edotaccent" unicode="&#x117;" horiz-adv-x="1147" 
d="M1073 494q0 -222 -140 -373t-325 -151q-81 0 -159.5 25t-147.5 67l-74 -115l-62 14q5 74 7 178t2 201v976q0 34 -15.5 68t-39.5 49q-19 13 -63.5 19.5t-71.5 8.5v64l362 23l14 -15v-650l7 -2q62 66 135.5 99t144.5 33q182 0 304 -144t122 -375zM864 487q0 74 -16 151
t-50 134q-34 58 -89 94t-132 36q-70 0 -122.5 -27.5t-94.5 -74.5v-574q6 -24 23.5 -56t47.5 -61q30 -28 68 -45.5t93 -17.5q122 0 197 118t75 323zM647 1387q0 -57 -37.5 -98.5t-92.5 -41.5q-51 0 -88.5 39t-37.5 92q0 55 37.5 95t88.5 40q57 0 93.5 -37.5t36.5 -88.5z" />
    <glyph glyph-name="Eogonek" unicode="&#x118;" horiz-adv-x="1338" 
d="M994 0h-908v71q30 2 80 8.5t65 13.5q32 15 44.5 39t12.5 61v1020q0 33 -11 58.5t-46 41.5q-27 13 -72.5 23t-72.5 12v71h1098v-342h-75q-20 76 -86.5 161.5t-126.5 93.5q-31 4 -74 6t-98 2h-223v-564h160q77 0 112.5 14.5t62.5 48.5q22 29 37.5 77.5t20.5 91.5h75v-555
h-75q-4 48 -21.5 101.5t-36.5 77.5q-31 39 -70.5 51t-104.5 12h-160v-426q0 -64 9 -101t35 -56t71 -24.5t128 -5.5h87t91 4q38 4 78.5 14.5t57.5 28.5q46 48 96.5 145.5t64.5 143.5h72l-27 -418h-193q-46 -44 -69.5 -96t-23.5 -121q0 -36 9.5 -63.5t35.5 -48.5
q26 -22 70.5 -33t108.5 -10v-72h-115q-128 0 -197.5 52.5t-69.5 141.5q0 62 43 125.5t131 124.5z" />
    <glyph glyph-name="eogonek" unicode="&#x119;" horiz-adv-x="990" 
d="M615 -20q-17 -3 -35.5 -4t-36.5 -1q-119 0 -208.5 41.5t-147.5 113.5t-86.5 168t-28.5 203q0 96 30.5 188.5t89.5 166.5q57 71 141.5 114.5t189.5 43.5q108 0 185 -34t125 -93q46 -56 68.5 -132t22.5 -165v-66h-653q0 -97 18.5 -176t58.5 -139q39 -58 102 -91.5
t150 -33.5q89 0 153.5 41.5t124.5 149.5l70 -43q-35 -67 -85.5 -120.5t-112.5 -86.5q-58 -48 -90.5 -105.5t-32.5 -136.5q0 -36 9.5 -63.5t35.5 -48.5q26 -22 70.5 -33t108.5 -10v-72h-115q-128 0 -197.5 52.5t-69.5 141.5q0 54 35 112t111 118zM727 608q0 56 -9.5 120
t-30.5 107q-23 46 -63 75t-103 29q-105 0 -174.5 -87.5t-75.5 -243.5h456z" />
    <glyph glyph-name="Ecaron" unicode="&#x11a;" horiz-adv-x="1339" 
d="M1104 661q62 -42 103 -110t41 -165q0 -99 -43 -172t-112 -120q-67 -46 -151.5 -70t-174.5 -24h-672v71q24 2 70 8.5t66 15.5q31 14 44 37.5t13 60.5v1020q0 34 -11.5 60t-45.5 42q-30 15 -67 23t-62 10v71h655q76 0 145.5 -15t132.5 -53q59 -35 97 -95t38 -146
q0 -75 -27 -133.5t-76 -100.5q-46 -40 -105.5 -67.5t-128.5 -42.5v-9q61 -7 136.5 -30.5t134.5 -65.5zM863 875q37 43 51.5 94t14.5 121q0 117 -64 183.5t-202 66.5q-32 0 -80.5 -1.5l-81.5 -2.5v-545h127q82 0 140.5 21t94.5 63zM1001 422q0 126 -84.5 207t-241.5 81
q-64 0 -108 -1.5t-66 -2.5v-500q0 -63 51 -95t142 -32q149 0 228 87t79 256zM1018 1836l-234 -284q-21 -26 -32.5 -35.5t-60.5 -9.5q-41 0 -56.5 11t-30.5 30l-236 288l48 32l279 -214l275 214z" />
    <glyph glyph-name="ecaron" unicode="&#x11b;" horiz-adv-x="1147" 
d="M1073 494q0 -222 -140 -373t-325 -151q-81 0 -159.5 25t-147.5 67l-74 -115l-62 14q5 74 7 178t2 201v976q0 34 -15.5 68t-39.5 49q-19 13 -63.5 19.5t-71.5 8.5v64l362 23l14 -15v-650l7 -2q62 66 135.5 99t144.5 33q182 0 304 -144t122 -375zM864 487q0 74 -16 151
t-50 134q-34 58 -89 94t-132 36q-70 0 -122.5 -27.5t-94.5 -74.5v-574q6 -24 23.5 -56t47.5 -61q30 -28 68 -45.5t93 -17.5q122 0 197 118t75 323zM847 1510l-239 -351q-17 -22 -29 -31.5t-55 -9.5q-45 0 -59.5 11t-30.5 34l-237 347l48 32l275 -273l279 273z" />
    <glyph glyph-name="Gcircumflex" unicode="&#x11c;" horiz-adv-x="1060" 
d="M1006 1348q-28 -1 -69.5 -7.5t-70.5 -16.5q-34 -12 -46 -40t-12 -61v-841q0 -66 -26.5 -140t-77.5 -132q-59 -68 -140.5 -106t-186.5 -38q-163 0 -264.5 91.5t-101.5 246.5q0 68 35 120.5t102 52.5q60 0 96.5 -33.5t36.5 -88.5q0 -32 -13 -64t-29 -57l-34 -54t-27 -56
q21 -33 65.5 -58t119.5 -25q73 0 119.5 33.5t69.5 89.5q22 52 31.5 128t9.5 170v751q0 35 -11.5 58.5t-47.5 41.5q-31 16 -77.5 24.5t-76.5 10.5v71h626v-71zM1103 1539l-48 -32l-279 212l-275 -212l-48 32l234 284q18 22 35.5 33.5t57.5 11.5q41 0 56.5 -11t30.5 -30z" />
    <glyph glyph-name="gcircumflex" unicode="&#x11d;" horiz-adv-x="598" 
d="M431 60q0 -110 -32 -206.5t-85 -159.5q-57 -67 -128.5 -102.5t-157.5 -35.5q-89 0 -134 35.5t-45 83.5q0 43 24 75.5t70 32.5q31 0 55 -13t42 -34q16 -18 32.5 -44.5l31.5 -51.5q76 0 108.5 92t32.5 295v742q0 32 -15.5 61.5t-40.5 47.5q-16 11 -76.5 22t-91.5 14v62
l396 22l14 -14v-924zM446 1388q0 -57 -37.5 -99.5t-92.5 -42.5q-51 0 -88.5 40.5t-37.5 92.5q0 55 37.5 96t88.5 41q57 0 93.5 -38.5t36.5 -89.5zM810 1150l-48 -32l-279 273l-275 -273l-48 32l237 347q17 25 32.5 35t57.5 10q40 0 55 -10.5t29 -30.5z" />
    <glyph glyph-name="Gbreve" unicode="&#x11e;" horiz-adv-x="1060" 
d="M1006 1348q-28 -1 -69.5 -7.5t-70.5 -16.5q-34 -12 -46 -40t-12 -61v-841q0 -66 -26.5 -140t-77.5 -132q-59 -68 -140.5 -106t-186.5 -38q-163 0 -264.5 91.5t-101.5 246.5q0 68 35 120.5t102 52.5q60 0 96.5 -33.5t36.5 -88.5q0 -32 -13 -64t-29 -57l-34 -54t-27 -56
q21 -33 65.5 -58t119.5 -25q73 0 119.5 33.5t69.5 89.5q22 52 31.5 128t9.5 170v751q0 35 -11.5 58.5t-47.5 41.5q-31 16 -77.5 24.5t-76.5 10.5v71h626v-71zM1100 1851q-27 -161 -105 -241t-213 -80q-132 0 -212.5 81.5t-105.5 239.5l55 16q29 -92 89 -140.5t174 -48.5
t174 48.5t89 140.5z" />
    <glyph glyph-name="gbreve" unicode="&#x11f;" horiz-adv-x="598" 
d="M431 60q0 -110 -32 -206.5t-85 -159.5q-57 -67 -128.5 -102.5t-157.5 -35.5q-89 0 -134 35.5t-45 83.5q0 43 24 75.5t70 32.5q31 0 55 -13t42 -34q16 -18 32.5 -44.5l31.5 -51.5q76 0 108.5 92t32.5 295v742q0 32 -15.5 61.5t-40.5 47.5q-16 11 -76.5 22t-91.5 14v62
l396 22l14 -14v-924zM446 1388q0 -57 -37.5 -99.5t-92.5 -42.5q-51 0 -88.5 40.5t-37.5 92.5q0 55 37.5 96t88.5 41q57 0 93.5 -38.5t36.5 -89.5zM806 1495q-28 -189 -105.5 -278.5t-207.5 -89.5q-132 0 -210 94.5t-103 273.5l55 12q14 -47 34 -90t47 -73q31 -32 70.5 -49.5
t106.5 -17.5q61 0 103.5 17t71.5 48t48.5 73t34.5 92z" />
    <glyph glyph-name="Gdotaccent" unicode="&#x120;" horiz-adv-x="1060" 
d="M1006 1348q-28 -1 -69.5 -7.5t-70.5 -16.5q-34 -12 -46 -40t-12 -61v-841q0 -66 -26.5 -140t-77.5 -132q-59 -68 -140.5 -106t-186.5 -38q-163 0 -264.5 91.5t-101.5 246.5q0 68 35 120.5t102 52.5q60 0 96.5 -33.5t36.5 -88.5q0 -32 -13 -64t-29 -57l-34 -54t-27 -56
q21 -33 65.5 -58t119.5 -25q73 0 119.5 33.5t69.5 89.5q22 52 31.5 128t9.5 170v751q0 35 -11.5 58.5t-47.5 41.5q-31 16 -77.5 24.5t-76.5 10.5v71h626v-71zM907 1738q0 -57 -37.5 -98.5t-92.5 -41.5q-51 0 -88.5 39t-37.5 92q0 55 37.5 95t88.5 40q57 0 93.5 -37.5
t36.5 -88.5z" />
    <glyph glyph-name="gdotaccent" unicode="&#x121;" horiz-adv-x="598" 
d="M431 60q0 -110 -32 -206.5t-85 -159.5q-57 -67 -128.5 -102.5t-157.5 -35.5q-89 0 -134 35.5t-45 83.5q0 43 24 75.5t70 32.5q31 0 55 -13t42 -34q16 -18 32.5 -44.5l31.5 -51.5q76 0 108.5 92t32.5 295v742q0 32 -15.5 61.5t-40.5 47.5q-16 11 -76.5 22t-91.5 14v62
l396 22l14 -14v-924zM446 1388q0 -57 -37.5 -99.5t-92.5 -42.5q-51 0 -88.5 40.5t-37.5 92.5q0 55 37.5 96t88.5 41q57 0 93.5 -38.5t36.5 -89.5zM618 1387q0 -57 -37.5 -98.5t-92.5 -41.5q-51 0 -88.5 39t-37.5 92q0 55 37.5 95t88.5 40q57 0 93.5 -37.5t36.5 -88.5z" />
    <glyph glyph-name="Gcommaaccent" unicode="&#x122;" horiz-adv-x="1060" 
d="M1006 1348q-28 -1 -69.5 -7.5t-70.5 -16.5q-34 -12 -46 -40t-12 -61v-841q0 -66 -26.5 -140t-77.5 -132q-59 -68 -140.5 -106t-186.5 -38q-163 0 -264.5 91.5t-101.5 246.5q0 68 35 120.5t102 52.5q60 0 96.5 -33.5t36.5 -88.5q0 -32 -13 -64t-29 -57l-34 -54t-27 -56
q21 -33 65.5 -58t119.5 -25q73 0 119.5 33.5t69.5 89.5q22 52 31.5 128t9.5 170v751q0 35 -11.5 58.5t-47.5 41.5q-31 16 -77.5 24.5t-76.5 10.5v71h626v-71zM926 -231q0 -107 -72.5 -160t-192.5 -53v57q97 6 134.5 37t40.5 91h-55q-67 0 -93.5 27t-26.5 68q0 35 30.5 66.5
t86.5 31.5q67 0 107.5 -46t40.5 -119z" />
    <glyph glyph-name="gcommaaccent" unicode="&#x123;" horiz-adv-x="1043" 
d="M917 102q40 -38 63 -86t23 -119t-31 -133.5t-94 -108.5q-67 -47 -160 -73t-230 -26q-224 0 -335 65.5t-111 191.5q0 102 80 161t204 64v14q-30 9 -62 22.5t-55 31.5q-26 21 -42 49.5t-16 70.5q0 53 37.5 97.5t113.5 76.5v15q-96 45 -149 115.5t-53 163.5q0 140 104.5 230
t267.5 90q45 0 89.5 -9t90.5 -23h344v-96h-232v-6q37 -43 55 -95t18 -102q0 -130 -105.5 -220t-245.5 -90h-121q-23 -8 -48 -29t-25 -57q0 -37 21 -56.5t51 -26.5q29 -8 67.5 -10t79.5 -3q44 -1 120.5 -6t108.5 -6q46 -2 92.5 -22t84.5 -55zM647 687q0 117 -47.5 186.5
t-133.5 69.5q-47 0 -80.5 -19.5t-54.5 -55.5q-20 -33 -28.5 -79.5t-8.5 -95.5q0 -111 48.5 -181t125.5 -70q86 0 132.5 69.5t46.5 175.5zM839 -140q0 56 -26 92t-79 49q-28 4 -115 9t-202 5q-108 -21 -153.5 -70.5t-45.5 -127.5q0 -35 15 -67t52 -59q35 -26 94 -42.5
t144 -16.5q147 0 231.5 56.5t84.5 171.5zM629 1538q-33 -17 -71 -39t-59 -41q-25 -21 -41.5 -51.5t-23.5 -74.5h45q63 0 98 -29.5t35 -80.5q0 -37 -32 -72.5t-87 -35.5q-78 0 -118.5 48t-40.5 140q0 57 27.5 104.5t67.5 86.5q39 36 85.5 62t80.5 42z" />
    <glyph glyph-name="Hcircumflex" unicode="&#x124;" horiz-adv-x="1422" 
d="M1475 0h-398q-115 178 -255.5 353.5t-294.5 340.5h-26v-494q0 -33 12.5 -59t45.5 -42q16 -7 59.5 -17t72.5 -11v-71h-589v71l67 6t62 12q30 13 43.5 38.5t13.5 61.5v1024q0 34 -11.5 59t-45.5 41q-27 13 -64 23t-65 12v71h589v-71q-28 -1 -70 -9t-62 -15q-34 -12 -46 -40
t-12 -61v-490h20q90 76 177 158.5t158 164.5q79 91 115.5 145.5t36.5 96.5q0 15 -18.5 24.5t-42.5 15.5q-28 6 -50 7.5l-36 2.5v71h532v-71q-3 0 -13 -1t-23 -2q-14 -1 -28 -4t-36 -7q-35 -8 -72.5 -25.5t-61.5 -43.5l-215 -242t-222 -228q152 -172 251.5 -296l211.5 -265
q43 -54 86 -86.5t74 -48.5q26 -13 65 -20t65 -8v-71zM1160 1539l-48 -32l-279 212l-275 -212l-48 32l234 284q18 22 35.5 33.5t57.5 11.5q41 0 56.5 -11t30.5 -30z" />
    <glyph glyph-name="hcircumflex" unicode="&#x125;" horiz-adv-x="1192" 
d="M1143 0h-484v66q23 2 51 4t46 8q28 9 41.5 31.5t13.5 58.5v507q0 105 -49.5 162t-120.5 57q-52 0 -96.5 -16.5t-79.5 -40.5q-34 -25 -52 -50t-28 -42v-567q0 -34 13.5 -56t41.5 -34q22 -10 45.5 -15t51.5 -7v-66h-484v66q23 2 48 4.5t42 7.5q28 9 42 31.5t14 58.5v1019
q0 34 -15.5 68t-40.5 51q-18 12 -63.5 18t-73.5 8v64l365 23l14 -15v-559h4l60 58.5t71 53.5q38 24 89.5 40t115.5 16q132 0 203 -83.5t71 -240.5v-513q0 -35 12.5 -56.5t41.5 -33.5q23 -9 41.5 -13.5t48.5 -6.5v-66zM930 1539l-48 -32l-279 212l-275 -212l-48 32l234 284
q18 22 35.5 33.5t57.5 11.5q41 0 56.5 -11t30.5 -30z" />
    <glyph glyph-name="Hbar" unicode="&#x126;" horiz-adv-x="1669" 
d="M1567 0h-589v71l69.5 6t62.5 12q30 12 44 36.5t14 63.5v505h-667v-494q0 -35 11.5 -59t45.5 -42q17 -9 60.5 -18t68.5 -10v-71h-589v71l69.5 6t62.5 12q30 12 44 36.5t14 63.5v822h-186v89h186v113q0 32 -13 58.5t-45 41.5q-27 13 -65.5 23t-66.5 12v71h589v-71
q-28 -1 -68.5 -9t-60.5 -15q-34 -12 -45.5 -40t-11.5 -61v-123h667v113q0 32 -13 58.5t-45 41.5q-27 13 -65.5 23t-66.5 12v71h589v-71q-28 -1 -68.5 -9t-60.5 -15q-34 -12 -45.5 -40t-11.5 -61v-123h186v-89h-186v-811q0 -35 11.5 -59t45.5 -42q17 -9 60.5 -18t68.5 -10
v-71zM1168 783v228h-667v-228h667z" />
    <glyph glyph-name="hbar" unicode="&#x127;" horiz-adv-x="1192" 
d="M1143 0h-484v66q23 2 51 4t46 8q28 9 41.5 31.5t13.5 58.5v507q0 105 -49.5 162t-120.5 57q-52 0 -96.5 -16.5t-79.5 -40.5q-34 -25 -52 -50t-28 -42v-567q0 -34 13.5 -56t41.5 -34q22 -10 45.5 -15t51.5 -7v-66h-484v66q23 2 48 4.5t42 7.5q28 9 42 31.5t14 58.5v1002
h-228v85h228v61q0 34 -15.5 68t-40.5 51q-18 13 -63.5 18.5t-73.5 7.5v64l365 23l14 -15v-278h351v-85h-351v-325h4l60 58.5t71 53.5q38 24 89.5 40t115.5 16q132 0 203 -83.5t71 -240.5v-513q0 -35 12.5 -56.5t41.5 -33.5q23 -9 41.5 -13.5t48.5 -6.5v-66z" />
    <glyph glyph-name="Itilde" unicode="&#x128;" horiz-adv-x="798" 
d="M718 0h-639v71l78 6t72 12q33 13 48 35.5t15 62.5v1028q0 35 -11 58.5t-52 39.5q-30 12 -75.5 22.5t-74.5 12.5v71h639v-71q-31 -1 -74 -7.5t-75 -16.5q-38 -12 -51 -39t-13 -60v-1027q0 -33 14.5 -58.5t49.5 -40.5q21 -8 68.5 -17.5t80.5 -10.5v-71zM774 1835
q-10 -38 -30 -78t-55 -79q-36 -39 -75.5 -62.5t-94.5 -23.5q-57 0 -95.5 16t-68.5 35q-26 17 -59.5 34.5t-66.5 17.5q-31 0 -46.5 -8t-32.5 -27q-16 -18 -32 -47.5l-30 -53.5l-58 25q10 32 34 77t52 79q30 36 73 61.5t90 25.5q54 0 92 -16t69 -36q28 -18 57 -34.5t61 -16.5
q40 0 64.5 9.5t38.5 26.5q16 19 26.5 41t25.5 57z" />
    <glyph glyph-name="itilde" unicode="&#x129;" horiz-adv-x="600" 
d="M551 0h-477v66l47.5 4t42.5 8q28 9 41.5 31.5t13.5 58.5v609q0 32 -14.5 58.5t-40.5 44.5q-19 12 -55 20.5t-66 10.5v65l348 22l14 -14v-804q0 -35 13.5 -58t42.5 -34q22 -9 43 -14.5t47 -7.5v-66zM620 1467q-11 -44 -30 -84t-47 -73q-31 -38 -67 -62t-85 -24
q-52 0 -86 16t-61 35q-23 17 -52.5 34.5t-59.5 17.5q-28 0 -42 -8t-29 -27t-26 -42.5t-29 -58.5l-53 25q11 36 29.5 76t48.5 80q26 36 64.5 61.5t81.5 25.5q48 0 82.5 -16t61.5 -36q25 -18 50.5 -34.5t54.5 -16.5q36 0 57.5 9.5t34.5 26.5q15 20 23.5 41l22.5 57z" />
    <glyph glyph-name="Imacron" unicode="&#x12a;" horiz-adv-x="798" 
d="M718 0h-639v71l78 6t72 12q33 13 48 35.5t15 62.5v1028q0 35 -11 58.5t-52 39.5q-30 12 -75.5 22.5t-74.5 12.5v71h639v-71q-31 -1 -74 -7.5t-75 -16.5q-38 -12 -51 -39t-13 -60v-1027q0 -33 14.5 -58.5t49.5 -40.5q21 -8 68.5 -17.5t80.5 -10.5v-71zM721 1657h-644v128
h644v-128z" />
    <glyph glyph-name="imacron" unicode="&#x12b;" horiz-adv-x="600" 
d="M551 0h-477v66l47.5 4t42.5 8q28 9 41.5 31.5t13.5 58.5v609q0 32 -14.5 58.5t-40.5 44.5q-19 12 -55 20.5t-66 10.5v65l348 22l14 -14v-804q0 -35 13.5 -58t42.5 -34q22 -9 43 -14.5t47 -7.5v-66zM560 1291h-586v128h586v-128z" />
    <glyph glyph-name="Ibreve" unicode="&#x12c;" horiz-adv-x="1236" 
d="M1237 422l-30 -422h-1109v71q24 2 69.5 7t63.5 13q30 13 43.5 38t13.5 64v1016q0 34 -11.5 60t-45.5 42q-23 12 -64.5 23.5t-68.5 13.5v71h599v-71q-28 -1 -72.5 -10t-64.5 -16q-34 -12 -46.5 -41t-12.5 -62v-953q0 -66 6.5 -102.5t30.5 -56.5q23 -18 68.5 -23.5
t127.5 -5.5q37 0 77 2t76 8q35 6 64.5 16.5t43.5 26.5q41 46 95.5 139.5t75.5 151.5h71zM716 1851q-27 -161 -105 -241t-213 -80q-132 0 -212.5 81.5t-105.5 239.5l55 16q29 -92 89 -140.5t174 -48.5t174 48.5t89 140.5z" />
    <glyph glyph-name="ibreve" unicode="&#x12d;" horiz-adv-x="600" 
d="M551 0h-477v66l47.5 4t42.5 8q28 9 41.5 31.5t13.5 58.5v609q0 32 -14.5 58.5t-40.5 44.5q-19 12 -55 20.5t-66 10.5v65l348 22l14 -14v-804q0 -35 13.5 -58t42.5 -34q22 -9 43 -14.5t47 -7.5v-66zM551 1495q-20 -183 -85 -275.5t-187 -92.5t-188.5 92.5t-83.5 275.5
l50 12q13 -48 28 -89.5t38 -73.5q24 -31 60 -49t96 -18q54 0 92.5 16.5t62.5 48.5q23 31 39.5 77t27.5 88z" />
    <glyph glyph-name="Iogonek" unicode="&#x12e;" horiz-adv-x="798" 
d="M398 0h-319v71l78 6t72 12q33 13 48 35.5t15 62.5v1028q0 35 -11 58.5t-52 39.5q-30 12 -75.5 22.5t-74.5 12.5v71h639v-71q-31 -1 -74 -7.5t-75 -16.5q-38 -12 -51 -39t-13 -60v-1027q0 -33 14.5 -58.5t49.5 -40.5q21 -8 68.5 -17.5t80.5 -10.5v-71h-243
q-46 -44 -69.5 -96t-23.5 -121q0 -36 10.5 -64t34.5 -48q26 -22 70.5 -33t108.5 -10v-72h-115q-128 0 -197.5 52.5t-69.5 141.5q0 62 43 125.5t131 124.5z" />
    <glyph glyph-name="iogonek" unicode="&#x12f;" horiz-adv-x="600" 
d="M308 0h-234v66l47.5 4t42.5 8q28 9 41.5 31.5t13.5 58.5v609q0 32 -14.5 58.5t-40.5 44.5q-19 12 -55 20.5t-66 10.5v65l348 22l14 -14v-804q0 -35 13.5 -58t42.5 -34q22 -9 43 -14.5t47 -7.5v-66h-166q-46 -44 -69.5 -96t-23.5 -121q0 -36 10.5 -64t34.5 -48
q26 -22 70.5 -33t108.5 -10v-72h-115q-128 0 -197.5 52.5t-69.5 141.5q0 62 43 125.5t131 124.5zM425 1387q0 -57 -37.5 -99.5t-92.5 -42.5q-51 0 -88.5 40.5t-37.5 92.5q0 55 37.5 96t88.5 41q57 0 93.5 -38.5t36.5 -89.5z" />
    <glyph glyph-name="Idotaccent" unicode="&#x130;" horiz-adv-x="1236" 
d="M1237 422l-30 -422h-1109v71q24 2 69.5 7t63.5 13q30 13 43.5 38t13.5 64v1016q0 34 -11.5 60t-45.5 42q-23 12 -64.5 23.5t-68.5 13.5v71h599v-71q-28 -1 -72.5 -10t-64.5 -16q-34 -12 -46.5 -41t-12.5 -62v-953q0 -66 6.5 -102.5t30.5 -56.5q23 -18 68.5 -23.5
t127.5 -5.5q37 0 77 2t76 8q35 6 64.5 16.5t43.5 26.5q41 46 95.5 139.5t75.5 151.5h71zM528 1738q0 -57 -37.5 -98.5t-92.5 -41.5q-51 0 -88.5 39t-37.5 92q0 55 37.5 95t88.5 40q57 0 93.5 -37.5t36.5 -88.5z" />
    <glyph glyph-name="dotlessi" unicode="&#x131;" horiz-adv-x="600" 
d="M551 0h-477v66l47.5 4t42.5 8q28 9 41.5 31.5t13.5 58.5v609q0 32 -14.5 58.5t-40.5 44.5q-19 12 -55 20.5t-66 10.5v65l348 22l14 -14v-804q0 -35 13.5 -58t42.5 -34q22 -9 43 -14.5t47 -7.5v-66z" />
    <glyph glyph-name="IJ" unicode="&#x132;" horiz-adv-x="1818" 
d="M1237 422l-30 -422h-1109v71q24 2 69.5 7t63.5 13q30 13 43.5 38t13.5 64v1016q0 34 -11.5 60t-45.5 42q-23 12 -64.5 23.5t-68.5 13.5v71h599v-71q-28 -1 -72.5 -10t-64.5 -16q-34 -12 -46.5 -41t-12.5 -62v-953q0 -66 6.5 -102.5t30.5 -56.5q23 -18 68.5 -23.5
t127.5 -5.5q37 0 77 2t76 8q35 6 64.5 16.5t43.5 26.5q41 46 95.5 139.5t75.5 151.5h71zM2564 0h-627v71q34 1 87.5 7t73.5 17q31 19 45.5 43.5t14.5 61.5v1032h-15l-484 -1209h-50l-461 1234h-13v-847q0 -123 15.5 -187t47.5 -92q22 -21 91 -40t90 -20v-71h-573v71
q45 4 94.5 15t76.5 33q35 28 48 86t13 194v726q0 63 -15 103t-43 65q-31 27 -76 40t-89 15v71h484l406 -1064l347 890q19 49 32.5 102.5t14.5 71.5h463v-71q-28 -1 -71.5 -9t-63.5 -15q-34 -12 -46 -40t-12 -61v-1023q0 -35 12 -59t46 -42q18 -10 64 -18.5t73 -9.5v-71z" />
    <glyph glyph-name="ij" unicode="&#x133;" horiz-adv-x="1172" 
d="M534 0h-481v66q23 2 49 4.5t43 7.5q28 9 42 31.5t14 58.5v1142q0 36 -15.5 67.5t-40.5 49.5q-18 12 -66 22t-77 12v64l371 23l14 -15v-1353q0 -35 13 -57.5t42 -34.5q22 -10 43.5 -15t48.5 -7v-66zM2335 0h-481v66l46.5 4t41.5 8q28 9 41.5 31.5t13.5 58.5v509
q0 104 -47.5 160.5t-118.5 56.5q-49 0 -92 -15t-79 -42q-29 -22 -48.5 -47.5t-29.5 -42.5v-569q0 -35 12 -57.5t41 -34.5q23 -9 41.5 -13.5t48.5 -6.5v-66h-471v66l44.5 4t39.5 8q28 9 41.5 31.5t13.5 58.5v509q0 104 -47.5 160.5t-118.5 56.5q-49 0 -92 -15.5t-79 -42.5
q-29 -22 -49 -49.5l-30 -41.5v-565q0 -34 14 -57t42 -35q21 -10 43 -15t49 -7v-66h-479v66l47.5 4t42.5 8q28 9 41.5 31.5t13.5 58.5v613q0 32 -14.5 57.5t-40.5 43.5q-19 12 -47 19.5t-58 9.5v65l330 22l14 -14v-141h7l61 59t67 55q35 24 87.5 40t113.5 16q96 0 165 -51.5
t99 -124.5l63.5 61.5t72.5 56.5q38 26 89.5 42t114.5 16q125 0 198 -82t73 -252v-501q0 -35 12 -57.5t41 -34.5q23 -9 45.5 -13.5t50.5 -6.5v-66z" />
    <glyph glyph-name="Jcircumflex" unicode="&#x134;" horiz-adv-x="1899" 
d="M1806 0h-627v71q34 1 87.5 7t73.5 17q31 19 45.5 43.5t14.5 61.5v1032h-15l-484 -1209h-50l-461 1234h-13v-847q0 -123 15.5 -187t47.5 -92q22 -21 91 -40t90 -20v-71h-573v71q45 4 94.5 15t76.5 33q35 28 48 86t13 194v726q0 63 -15 103t-43 65q-31 27 -76 40t-89 15v71
h484l406 -1064l347 890q19 49 32.5 102.5t14.5 71.5h463v-71q-28 -1 -71.5 -9t-63.5 -15q-34 -12 -46 -40t-12 -61v-1023q0 -35 12 -59t46 -42q18 -10 64 -18.5t73 -9.5v-71zM1006 1539l-48 -32l-279 212l-275 -212l-48 32l234 284q18 22 35.5 33.5t57.5 11.5q41 0 56.5 -11
t30.5 -30z" />
    <glyph glyph-name="jcircumflex" unicode="&#x135;" horiz-adv-x="598" 
d="M431 60q0 -110 -32 -206.5t-85 -159.5q-57 -67 -128.5 -102.5t-157.5 -35.5q-89 0 -134 35.5t-45 83.5q0 43 24 75.5t70 32.5q31 0 55 -13t42 -34q16 -18 32.5 -44.5l31.5 -51.5q76 0 108.5 92t32.5 295v742q0 32 -15.5 61.5t-40.5 47.5q-16 11 -76.5 22t-91.5 14v62
l396 22l14 -14v-924zM573 1150l-48 -32l-259 273l-255 -273l-48 32l217 347q15 25 32 35t58 10t56.5 -10.5t27.5 -30.5z" />
    <glyph glyph-name="Kcommaaccent" unicode="&#x136;" horiz-adv-x="1571" 
d="M1554 1348q-28 -1 -86 -16t-83 -31q-36 -25 -48.5 -96t-12.5 -180v-1039h-87l-860 1161v-732q0 -123 15.5 -189t47.5 -94q23 -22 95 -41t95 -20v-71h-582v71q27 2 91 19.5t80 31.5q35 28 48 85.5t13 196.5v699q0 46 -16 92t-43 71q-36 33 -97.5 56.5t-99.5 25.5v71h405
l798 -1082v675q0 124 -16 190.5t-46 88.5q-28 19 -91.5 37t-96.5 20v71h577v-71zM951 -231q0 -107 -72.5 -160t-192.5 -53v57q97 6 134.5 37t40.5 91h-55q-67 0 -93.5 27t-26.5 68q0 35 30.5 66.5t86.5 31.5q67 0 107.5 -46t40.5 -119z" />
    <glyph glyph-name="kcommaaccent" unicode="&#x137;" horiz-adv-x="1210" 
d="M1161 0h-483v66q23 2 50.5 4t45.5 8q28 9 41.5 31.5t13.5 58.5v507q0 105 -49.5 162t-120.5 57q-53 0 -97 -16.5t-78 -40.5q-33 -23 -52.5 -49.5t-28.5 -42.5v-567q0 -34 14 -56t42 -34q21 -10 45.5 -15t50.5 -7v-66h-483v66l47.5 4t42.5 8q28 9 41.5 31.5t13.5 58.5v609
q0 34 -14.5 62.5t-40.5 46.5q-19 12 -45 17.5t-56 7.5v65l328 22l14 -14v-139h5l60 57.5t68 54.5q37 24 88 40t115 16q142 0 210.5 -88.5t68.5 -235.5v-513q0 -35 12 -56.5t41 -33.5q24 -10 41.5 -14t48.5 -6v-66zM764 -231q0 -107 -72.5 -160t-192.5 -53v57q97 6 134.5 37
t40.5 91h-55q-67 0 -93.5 27t-26.5 68q0 35 30.5 66.5t86.5 31.5q67 0 107.5 -46t40.5 -119z" />
    <glyph glyph-name="kgreenlandic" unicode="&#x138;" horiz-adv-x="1115" 
d="M1135 0h-298l-167 242t-185 251l-82 -77v-234q0 -36 13 -59.5t42 -34.5q24 -10 46 -15t51 -7v-66h-484v66q23 2 48 4.5t42 7.5q28 9 42 31.5t14 58.5v609q0 34 -14.5 62.5t-40.5 46.5q-19 12 -45 17.5t-56 7.5v65l328 22l14 -15v-493l168.5 167.5t152.5 159.5
q8 9 17.5 23.5t9.5 23.5q0 27 -43.5 40t-83.5 18v64h434v-62q-84 -25 -148.5 -62.5t-98.5 -67.5q-24 -20 -68 -65t-123 -118q82 -101 184.5 -242l149.5 -204q44 -59 79 -77t102 -22v-66z" />
    <glyph glyph-name="Lacute" unicode="&#x139;" horiz-adv-x="1524" 
d="M1244 1251q94 -98 147 -236.5t53 -306.5q0 -169 -54 -307t-150 -235q-93 -96 -216 -148t-262 -52q-148 0 -273.5 55.5t-215.5 154.5q-90 97 -141.5 235.5t-51.5 296.5q0 173 54 308.5t149 234.5q94 98 218.5 150t260.5 52q141 0 266 -53t216 -149zM1095 245
q56 91 81.5 206t25.5 257q0 146 -28.5 268t-83.5 208q-55 85 -138 132.5t-190 47.5q-120 0 -204 -55t-137 -147q-50 -88 -74.5 -206t-24.5 -248q0 -144 26 -260t82 -206q54 -88 136 -137.5t196 -49.5q107 0 193 50t140 140zM791 1675l-136.5 -66.5l-209.5 -101.5l-31 39
l148.5 143.5l113.5 115.5q32 34 58.5 48.5t56.5 14.5q38 0 65 -23t27 -57q0 -43 -26 -68t-66 -45z" />
    <glyph glyph-name="lacute" unicode="&#x13a;" horiz-adv-x="586" 
d="M534 0h-481v66q23 2 49 4.5t43 7.5q28 9 42 31.5t14 58.5v1013q0 36 -15.5 67.5t-40.5 49.5q-18 13 -66 22.5t-77 11.5v64l371 23l14 -15v-1224q0 -35 13 -57.5t42 -34.5q22 -10 43.5 -15t48.5 -7v-66zM567 1788q0 -43 -26 -68t-66 -45l-136.5 -66.5l-209.5 -101.5
l-31 39l148.5 143.5l113.5 115.5q32 34 58.5 48.5t56.5 14.5q38 0 65 -23t27 -57z" />
    <glyph glyph-name="Lcommaaccent" unicode="&#x13b;" horiz-adv-x="1524" 
d="M1244 1251q94 -98 147 -236.5t53 -306.5q0 -169 -54 -307t-150 -235q-93 -96 -216 -148t-262 -52q-148 0 -273.5 55.5t-215.5 154.5q-90 97 -141.5 235.5t-51.5 296.5q0 173 54 308.5t149 234.5q94 98 218.5 150t260.5 52q141 0 266 -53t216 -149zM1095 245
q56 91 81.5 206t25.5 257q0 146 -28.5 268t-83.5 208q-55 85 -138 132.5t-190 47.5q-120 0 -204 -55t-137 -147q-50 -88 -74.5 -206t-24.5 -248q0 -144 26 -260t82 -206q54 -88 136 -137.5t196 -49.5q107 0 193 50t140 140zM847 -231q0 -107 -72.5 -160t-192.5 -53v57
q97 6 134.5 37t40.5 91h-55q-67 0 -93.5 27t-26.5 68q0 35 30.5 66.5t86.5 31.5q67 0 107.5 -46t40.5 -119z" />
    <glyph glyph-name="lcommaaccent" unicode="&#x13c;" horiz-adv-x="1104" 
d="M1033 503q0 -104 -33 -204.5t-94 -170.5q-69 -80 -160 -119t-204 -39q-94 0 -179 35.5t-151 103.5q-65 67 -103.5 163.5t-38.5 216.5q0 231 134.5 378t352.5 147q207 0 341.5 -139.5t134.5 -371.5zM826 501q0 75 -15 158.5t-45 141.5q-32 62 -84 99.5t-127 37.5
q-77 0 -131.5 -38t-88.5 -104q-32 -61 -45 -139t-13 -151q0 -96 15.5 -177.5t49.5 -145.5t85.5 -100.5t127.5 -36.5q125 0 198 121t73 334zM450 -231q0 -107 -72.5 -160t-192.5 -53v57q97 6 134.5 37t40.5 91h-55q-67 0 -93.5 27t-26.5 68q0 35 30.5 66.5t86.5 31.5
q67 0 107.5 -46t40.5 -119z" />
    <glyph glyph-name="Lcaron" unicode="&#x13d;" horiz-adv-x="1524" 
d="M1244 1251q94 -98 147 -236.5t53 -306.5q0 -169 -54 -307t-150 -235q-93 -96 -216 -148t-262 -52q-148 0 -273.5 55.5t-215.5 154.5q-90 97 -141.5 235.5t-51.5 296.5q0 173 54 308.5t149 234.5q94 98 218.5 150t260.5 52q141 0 266 -53t216 -149zM1095 245
q56 91 81.5 206t25.5 257q0 146 -28.5 268t-83.5 208q-55 85 -138 132.5t-190 47.5q-120 0 -204 -55t-137 -147q-50 -88 -74.5 -206t-24.5 -248q0 -144 26 -260t82 -206q54 -88 136 -137.5t196 -49.5q107 0 193 50t140 140zM1141 1229q0 -66 -28.5 -120.5t-68.5 -94.5
q-40 -41 -88 -73.5t-77 -47.5l-34 59q41 24 78.5 49.5t57.5 48.5q27 30 43 62.5t20 85.5h-48q-63 0 -98 32t-35 89q0 41 32 77.5t87 36.5q85 0 122 -56.5t37 -147.5z" />
    <glyph glyph-name="lcaron" unicode="&#x13e;" horiz-adv-x="771" 
d="M1033 503q0 -104 -33 -204.5t-94 -170.5q-69 -80 -160 -119t-204 -39q-94 0 -179 35.5t-151 103.5q-65 67 -103.5 163.5t-38.5 216.5q0 231 134.5 378t352.5 147q207 0 341.5 -139.5t134.5 -371.5zM826 501q0 75 -15 158.5t-45 141.5q-32 62 -84 99.5t-127 37.5
q-77 0 -131.5 -38t-88.5 -104q-32 -61 -45 -139t-13 -151q0 -96 15.5 -177.5t49.5 -145.5t85.5 -100.5t127.5 -36.5q125 0 198 121t73 334zM793 1340q0 -66 -28.5 -120.5t-68.5 -94.5q-40 -41 -88 -73.5t-77 -47.5l-34 59q41 24 78.5 49.5t57.5 48.5q27 30 43 62.5t20 85.5
h-48q-63 0 -98 32t-35 89q0 41 32 77.5t87 36.5q85 0 122 -56.5t37 -147.5z" />
    <glyph glyph-name="Ldot" unicode="&#x13f;" horiz-adv-x="1236" 
d="M1237 422l-30 -422h-1109v71q24 2 69.5 7t63.5 13q30 13 43.5 38t13.5 64v1016q0 34 -11.5 60t-45.5 42q-23 12 -64.5 23.5t-68.5 13.5v71h599v-71q-28 -1 -72.5 -10t-64.5 -16q-34 -12 -46.5 -41t-12.5 -62v-953q0 -66 6.5 -102.5t30.5 -56.5q23 -18 68.5 -23.5
t127.5 -5.5q37 0 77 2t76 8q35 6 64.5 16.5t43.5 26.5q41 46 95.5 139.5t75.5 151.5h71zM1151 724q0 -56 -40.5 -95.5t-96.5 -39.5t-96.5 39.5t-40.5 95.5t40.5 96.5t96.5 40.5t96.5 -40.5t40.5 -96.5z" />
    <glyph glyph-name="ldot" unicode="&#x140;" horiz-adv-x="861" 
d="M534 0h-481v66q23 2 49 4.5t43 7.5q28 9 42 31.5t14 58.5v1142q0 36 -15.5 67.5t-40.5 49.5q-18 12 -66 22t-77 12v64l371 23l14 -15v-1353q0 -35 13 -57.5t42 -34.5q22 -10 43.5 -15t48.5 -7v-66zM859 672q0 -55 -40 -94t-95 -39t-95 39t-40 94t40 95t95 40t95 -40
t40 -95z" />
    <glyph glyph-name="Lslash" unicode="&#x141;" horiz-adv-x="1236" 
d="M1237 422l-30 -422h-1109v71q24 2 69.5 7t63.5 13q30 13 43.5 38t13.5 64v432l-163 -68l-35 87l198 81v484q0 34 -11.5 60t-45.5 42q-23 12 -64.5 23.5t-68.5 13.5v71h599v-71q-28 -1 -72.5 -10t-64.5 -16q-34 -12 -46.5 -41t-12.5 -62v-413l271 113l35 -87l-306 -125
v-441q0 -66 6.5 -102.5t30.5 -56.5q23 -18 68.5 -23.5t127.5 -5.5q37 0 77 2t76 8q35 6 64.5 16.5t43.5 26.5q41 46 95.5 139.5t75.5 151.5h71z" />
    <glyph glyph-name="lslash" unicode="&#x142;" horiz-adv-x="586" 
d="M559 758l-172 -71v-507q0 -35 13 -57.5t42 -34.5q22 -10 43.5 -15t48.5 -7v-66h-481v66q23 2 49 4.5t43 7.5q28 9 42 31.5t14 58.5v449l-138 -59l-34 81l172 71v600q0 36 -15.5 67.5t-40.5 49.5q-18 12 -66 22t-77 12v64l371 23l14 -15v-753l138 59z" />
    <glyph glyph-name="Nacute" unicode="&#x143;" horiz-adv-x="1524" 
d="M1244 1251q94 -98 147 -236.5t53 -306.5q0 -134 -35 -248t-99 -204q-61 -86 -145 -150t-188 -101q2 -110 79 -197.5t166 -87.5q82 0 125 5.5t71 10.5v-79q-45 -13 -112.5 -27.5t-187.5 -14.5q-67 0 -131 19.5t-116 62.5t-86.5 109t-44.5 162q-143 5 -265 61.5t-209 154.5
q-88 99 -137 232.5t-49 291.5q0 173 54 308.5t149 234.5q94 98 218.5 150t260.5 52q141 0 266 -53t216 -149zM1095 245q56 91 81.5 206t25.5 257q0 146 -28.5 268t-83.5 208q-55 85 -138 132.5t-190 47.5q-120 0 -204 -55t-137 -147q-50 -88 -74.5 -206t-24.5 -248
q0 -144 26 -260t82 -206q54 -88 136 -137.5t196 -49.5q107 0 193 50t140 140zM1001 1675l-136.5 -66.5l-209.5 -101.5l-31 39l148.5 143.5l113.5 115.5q32 34 58.5 48.5t56.5 14.5q38 0 65 -23t27 -57q0 -43 -26 -68t-66 -45z" />
    <glyph glyph-name="nacute" unicode="&#x144;" horiz-adv-x="1146" 
d="M1154 -444h-533v67q31 2 61 5t54 10q31 10 43 35t12 59v364l-6 2q-16 -18 -45.5 -41.5t-61.5 -38.5q-40 -21 -77 -32.5t-93 -11.5q-90 0 -169.5 37.5t-138.5 106.5q-59 68 -93.5 167.5t-34.5 218.5q0 113 40 205.5t106 161.5q63 65 151.5 103.5t175.5 38.5
q65 0 115.5 -12.5t86.5 -29.5q31 -13 62 -33.5t44 -27.5l85 130l57 -8q-4 -74 -10.5 -182t-6.5 -189v-912q0 -35 13 -60.5t42 -38.5q24 -10 61 -17.5t60 -9.5v-67zM791 183v589q-8 25 -27 55.5t-45 53.5q-28 24 -68.5 40t-93.5 16q-117 0 -196.5 -121t-79.5 -333
q0 -84 15.5 -152t53.5 -127q36 -56 91 -89.5t139 -33.5q72 0 123 30.5t88 71.5zM839 1460q0 -38 -17.5 -62t-51.5 -51l-130.5 -102l-173.5 -135l-38 32l125.5 187.5l76.5 120.5q31 51 60 69.5t67 18.5q36 0 59 -24.5t23 -53.5z" />
    <glyph glyph-name="Ncommaaccent" unicode="&#x145;" horiz-adv-x="1524" 
d="M1244 1251q94 -98 147 -236.5t53 -306.5q0 -134 -35 -248t-99 -204q-61 -86 -145 -150t-188 -101q2 -110 79 -197.5t166 -87.5q82 0 125 5.5t71 10.5v-79q-45 -13 -112.5 -27.5t-187.5 -14.5q-67 0 -131 19.5t-116 62.5t-86.5 109t-44.5 162q-143 5 -265 61.5t-209 154.5
q-88 99 -137 232.5t-49 291.5q0 173 54 308.5t149 234.5q94 98 218.5 150t260.5 52q141 0 266 -53t216 -149zM1095 245q56 91 81.5 206t25.5 257q0 146 -28.5 268t-83.5 208q-55 85 -138 132.5t-190 47.5q-120 0 -204 -55t-137 -147q-50 -88 -74.5 -206t-24.5 -248
q0 -144 26 -260t82 -206q54 -88 136 -137.5t196 -49.5q107 0 193 50t140 140zM931 -231q0 -107 -72.5 -160t-192.5 -53v57q97 6 134.5 37t40.5 91h-55q-67 0 -93.5 27t-26.5 68q0 35 30.5 66.5t86.5 31.5q67 0 107.5 -46t40.5 -119z" />
    <glyph glyph-name="ncommaaccent" unicode="&#x146;" horiz-adv-x="1146" 
d="M1154 -444h-533v67q31 2 61 5t54 10q31 10 43 35t12 59v364l-6 2q-16 -18 -45.5 -41.5t-61.5 -38.5q-40 -21 -77 -32.5t-93 -11.5q-90 0 -169.5 37.5t-138.5 106.5q-59 68 -93.5 167.5t-34.5 218.5q0 113 40 205.5t106 161.5q63 65 151.5 103.5t175.5 38.5
q65 0 115.5 -12.5t86.5 -29.5q31 -13 62 -33.5t44 -27.5l85 130l57 -8q-4 -74 -10.5 -182t-6.5 -189v-912q0 -35 13 -60.5t42 -38.5q24 -10 61 -17.5t60 -9.5v-67zM791 183v589q-8 25 -27 55.5t-45 53.5q-28 24 -68.5 40t-93.5 16q-117 0 -196.5 -121t-79.5 -333
q0 -84 15.5 -152t53.5 -127q36 -56 91 -89.5t139 -33.5q72 0 123 30.5t88 71.5zM775 -231q0 -107 -72.5 -160t-192.5 -53v57q97 6 134.5 37t40.5 91h-55q-67 0 -93.5 27t-26.5 68q0 35 30.5 66.5t86.5 31.5q67 0 107.5 -46t40.5 -119z" />
    <glyph glyph-name="Ncaron" unicode="&#x147;" horiz-adv-x="1524" 
d="M1244 1251q94 -98 147 -236.5t53 -306.5q0 -134 -35 -248t-99 -204q-61 -86 -145 -150t-188 -101q2 -110 79 -197.5t166 -87.5q82 0 125 5.5t71 10.5v-79q-45 -13 -112.5 -27.5t-187.5 -14.5q-67 0 -131 19.5t-116 62.5t-86.5 109t-44.5 162q-143 5 -265 61.5t-209 154.5
q-88 99 -137 232.5t-49 291.5q0 173 54 308.5t149 234.5q94 98 218.5 150t260.5 52q141 0 266 -53t216 -149zM1095 245q56 91 81.5 206t25.5 257q0 146 -28.5 268t-83.5 208q-55 85 -138 132.5t-190 47.5q-120 0 -204 -55t-137 -147q-50 -88 -74.5 -206t-24.5 -248
q0 -144 26 -260t82 -206q54 -88 136 -137.5t196 -49.5q107 0 193 50t140 140zM1106 1836l-234 -284q-21 -26 -32.5 -35.5t-60.5 -9.5q-41 0 -56.5 11t-30.5 30l-236 288l48 32l279 -214l275 214z" />
    <glyph glyph-name="ncaron" unicode="&#x148;" horiz-adv-x="1146" 
d="M1154 -444h-533v67q31 2 61 5t54 10q31 10 43 35t12 59v364l-6 2q-16 -18 -45.5 -41.5t-61.5 -38.5q-40 -21 -77 -32.5t-93 -11.5q-90 0 -169.5 37.5t-138.5 106.5q-59 68 -93.5 167.5t-34.5 218.5q0 113 40 205.5t106 161.5q63 65 151.5 103.5t175.5 38.5
q65 0 115.5 -12.5t86.5 -29.5q31 -13 62 -33.5t44 -27.5l85 130l57 -8q-4 -74 -10.5 -182t-6.5 -189v-912q0 -35 13 -60.5t42 -38.5q24 -10 61 -17.5t60 -9.5v-67zM791 183v589q-8 25 -27 55.5t-45 53.5q-28 24 -68.5 40t-93.5 16q-117 0 -196.5 -121t-79.5 -333
q0 -84 15.5 -152t53.5 -127q36 -56 91 -89.5t139 -33.5q72 0 123 30.5t88 71.5zM934 1510l-239 -351q-17 -22 -29 -31.5t-55 -9.5q-45 0 -59.5 11t-30.5 34l-237 347l48 32l275 -273l279 273z" />
    <glyph glyph-name="napostrophe" unicode="&#x149;" horiz-adv-x="1320" 
d="M1265 -444h-533v67q31 2 61 5t54 10q31 10 43 35t12 59v364l-6 2q-16 -18 -45.5 -41.5t-61.5 -38.5q-40 -21 -77 -32.5t-93 -11.5q-90 0 -169.5 37.5t-138.5 106.5q-59 68 -93.5 167.5t-34.5 218.5q0 113 40 205.5t106 161.5q63 65 151.5 103.5t175.5 38.5
q65 0 115.5 -12.5t86.5 -29.5q31 -13 62 -33.5t44 -27.5l85 130l57 -8q-4 -74 -10.5 -182t-6.5 -189v-912q0 -35 13 -60.5t42 -38.5q24 -10 61 -17.5t60 -9.5v-67zM902 183v589q-8 25 -27 55.5t-45 53.5q-28 24 -68.5 40t-93.5 16q-117 0 -196.5 -121t-79.5 -333
q0 -84 15.5 -152t53.5 -127q36 -56 91 -89.5t139 -33.5q72 0 123 30.5t88 71.5zM276 1325q0 -66 -28.5 -120.5t-68.5 -94.5q-40 -41 -88 -73.5t-77 -47.5l-34 59q41 24 78.5 49.5t57.5 48.5q27 30 43 62.5t20 85.5h-48q-63 0 -98 32t-35 89q0 41 32 77.5t87 36.5
q85 0 122 -56.5t37 -147.5z" />
    <glyph glyph-name="Eng" unicode="&#x14a;" horiz-adv-x="1571" 
d="M885.5 -206q22.5 -14 38.5 -34q15 -19 34 -48.5t39 -52.5q102 4 164.5 89.5t62.5 256.5l-847 1142v-732q0 -123 15.5 -189t47.5 -94q23 -22 95 -41t95 -20v-71h-582v71q27 2 91 19.5t80 31.5q35 28 48 85.5t13 196.5v699q0 46 -16 92t-43 71q-36 33 -97.5 56.5
t-99.5 25.5v71h405l798 -1082v675q0 124 -16 190.5t-46 88.5q-28 19 -91.5 37t-96.5 20v71h577v-71q-28 -1 -86 -16t-83 -31q-36 -25 -48.5 -96t-12.5 -180v-969q0 -242 -105 -371t-302 -129q-94 0 -147 39t-53 94q0 48 29.5 83.5t80.5 35.5q36 0 58.5 -14z" />
    <glyph glyph-name="eng" unicode="&#x14b;" horiz-adv-x="1185" 
d="M688 -360q75 0 108 92.5t34 292.5q0 57 1.5 146t1.5 196q0 75 -1 154l-2 154q-2 106 -51 162.5t-120 56.5q-53 0 -97 -16.5t-78 -40.5q-33 -23 -52.5 -49.5t-28.5 -42.5v-567q0 -34 14 -56t42 -34q21 -10 45.5 -15t50.5 -7v-66h-483v66l47.5 4t42.5 8q28 9 41.5 31.5
t13.5 58.5v609q0 34 -14.5 62.5t-40.5 46.5q-19 12 -45 17.5t-56 7.5v65l328 22l14 -14v-139h5l60 57.5t68 54.5q37 24 88 40t115 16q142 0 210.5 -88.5t68.5 -235.5q0 -50 1.5 -130.5t1.5 -183.5q0 -67 -0.5 -144t-2.5 -173q-2 -115 -34.5 -209.5t-85.5 -156.5
q-57 -66 -128.5 -101t-157.5 -35q-89 0 -134 35.5t-45 83.5q0 45 25 76.5t69 31.5q31 0 55 -13t42 -34q16 -19 32.5 -45z" />
    <glyph glyph-name="Omacron" unicode="&#x14c;" horiz-adv-x="1437" 
d="M1480 0h-382q-127 199 -229.5 344t-222.5 299h-145v-450q0 -35 11 -61.5t47 -40.5q18 -7 63 -13t76 -7v-71h-600v71q24 2 69.5 7t63.5 13q30 13 43.5 38t13.5 64v1026q0 35 -10 62t-47 41q-25 9 -65 16.5t-68 9.5v71h655q90 0 169 -18.5t143 -59.5q62 -40 99 -104.5
t37 -155.5q0 -82 -25 -145t-74 -109q-45 -43 -108 -74.5t-139 -53.5l174.5 -234l170.5 -231q44 -60 79.5 -88.5t70.5 -46.5q26 -13 65 -20t65 -8v-71zM954 1058q0 129 -74 204.5t-209 75.5h-170v-609h131q138 0 230 88.5t92 240.5zM1106 1657h-686v128h686v-128z" />
    <glyph glyph-name="omacron" unicode="&#x14d;" horiz-adv-x="839" 
d="M827 859q0 -51 -25 -90.5t-77 -39.5q-56 0 -85.5 29t-29.5 64q0 22 3.5 40t6.5 36q-47 0 -110 -38t-107 -108v-574q0 -35 13.5 -57t42.5 -33q25 -10 64.5 -15t68.5 -7v-66h-520v66l47.5 4t42.5 8q28 9 41.5 31.5t13.5 58.5v609q0 31 -14.5 61t-40.5 48q-19 12 -45 17.5
t-56 7.5v65l328 22l14 -14v-139h5q62 81 138 123t139 42t102.5 -41t39.5 -110zM896 1291h-686v128h686v-128z" />
    <glyph glyph-name="Obreve" unicode="&#x14e;" horiz-adv-x="1437" 
d="M1480 0h-382q-127 199 -229.5 344t-222.5 299h-145v-450q0 -35 11 -61.5t47 -40.5q18 -7 63 -13t76 -7v-71h-600v71q24 2 69.5 7t63.5 13q30 13 43.5 38t13.5 64v1026q0 35 -10 62t-47 41q-25 9 -65 16.5t-68 9.5v71h655q90 0 169 -18.5t143 -59.5q62 -40 99 -104.5
t37 -155.5q0 -82 -25 -145t-74 -109q-45 -43 -108 -74.5t-139 -53.5l174.5 -234l170.5 -231q44 -60 79.5 -88.5t70.5 -46.5q26 -13 65 -20t65 -8v-71zM954 1058q0 129 -74 204.5t-209 75.5h-170v-609h131q138 0 230 88.5t92 240.5zM1080 1851q-27 -161 -105 -241t-213 -80
q-132 0 -212.5 81.5t-105.5 239.5l55 16q29 -92 89 -140.5t174 -48.5t174 48.5t89 140.5z" />
    <glyph glyph-name="obreve" unicode="&#x14f;" horiz-adv-x="839" 
d="M827 859q0 -51 -25 -90.5t-77 -39.5q-56 0 -85.5 29t-29.5 64q0 22 3.5 40t6.5 36q-47 0 -110 -38t-107 -108v-574q0 -35 13.5 -57t42.5 -33q25 -10 64.5 -15t68.5 -7v-66h-520v66l47.5 4t42.5 8q28 9 41.5 31.5t13.5 58.5v609q0 31 -14.5 61t-40.5 48q-19 12 -45 17.5
t-56 7.5v65l328 22l14 -14v-139h5q62 81 138 123t139 42t102.5 -41t39.5 -110zM865 1495q-28 -189 -105.5 -278.5t-207.5 -89.5q-132 0 -210 94.5t-103 273.5l55 12q14 -47 34 -90t47 -73q31 -32 70.5 -49.5t106.5 -17.5q61 0 103.5 17t71.5 48t48.5 73t34.5 92z" />
    <glyph glyph-name="Ohungarumlaut" unicode="&#x150;" horiz-adv-x="1437" 
d="M1480 0h-382q-127 199 -229.5 344t-222.5 299h-145v-450q0 -35 11 -61.5t47 -40.5q18 -7 63 -13t76 -7v-71h-600v71q24 2 69.5 7t63.5 13q30 13 43.5 38t13.5 64v1026q0 35 -10 62t-47 41q-25 9 -65 16.5t-68 9.5v71h655q90 0 169 -18.5t143 -59.5q62 -40 99 -104.5
t37 -155.5q0 -82 -25 -145t-74 -109q-45 -43 -108 -74.5t-139 -53.5l174.5 -234l170.5 -231q44 -60 79.5 -88.5t70.5 -46.5q26 -13 65 -20t65 -8v-71zM954 1058q0 129 -74 204.5t-209 75.5h-170v-609h131q138 0 230 88.5t92 240.5zM836 1678l-108.5 -56.5t-192.5 -114.5
l-29 36l119.5 136l94.5 113q28 34 56 54.5t54 20.5q42 0 65 -26t23 -58q0 -39 -22.5 -62.5t-59.5 -42.5zM1225 1678l-111 -56.5t-195 -114.5l-29 36l124.5 139l94.5 110q28 34 56 54.5t54 20.5q42 0 65 -26t23 -58q0 -39 -22.5 -62.5t-59.5 -42.5z" />
    <glyph glyph-name="ohungarumlaut" unicode="&#x151;" horiz-adv-x="839" 
d="M827 859q0 -51 -25 -90.5t-77 -39.5q-56 0 -85.5 29t-29.5 64q0 22 3.5 40t6.5 36q-47 0 -110 -38t-107 -108v-574q0 -35 13.5 -57t42.5 -33q25 -10 64.5 -15t68.5 -7v-66h-520v66l47.5 4t42.5 8q28 9 41.5 31.5t13.5 58.5v609q0 31 -14.5 61t-40.5 48q-19 12 -45 17.5
t-56 7.5v65l328 22l14 -14v-139h5q62 81 138 123t139 42t102.5 -41t39.5 -110zM1028 1460q0 -38 -15.5 -61.5t-47.5 -51.5l-109.5 -93.5l-169.5 -143.5l-35 28l112 184l71 124q28 51 52 71.5t60 20.5q35 0 58.5 -24.5t23.5 -53.5zM656 1459q0 -35 -12.5 -58t-46.5 -54
l-96.5 -87.5l-168.5 -149.5l-37 28q76 128 111.5 195l58.5 113q25 51 49 71.5t61 20.5q34 0 57.5 -25t23.5 -54z" />
    <glyph glyph-name="OE" unicode="&#x152;" horiz-adv-x="2044" 
d="M1003 87v1244q-41 2 -84.5 3.5t-70.5 1.5q-116 0 -209 -34.5t-166 -111.5q-70 -73 -110.5 -192t-40.5 -281q0 -284 149.5 -459.5t392.5 -175.5q27 0 62.5 1.5t76.5 3.5zM1216 269q0 -62 9 -100.5t35 -56.5q27 -19 71.5 -24.5t127.5 -5.5h85.5t87.5 4q41 5 77.5 15
t53.5 28q46 48 96.5 145.5t64.5 143.5h72l-27 -418h-1154q-213 0 -392.5 99.5t-265.5 266.5q-36 70 -56.5 158t-20.5 195q0 178 66 310.5t177 220.5q108 86 247 127.5t280 41.5h1039v-342h-75q-19 75 -86 161t-127 94q-31 4 -74 6t-98 2h-213v-564h150q72 0 108 12.5
t67 50.5q22 29 37.5 77.5t20.5 91.5h75v-555h-75q-4 48 -21.5 101.5t-36.5 77.5q-29 37 -68.5 50t-106.5 13h-150v-426z" />
    <glyph glyph-name="oe" unicode="&#x153;" horiz-adv-x="1672" 
d="M1631 233q-58 -123 -159.5 -191t-224.5 -68q-113 0 -208 51.5t-153 143.5q-62 -92 -152.5 -145.5t-203.5 -53.5q-90 0 -173.5 35.5t-147.5 103.5q-64 67 -101.5 163.5t-37.5 216.5q0 110 31 204t94 168q60 71 150.5 112t203.5 41q114 0 205 -57.5t140 -134.5
q53 84 139.5 138t190.5 54t174.5 -32.5t117.5 -89.5q46 -56 68 -132.5t22 -163.5v-72h-624q3 -221 81.5 -330.5t230.5 -109.5q104 0 164 51.5t103 140.5zM1410 608q0 58 -6 115.5t-28 106.5q-21 48 -60.5 78.5t-103.5 30.5q-102 0 -166 -96.5t-64 -234.5h428zM788 490
q0 84 -11 168t-38 144q-28 62 -77 99.5t-123 37.5q-77 0 -127.5 -39.5t-81.5 -103.5q-29 -60 -41.5 -138t-12.5 -153q0 -99 15.5 -182t45.5 -143q32 -63 81.5 -99t120.5 -36q119 0 184 109.5t65 335.5z" />
    <glyph glyph-name="Racute" unicode="&#x154;" horiz-adv-x="1534" 
d="M1457 701q0 -181 -68 -314t-177 -218q-110 -85 -247 -127t-283 -42h-588v71q29 0 75.5 5.5t61.5 12.5q30 13 43.5 38.5t13.5 61.5v1024q0 34 -11.5 61t-45.5 43q-31 15 -67 22t-62 9v71h620q128 0 252 -39.5t216 -106.5q125 -89 196 -233t71 -339zM1212 702
q0 143 -38 258.5t-111 201.5q-69 82 -169.5 129t-223.5 47q-41 0 -92.5 -1.5t-76.5 -2.5v-1091q0 -91 53 -126t163 -35q127 0 222 45t154 125q62 84 90.5 194.5t28.5 255.5zM901 1675l-136.5 -66.5l-209.5 -101.5l-31 39l148.5 143.5l113.5 115.5q32 34 58.5 48.5t56.5 14.5
q38 0 65 -23t27 -57q0 -43 -26 -68t-66 -45z" />
    <glyph glyph-name="racute" unicode="&#x155;" horiz-adv-x="1176" 
d="M1152 18l-344 -22l-15 14v92l-8 2q-52 -58 -128.5 -95t-157.5 -37q-84 0 -162.5 37.5t-136.5 105.5q-59 69 -93.5 166t-34.5 214q0 107 37 203t102 168q61 67 149.5 107t180.5 40q69 0 135.5 -17.5t114.5 -44.5v343q0 42 -14 76.5t-39 52.5q-28 19 -75.5 27.5
t-102.5 12.5v62l403 23l15 -15v-1330q0 -35 13.5 -59.5t39.5 -41.5q19 -12 55 -15t66 -4v-65zM791 191v577q-8 26 -26 56t-45 55q-29 25 -68 41.5t-91 16.5q-60 0 -110.5 -31t-89.5 -89q-37 -56 -58.5 -142.5t-21.5 -191.5q0 -84 16 -152.5t54 -127.5q35 -56 89.5 -90
t129.5 -34q80 0 132.5 35t88.5 77zM696 1460q0 -38 -17.5 -62t-51.5 -51l-130.5 -102l-173.5 -135l-38 32l125.5 187.5l76.5 120.5q31 51 60 69.5t67 18.5q36 0 59 -24.5t23 -53.5z" />
    <glyph glyph-name="Rcommaaccent" unicode="&#x156;" horiz-adv-x="1534" 
d="M1457 701q0 -181 -68 -314t-177 -218q-110 -85 -247 -127t-283 -42h-588v71q29 0 75.5 5.5t61.5 12.5q30 13 43.5 38.5t13.5 61.5v1024q0 34 -11.5 61t-45.5 43q-31 15 -67 22t-62 9v71h620q128 0 252 -39.5t216 -106.5q125 -89 196 -233t71 -339zM1212 702
q0 143 -38 258.5t-111 201.5q-69 82 -169.5 129t-223.5 47q-41 0 -92.5 -1.5t-76.5 -2.5v-1091q0 -91 53 -126t163 -35q127 0 222 45t154 125q62 84 90.5 194.5t28.5 255.5zM936 -231q0 -107 -72.5 -160t-192.5 -53v57q97 6 134.5 37t40.5 91h-55q-67 0 -93.5 27t-26.5 68
q0 35 30.5 66.5t86.5 31.5q67 0 107.5 -46t40.5 -119z" />
    <glyph glyph-name="rcommaaccent" unicode="&#x157;" horiz-adv-x="1176" 
d="M1152 18l-344 -22l-15 14v92l-8 2q-52 -58 -128.5 -95t-157.5 -37q-84 0 -162.5 37.5t-136.5 105.5q-59 69 -93.5 166t-34.5 214q0 107 37 203t102 168q61 67 149.5 107t180.5 40q69 0 135.5 -17.5t114.5 -44.5v343q0 42 -14 76.5t-39 52.5q-28 19 -75.5 27.5
t-102.5 12.5v62l403 23l15 -15v-1330q0 -35 13.5 -59.5t39.5 -41.5q19 -12 55 -15t66 -4v-65zM791 191v577q-8 26 -26 56t-45 55q-29 25 -68 41.5t-91 16.5q-60 0 -110.5 -31t-89.5 -89q-37 -56 -58.5 -142.5t-21.5 -191.5q0 -84 16 -152.5t54 -127.5q35 -56 89.5 -90
t129.5 -34q80 0 132.5 35t88.5 77zM527 -231q0 -107 -72.5 -160t-192.5 -53v57q97 6 134.5 37t40.5 91h-55q-67 0 -93.5 27t-26.5 68q0 35 30.5 66.5t86.5 31.5q67 0 107.5 -46t40.5 -119z" />
    <glyph glyph-name="Rcaron" unicode="&#x158;" horiz-adv-x="1534" 
d="M1457 701q0 -181 -68 -314t-177 -218q-110 -85 -247 -127t-283 -42h-588v71q29 0 75.5 5.5t61.5 12.5q30 13 43.5 38.5t13.5 61.5v1024q0 34 -11.5 61t-45.5 43q-31 15 -67 22t-62 9v71h620q128 0 252 -39.5t216 -106.5q125 -89 196 -233t71 -339zM1212 702
q0 143 -38 258.5t-111 201.5q-69 82 -169.5 129t-223.5 47q-41 0 -92.5 -1.5t-76.5 -2.5v-1091q0 -91 53 -126t163 -35q127 0 222 45t154 125q62 84 90.5 194.5t28.5 255.5zM984 1836l-234 -284q-21 -26 -32.5 -35.5t-60.5 -9.5q-41 0 -56.5 11t-30.5 30l-236 288l48 32
l279 -214l275 214z" />
    <glyph glyph-name="rcaron" unicode="&#x159;" horiz-adv-x="1176" 
d="M1152 18l-344 -22l-15 14v92l-8 2q-52 -58 -128.5 -95t-157.5 -37q-84 0 -162.5 37.5t-136.5 105.5q-59 69 -93.5 166t-34.5 214q0 107 37 203t102 168q61 67 149.5 107t180.5 40q69 0 135.5 -17.5t114.5 -44.5v343q0 42 -14 76.5t-39 52.5q-28 19 -75.5 27.5
t-102.5 12.5v62l403 23l15 -15v-1330q0 -35 13.5 -59.5t39.5 -41.5q19 -12 55 -15t66 -4v-65zM791 191v577q-8 26 -26 56t-45 55q-29 25 -68 41.5t-91 16.5q-60 0 -110.5 -31t-89.5 -89q-37 -56 -58.5 -142.5t-21.5 -191.5q0 -84 16 -152.5t54 -127.5q35 -56 89.5 -90
t129.5 -34q80 0 132.5 35t88.5 77zM748 1510l-239 -351q-17 -22 -29 -31.5t-55 -9.5q-45 0 -59.5 11t-30.5 34l-237 347l48 32l275 -273l279 273z" />
    <glyph glyph-name="Sacute" unicode="&#x15a;" horiz-adv-x="1227" 
d="M1199 1064h-75q-21 79 -87.5 169t-127.5 99q-31 4 -73.5 6t-96.5 2h-238v-570h163q74 0 115 15.5t70 47.5q20 22 36.5 68.5t21.5 99.5h76v-557h-76q-3 44 -20.5 100t-37.5 81q-30 37 -75.5 50.5t-109.5 13.5h-163v-489q0 -33 13 -59t46 -42q15 -7 65 -17t76 -11v-71h-615
v71q30 2 80 6.5t65 11.5q30 13 43.5 38.5t13.5 61.5v1024q0 33 -11 58.5t-46 41.5q-27 13 -72.5 23t-72.5 12v71h1113v-355zM757 1675l-136.5 -66.5l-209.5 -101.5l-31 39l148.5 143.5l113.5 115.5q32 34 58.5 48.5t56.5 14.5q38 0 65 -23t27 -57q0 -43 -26 -68t-66 -45z
" />
    <glyph glyph-name="sacute" unicode="&#x15b;" horiz-adv-x="666" 
d="M806 1429q0 -45 -24 -76t-73 -31q-31 0 -54.5 13t-43.5 35t-37 50t-29 45q-67 -3 -103.5 -93.5t-36.5 -288.5v-101h254v-96h-254v-708q0 -35 13.5 -57t42.5 -33q24 -9 64 -14.5t69 -7.5v-66h-520v66l47.5 4t42.5 8q28 9 41.5 31.5t13.5 58.5v718h-195v96h195v63
q0 225 116.5 364.5t291.5 139.5q89 0 134 -35t45 -85zM693 1460q0 -38 -17.5 -62t-51.5 -51l-130.5 -102l-173.5 -135l-38 32l125.5 187.5l76.5 120.5q31 51 60 69.5t67 18.5q36 0 59 -24.5t23 -53.5z" />
    <glyph glyph-name="Scircumflex" unicode="&#x15c;" horiz-adv-x="1227" 
d="M1199 1064h-75q-21 79 -87.5 169t-127.5 99q-31 4 -73.5 6t-96.5 2h-238v-570h163q74 0 115 15.5t70 47.5q20 22 36.5 68.5t21.5 99.5h76v-557h-76q-3 44 -20.5 100t-37.5 81q-30 37 -75.5 50.5t-109.5 13.5h-163v-489q0 -33 13 -59t46 -42q15 -7 65 -17t76 -11v-71h-615
v71q30 2 80 6.5t65 11.5q30 13 43.5 38.5t13.5 61.5v1024q0 33 -11 58.5t-46 41.5q-27 13 -72.5 23t-72.5 12v71h1113v-355zM916 1539l-48 -32l-279 212l-275 -212l-48 32l234 284q18 22 35.5 33.5t57.5 11.5q41 0 56.5 -11t30.5 -30z" />
    <glyph glyph-name="scircumflex" unicode="&#x15d;" horiz-adv-x="666" 
d="M806 1429q0 -45 -24 -76t-73 -31q-31 0 -54.5 13t-43.5 35t-37 50t-29 45q-67 -3 -103.5 -93.5t-36.5 -288.5v-101h254v-96h-254v-708q0 -35 13.5 -57t42.5 -33q24 -9 64 -14.5t69 -7.5v-66h-520v66l47.5 4t42.5 8q28 9 41.5 31.5t13.5 58.5v718h-195v96h195v63
q0 225 116.5 364.5t291.5 139.5q89 0 134 -35t45 -85zM779 1150l-48 -32l-279 273l-275 -273l-48 32l237 347q17 25 32.5 35t57.5 10q40 0 55 -10.5t29 -30.5z" />
    <glyph glyph-name="Scedilla" unicode="&#x15e;" horiz-adv-x="1149" 
d="M675 -282q0 49 -55 62t-110 13v93v90q-77 9 -146 33.5t-133 62.5l-43 -73h-80l-14 486h81q25 -90 58.5 -162.5t88.5 -135.5q52 -59 121.5 -94t161.5 -35q69 0 120.5 18t83.5 51t47.5 77.5t15.5 102.5q0 85 -48 158.5t-143 111.5l-149 57.5t-145 59.5
q-120 54 -186.5 141.5t-66.5 228.5q0 81 33 151t94 125q58 52 137 81.5t165 29.5q98 0 175.5 -30t141.5 -70l41 68h80l8 -471h-81q-22 81 -49.5 155t-71.5 134q-43 58 -105 92.5t-152 34.5q-95 0 -162 -61t-67 -149q0 -92 43 -152.5t125 -99.5q73 -35 143.5 -60.5
t136.5 -54.5q60 -26 115.5 -59t96.5 -77q45 -50 66.5 -109.5t21.5 -138.5q0 -185 -135 -308t-345 -123v-71q45 0 81 -5.5t73 -24.5q33 -17 54.5 -46t21.5 -73q0 -58 -32 -98t-89 -62q-53 -21 -121 -28.5t-157 -7.5v72q41 0 90.5 1.5t80.5 8.5q40 9 62 27.5t22 52.5z" />
    <glyph glyph-name="scedilla" unicode="&#x15f;" horiz-adv-x="885" 
d="M525 -282q0 49 -55 62t-110 13v91.5v97.5q-66 14 -110 35.5t-72 44.5l-20 -65h-75l-10 343h69q8 -39 34 -91t63 -94q39 -44 93.5 -74t122.5 -30q96 0 148 43.5t52 124.5q0 42 -16.5 72.5t-48.5 53.5q-33 23 -81 41.5t-107 36.5q-47 14 -104.5 38.5t-98.5 57.5
q-44 35 -72 86t-28 120q0 121 90 205t241 84q58 0 118.5 -15t98.5 -36l23 52h72l15 -317h-69q-21 106 -90.5 172.5t-169.5 66.5q-82 0 -129 -41t-47 -99q0 -45 15.5 -75t46.5 -51q30 -20 75.5 -37.5t112.5 -39.5q66 -21 124.5 -49t96.5 -62q41 -36 63 -83t22 -115
q0 -137 -103 -223.5t-266 -86.5v-74q45 0 81 -5.5t73 -24.5q33 -17 54.5 -46t21.5 -73q0 -58 -32 -98t-89 -62q-53 -21 -121 -28.5t-157 -7.5v72q41 0 90.5 1.5t80.5 8.5q40 9 62 27.5t22 52.5z" />
    <glyph glyph-name="Scaron" unicode="&#x160;" horiz-adv-x="1227" 
d="M1199 1064h-75q-21 79 -87.5 169t-127.5 99q-31 4 -73.5 6t-96.5 2h-238v-570h163q74 0 115 15.5t70 47.5q20 22 36.5 68.5t21.5 99.5h76v-557h-76q-3 44 -20.5 100t-37.5 81q-30 37 -75.5 50.5t-109.5 13.5h-163v-489q0 -33 13 -59t46 -42q15 -7 65 -17t76 -11v-71h-615
v71q30 2 80 6.5t65 11.5q30 13 43.5 38.5t13.5 61.5v1024q0 33 -11 58.5t-46 41.5q-27 13 -72.5 23t-72.5 12v71h1113v-355zM908 1836l-234 -284q-21 -26 -32.5 -35.5t-60.5 -9.5q-41 0 -56.5 11t-30.5 30l-236 288l48 32l279 -214l275 214z" />
    <glyph glyph-name="scaron" unicode="&#x161;" horiz-adv-x="666" 
d="M806 1429q0 -45 -24 -76t-73 -31q-31 0 -54.5 13t-43.5 35t-37 50t-29 45q-67 -3 -103.5 -93.5t-36.5 -288.5v-101h254v-96h-254v-708q0 -35 13.5 -57t42.5 -33q24 -9 64 -14.5t69 -7.5v-66h-520v66l47.5 4t42.5 8q28 9 41.5 31.5t13.5 58.5v718h-195v96h195v63
q0 225 116.5 364.5t291.5 139.5q89 0 134 -35t45 -85zM775 1510l-239 -351q-17 -22 -29 -31.5t-55 -9.5q-45 0 -59.5 11t-30.5 34l-237 347l48 32l275 -273l279 273z" />
    <glyph glyph-name="Tcommaaccent" unicode="&#x162;" horiz-adv-x="1549" 
d="M1533 1348q-28 -1 -82 -12t-88 -33q-34 -23 -47 -95t-13 -176v-617q0 -118 -49 -205t-129 -143q-79 -54 -166.5 -77.5t-167.5 -23.5q-128 0 -228 33.5t-168 90.5q-67 57 -101 130.5t-34 153.5v839q0 35 -11.5 58.5t-46.5 43.5q-25 14 -64 22.5t-64 10.5v71h591v-71
q-28 -1 -70.5 -9t-62.5 -15q-34 -12 -45.5 -40t-11.5 -61v-784q0 -57 12.5 -119.5t49.5 -116.5q39 -55 106 -90t184 -35q110 0 184.5 35t117.5 92q41 54 58 113t17 119v582q0 111 -16 181.5t-47 92.5q-35 25 -95.5 39t-92.5 16v71h580v-71zM797 -231q0 -107 -72.5 -160
t-192.5 -53v57q97 6 134.5 37t40.5 91h-55q-67 0 -93.5 27t-26.5 68q0 35 30.5 66.5t86.5 31.5q67 0 107.5 -46t40.5 -119z" />
    <glyph glyph-name="tcommaaccent" unicode="&#x163;" horiz-adv-x="1178" 
d="M1129 18l-321 -22l-15 14v125h-6q-24 -25 -54 -53.5t-69 -51.5q-45 -27 -87 -41t-119 -14q-131 0 -199.5 85.5t-68.5 248.5v472q0 36 -13.5 60.5t-39.5 42.5q-18 12 -45 17.5t-57 7.5v65l329 24l15 -14v-685q0 -107 48 -161t115 -54q55 0 98 17t72 40q27 21 47.5 44.5
t31.5 43.5v559q0 33 -14 58.5t-39 43.5q-18 12 -53.5 14.5t-79.5 4.5v65l358 24l15 -14v-783q0 -34 14 -58t39 -41q18 -11 43 -14.5t55 -4.5v-65zM577 -231q0 -107 -72.5 -160t-192.5 -53v57q97 6 134.5 37t40.5 91h-55q-67 0 -93.5 27t-26.5 68q0 35 30.5 66.5t86.5 31.5
q67 0 107.5 -46t40.5 -119z" />
    <glyph glyph-name="Tcaron" unicode="&#x164;" horiz-adv-x="1549" 
d="M1533 1348q-28 -1 -82 -12t-88 -33q-34 -23 -47 -95t-13 -176v-617q0 -118 -49 -205t-129 -143q-79 -54 -166.5 -77.5t-167.5 -23.5q-128 0 -228 33.5t-168 90.5q-67 57 -101 130.5t-34 153.5v839q0 35 -11.5 58.5t-46.5 43.5q-25 14 -64 22.5t-64 10.5v71h591v-71
q-28 -1 -70.5 -9t-62.5 -15q-34 -12 -45.5 -40t-11.5 -61v-784q0 -57 12.5 -119.5t49.5 -116.5q39 -55 106 -90t184 -35q110 0 184.5 35t117.5 92q41 54 58 113t17 119v582q0 111 -16 181.5t-47 92.5q-35 25 -95.5 39t-92.5 16v71h580v-71zM959 1836l-234 -284
q-21 -26 -32.5 -35.5t-60.5 -9.5q-41 0 -56.5 11t-30.5 30l-236 288l48 32l279 -214l275 214z" />
    <glyph glyph-name="tcaron" unicode="&#x165;" horiz-adv-x="707" 
d="M681 43q-65 -27 -123 -45.5t-142 -18.5q-124 0 -174.5 62.5t-50.5 176.5v668h-178v96h182v307h182v-307h283v-96h-281v-551q0 -62 4.5 -103.5t21.5 -72.5q16 -29 48 -44t86 -15q25 0 73.5 4.5t68.5 11.5v-73zM794 1368q0 -58 -28.5 -107.5t-67.5 -84.5q-37 -34 -82 -61.5
t-84 -43.5l-34 59l73.5 40t57.5 41q24 22 41.5 51t23.5 76h-45q-61 0 -97 28.5t-36 81.5q0 37 32 73.5t87 36.5q78 0 118.5 -49t40.5 -141z" />
    <glyph glyph-name="Tbar" unicode="&#x166;" horiz-adv-x="1267" 
d="M1251 1034h-69q-9 36 -32.5 85.5t-52.5 93.5q-30 46 -65.5 80.5t-68.5 39.5q-31 4 -78 6t-87 2h-58v-557h311v-91h-311v-487q0 -33 14 -60.5t49 -42.5q18 -7 75.5 -19t89.5 -13v-71h-670v71q28 2 85.5 8t79.5 15q33 13 48.5 37.5t15.5 65.5v496h-311v91h311v557h-58
q-31 0 -77 -1.5t-88 -6.5q-33 -4 -68.5 -39.5t-65.5 -80.5t-53 -95.5t-32 -83.5h-70v385h1236v-385z" />
    <glyph glyph-name="tbar" unicode="&#x167;" horiz-adv-x="707" 
d="M681 43q-65 -27 -123 -45.5t-142 -18.5q-124 0 -174.5 62.5t-50.5 176.5v265h-170v85h170v318h-178v96h182v307h182v-307h283v-96h-281v-318h233v-85h-233v-148q0 -62 4.5 -103.5t21.5 -72.5q16 -29 48 -44t86 -15q25 0 73.5 4.5t68.5 11.5v-73z" />
    <glyph glyph-name="Utilde" unicode="&#x168;" horiz-adv-x="1365" 
d="M1407 1348q-26 -1 -63 -11.5t-61 -25.5q-34 -21 -54.5 -54t-40.5 -78l-201 -495.5l-276 -701.5h-83l-278 746l-182 485q-12 31 -32 54.5t-53 44.5q-27 17 -60 25.5t-61 10.5v71h587v-71q-75 -4 -126.5 -15t-51.5 -39q0 -11 4 -26t7 -24l120 -319.5l236 -630.5l175 437
t133 346q33 91 38.5 126t5.5 57q0 23 -20.5 38.5t-54.5 26.5q-33 10 -67 15t-69 8v71h528v-71zM1198 1835q-10 -38 -30 -78t-55 -79q-36 -39 -75.5 -62.5t-94.5 -23.5q-57 0 -100 16.5t-74 34.5q-35 20 -66.5 36t-69.5 16q-31 0 -46.5 -8t-32.5 -27q-16 -18 -32 -47.5
l-30 -53.5l-58 25q10 32 34 77t52 79q30 36 73 61.5t90 25.5q56 0 96.5 -16.5t74.5 -35.5l64 -36t64 -15q40 0 64.5 9.5t38.5 26.5q16 19 26.5 41t25.5 57z" />
    <glyph glyph-name="utilde" unicode="&#x169;" horiz-adv-x="1017" 
d="M1046 925q-45 -8 -85.5 -32.5t-69.5 -86.5l-122 -279.5l-131 -305.5q-20 -46 -42.5 -109l-41.5 -121h-78l-175 428.5l-166 396.5q-20 46 -64.5 71.5t-89.5 32.5v66h456v-70q-30 -1 -75 -12.5t-45 -31.5q0 -3 5 -15.5t10 -28.5l116 -285l122 -295l90.5 214l117.5 286
l19 50.5t9 47.5q0 17 -16.5 30.5t-39.5 23.5t-45 15t-36 7v64h377v-61zM957 1467q-10 -38 -30 -78t-55 -79q-36 -39 -75.5 -62.5t-94.5 -23.5q-57 0 -100 16.5t-74 34.5q-35 20 -66.5 36t-69.5 16q-31 0 -46.5 -8t-32.5 -27q-16 -18 -32 -47.5l-30 -53.5l-58 25q10 32 34 77
t52 79q30 36 73 61.5t90 25.5q56 0 96.5 -16.5t74.5 -35.5l64 -36t64 -15q40 0 64.5 9.5t38.5 26.5q16 19 26.5 41t25.5 57z" />
    <glyph glyph-name="Umacron" unicode="&#x16a;" horiz-adv-x="1365" 
d="M1407 1348q-26 -1 -63 -11.5t-61 -25.5q-34 -21 -54.5 -54t-40.5 -78l-201 -495.5l-276 -701.5h-83l-278 746l-182 485q-12 31 -32 54.5t-53 44.5q-27 17 -60 25.5t-61 10.5v71h587v-71q-75 -4 -126.5 -15t-51.5 -39q0 -11 4 -26t7 -24l120 -319.5l236 -630.5l175 437
t133 346q33 91 38.5 126t5.5 57q0 23 -20.5 38.5t-54.5 26.5q-33 10 -67 15t-69 8v71h528v-71zM1154 1657h-686v128h686v-128z" />
    <glyph glyph-name="umacron" unicode="&#x16b;" horiz-adv-x="1017" 
d="M1046 925q-45 -8 -85.5 -32.5t-69.5 -86.5l-122 -279.5l-131 -305.5q-20 -46 -42.5 -109l-41.5 -121h-78l-175 428.5l-166 396.5q-20 46 -64.5 71.5t-89.5 32.5v66h456v-70q-30 -1 -75 -12.5t-45 -31.5q0 -3 5 -15.5t10 -28.5l116 -285l122 -295l90.5 214l117.5 286
l19 50.5t9 47.5q0 17 -16.5 30.5t-39.5 23.5t-45 15t-36 7v64h377v-61zM912 1291h-686v128h686v-128z" />
    <glyph glyph-name="Ubreve" unicode="&#x16c;" horiz-adv-x="1365" 
d="M1407 1348q-26 -1 -63 -11.5t-61 -25.5q-34 -21 -54.5 -54t-40.5 -78l-201 -495.5l-276 -701.5h-83l-278 746l-182 485q-12 31 -32 54.5t-53 44.5q-27 17 -60 25.5t-61 10.5v71h587v-71q-75 -4 -126.5 -15t-51.5 -39q0 -11 4 -26t7 -24l120 -319.5l236 -630.5l175 437
t133 346q33 91 38.5 126t5.5 57q0 23 -20.5 38.5t-54.5 26.5q-33 10 -67 15t-69 8v71h528v-71zM1136 1851q-27 -161 -105 -241t-213 -80q-132 0 -212.5 81.5t-105.5 239.5l55 16q29 -92 89 -140.5t174 -48.5t174 48.5t89 140.5z" />
    <glyph glyph-name="ubreve" unicode="&#x16d;" horiz-adv-x="1017" 
d="M1046 925q-45 -8 -85.5 -32.5t-69.5 -86.5l-122 -279.5l-131 -305.5q-20 -46 -42.5 -109l-41.5 -121h-78l-175 428.5l-166 396.5q-20 46 -64.5 71.5t-89.5 32.5v66h456v-70q-30 -1 -75 -12.5t-45 -31.5q0 -3 5 -15.5t10 -28.5l116 -285l122 -295l90.5 214l117.5 286
l19 50.5t9 47.5q0 17 -16.5 30.5t-39.5 23.5t-45 15t-36 7v64h377v-61zM862 1495q-28 -189 -105.5 -278.5t-207.5 -89.5q-132 0 -210 94.5t-103 273.5l55 12q14 -47 34 -90t47 -73q31 -32 70.5 -49.5t106.5 -17.5q61 0 103.5 17t71.5 48t48.5 73t34.5 92z" />
    <glyph glyph-name="Uring" unicode="&#x16e;" horiz-adv-x="1365" 
d="M1407 1348q-26 -1 -63 -11.5t-61 -25.5q-34 -21 -54.5 -54t-40.5 -78l-201 -495.5l-276 -701.5h-83l-278 746l-182 485q-12 31 -32 54.5t-53 44.5q-27 17 -60 25.5t-61 10.5v71h587v-71q-75 -4 -126.5 -15t-51.5 -39q0 -11 4 -26t7 -24l120 -319.5l236 -630.5l175 437
t133 346q33 91 38.5 126t5.5 57q0 23 -20.5 38.5t-54.5 26.5q-33 10 -67 15t-69 8v71h528v-71zM1066 1642q0 -98 -71 -160.5t-187 -62.5q-117 0 -187.5 61t-70.5 162q0 98 75 160t183 62q112 0 185 -60.5t73 -161.5zM940 1642q0 68 -33.5 113t-98.5 45q-63 0 -97.5 -43
t-34.5 -115q0 -69 34 -114t98 -45t98 44t34 115z" />
    <glyph glyph-name="uring" unicode="&#x16f;" horiz-adv-x="1017" 
d="M1046 925q-45 -8 -85.5 -32.5t-69.5 -86.5l-122 -279.5l-131 -305.5q-20 -46 -42.5 -109l-41.5 -121h-78l-175 428.5l-166 396.5q-20 46 -64.5 71.5t-89.5 32.5v66h456v-70q-30 -1 -75 -12.5t-45 -31.5q0 -3 5 -15.5t10 -28.5l116 -285l122 -295l90.5 214l117.5 286
l19 50.5t9 47.5q0 17 -16.5 30.5t-39.5 23.5t-45 15t-36 7v64h377v-61zM824 1337q0 -98 -71 -160.5t-187 -62.5q-117 0 -187.5 61t-70.5 162q0 98 75 160t183 62q112 0 185 -60.5t73 -161.5zM698 1337q0 68 -33.5 113t-98.5 45q-63 0 -97.5 -43t-34.5 -115q0 -69 34 -114
t98 -45t98 44t34 115z" />
    <glyph glyph-name="Uhungarumlaut" unicode="&#x170;" horiz-adv-x="1365" 
d="M1407 1348q-26 -1 -63 -11.5t-61 -25.5q-34 -21 -54.5 -54t-40.5 -78l-201 -495.5l-276 -701.5h-83l-278 746l-182 485q-12 31 -32 54.5t-53 44.5q-27 17 -60 25.5t-61 10.5v71h587v-71q-75 -4 -126.5 -15t-51.5 -39q0 -11 4 -26t7 -24l120 -319.5l236 -630.5l175 437
t133 346q33 91 38.5 126t5.5 57q0 23 -20.5 38.5t-54.5 26.5q-33 10 -67 15t-69 8v71h528v-71zM818 1678l-108.5 -56.5t-192.5 -114.5l-29 36l119.5 136l94.5 113q28 34 56 54.5t54 20.5q42 0 65 -26t23 -58q0 -39 -22.5 -62.5t-59.5 -42.5zM1207 1678l-111 -56.5
t-195 -114.5l-29 36l124.5 139l94.5 110q28 34 56 54.5t54 20.5q42 0 65 -26t23 -58q0 -39 -22.5 -62.5t-59.5 -42.5z" />
    <glyph glyph-name="uhungarumlaut" unicode="&#x171;" horiz-adv-x="1017" 
d="M1046 925q-45 -8 -85.5 -32.5t-69.5 -86.5l-122 -279.5l-131 -305.5q-20 -46 -42.5 -109l-41.5 -121h-78l-175 428.5l-166 396.5q-20 46 -64.5 71.5t-89.5 32.5v66h456v-70q-30 -1 -75 -12.5t-45 -31.5q0 -3 5 -15.5t10 -28.5l116 -285l122 -295l90.5 214l117.5 286
l19 50.5t9 47.5q0 17 -16.5 30.5t-39.5 23.5t-45 15t-36 7v64h377v-61zM1026 1460q0 -38 -15.5 -61.5t-47.5 -51.5l-109.5 -93.5l-169.5 -143.5l-35 28l112 184l71 124q28 51 52 71.5t60 20.5q35 0 58.5 -24.5t23.5 -53.5zM654 1459q0 -35 -12.5 -58t-46.5 -54l-96.5 -87.5
l-168.5 -149.5l-37 28q76 128 111.5 195l58.5 113q25 51 49 71.5t61 20.5q34 0 57.5 -25t23.5 -54z" />
    <glyph glyph-name="Uogonek" unicode="&#x172;" horiz-adv-x="1549" 
d="M1051.5 -362q44.5 -11 108.5 -10v-72h-115q-128 0 -197.5 52.5t-69.5 141.5q0 57 35 113.5t114 118.5q-36 -8 -68 -11.5t-68 -3.5q-128 0 -228 33t-168 91t-101.5 130.5t-33.5 152.5v839q0 35 -11.5 58.5t-46.5 43.5q-25 14 -64 22.5t-64 10.5v71h591v-71
q-28 -1 -70.5 -9t-62.5 -15q-34 -12 -45.5 -40t-11.5 -61v-784q0 -57 12.5 -119.5t49.5 -116.5q39 -55 106 -90t184 -35q110 0 184.5 35t117.5 92q41 54 58 113t17 119v582q0 111 -16 181.5t-47 92.5q-35 25 -95.5 39t-92.5 16v71h580v-71q-28 -1 -82 -12t-88 -33
q-34 -23 -47 -95t-13 -176v-617q0 -118 -49 -205t-129 -143l-27.5 -18t-30.5 -17q-59 -48 -95 -105t-36 -144q0 -36 9.5 -63.5t35.5 -48.5q26 -22 70.5 -33z" />
    <glyph glyph-name="uogonek" unicode="&#x173;" horiz-adv-x="1178" 
d="M871 0l-63 -4l-15 14v125h-6q-24 -25 -54 -53.5t-69 -51.5q-45 -27 -87 -41t-119 -14q-131 0 -199.5 85.5t-68.5 248.5v472q0 36 -13.5 60.5t-39.5 42.5q-18 12 -45 17.5t-57 7.5v65l329 24l15 -14v-685q0 -107 48 -161t115 -54q55 0 98 17t72 40q27 21 47.5 44.5
t31.5 43.5v559q0 33 -14 58.5t-39 43.5q-18 12 -53.5 14.5t-79.5 4.5v65l358 24l15 -14v-783q0 -34 14 -58t39 -41q18 -11 43 -14.5t55 -4.5v-65l-174 -12q-45 -42 -73 -96.5t-28 -126.5q0 -36 9.5 -63.5t35.5 -48.5q26 -22 70.5 -33t108.5 -10v-72h-115q-128 0 -197.5 52.5
t-69.5 141.5q0 61 43.5 125.5t131.5 124.5z" />
    <glyph glyph-name="Wcircumflex" unicode="&#x174;" horiz-adv-x="1455" 
d="M1457 0h-664v71q82 2 132.5 15.5t50.5 41.5q0 15 -23 62t-59 105l-95 150.5l-109 165.5q-88 -116 -200 -279.5t-112 -192.5q0 -33 30.5 -48.5t134.5 -19.5v-71h-530v71q26 2 66.5 7.5t66.5 18.5q52 28 83.5 60.5t63.5 76.5l164 219.5l177 239.5l-148 215.5l-192 279.5
q-43 63 -67.5 89t-65.5 45q-24 11 -66.5 17.5t-67.5 8.5v71h657v-71q-58 -2 -120.5 -14.5t-62.5 -38.5q0 -19 25 -66.5t59 -101.5l78 -124t105 -157q113 153 195 276t82 160q0 32 -37.5 47t-126.5 19v71h529v-71q-25 -1 -65.5 -7.5t-67.5 -18.5q-52 -25 -77.5 -54t-68.5 -84
l-147.5 -193.5l-162.5 -220.5l178.5 -259l188.5 -277q31 -45 71 -85.5t65 -55.5q24 -14 64.5 -17.5t68.5 -4.5v-71zM1384 1539l-48 -32l-279 212l-275 -212l-48 32l234 284q18 22 35.5 33.5t57.5 11.5q41 0 56.5 -11t30.5 -30z" />
    <glyph glyph-name="wcircumflex" unicode="&#x175;" horiz-adv-x="1034" 
d="M1022 0h-452v66q45 5 76.5 10t31.5 26q0 9 -10 28t-20 35l-68.5 104.5l-106.5 156.5q-52 -65 -96 -126.5l-92 -130.5q-7 -10 -14.5 -25t-7.5 -24q0 -22 28.5 -36.5t85.5 -19.5v-64h-365v62q68 20 109.5 48.5t76.5 70.5l86.5 110l143.5 190l-124.5 178.5l-121.5 175.5
q-26 38 -59.5 61.5t-94.5 23.5v66h429v-66q-32 0 -63 -4t-31 -18q0 -9 6 -20t15 -24l68.5 -105l100.5 -150l81.5 112l85.5 122q4 7 8 17.5t4 20.5q0 21 -34.5 33.5t-65.5 17.5v64h364v-62q-77 -20 -120 -47.5t-73 -63.5l-78.5 -101l-127.5 -168l148 -210l115 -169
q29 -44 64.5 -69.5t97.5 -29.5v-66zM1141 1150l-48 -32l-279 273l-275 -273l-48 32l237 347q17 25 32.5 35t57.5 10q40 0 55 -10.5t29 -30.5z" />
    <glyph glyph-name="Ycircumflex" unicode="&#x176;" horiz-adv-x="1232" 
d="M1214 443l-47 -443h-1140v35l893 1305h-327q-57 0 -95.5 -2t-70.5 -8q-66 -13 -148.5 -109t-124.5 -203h-70l43 401h1063v-35l-893 -1305h337q85 0 181 12t125 41q65 62 121 152t83 159h70zM1002 1539l-48 -32l-279 212l-275 -212l-48 32l234 284q18 22 35.5 33.5
t57.5 11.5q41 0 56.5 -11t30.5 -30z" />
    <glyph glyph-name="ycircumflex" unicode="&#x177;" horiz-adv-x="909" 
d="M853 0h-798v53l558 852h-138q-87 0 -136 -3t-90 -20q-28 -11 -52.5 -63t-42.5 -136h-61v303h754v-41l-567 -864q36 -1 79 -1.5t93 -0.5q40 0 83.5 1t111.5 5q40 2 60.5 27t31.5 57q11 29 26.5 80t27.5 99h60v-348zM854 1150l-48 -32l-279 273l-275 -273l-48 32l237 347
q17 25 32.5 35t57.5 10q40 0 55 -10.5t29 -30.5z" />
    <glyph glyph-name="Ydieresis" unicode="&#x178;" horiz-adv-x="1232" 
d="M1214 443l-47 -443h-1140v35l893 1305h-327q-57 0 -95.5 -2t-70.5 -8q-66 -13 -148.5 -109t-124.5 -203h-70l43 401h1063v-35l-893 -1305h337q85 0 181 12t125 41q65 62 121 152t83 159h70zM1012 1730q0 -51 -34.5 -87t-83.5 -36t-83.5 36t-34.5 87t34.5 87t83.5 36
t83.5 -36t34.5 -87zM562 1730q0 -51 -34.5 -87t-83.5 -36t-83.5 36t-34.5 87t34.5 87t83.5 36t83.5 -36t34.5 -87z" />
    <glyph glyph-name="Zacute" unicode="&#x179;" horiz-adv-x="1374" 
d="M1421 0h-591v71q78 5 129.5 20t51.5 37q0 9 -2 22t-6 23l-118 318h-497q-28 -70 -45.5 -122l-31.5 -96q-13 -43 -18 -70t-5 -44q0 -40 63 -62t142 -26v-71h-534v71q26 2 65 11.5t64 25.5q40 27 62 56.5t43 81.5l236 600l230 593h80l473 -1224q15 -39 34 -63t53 -47
q23 -14 60 -23.5t62 -10.5v-71zM849 580l-215 550l-211 -550h426zM847 1675l-136.5 -66.5l-209.5 -101.5l-31 39l148.5 143.5l113.5 115.5q32 34 58.5 48.5t56.5 14.5q38 0 65 -23t27 -57q0 -43 -26 -68t-66 -45z" />
    <glyph glyph-name="zacute" unicode="&#x17a;" horiz-adv-x="1032" 
d="M1006 18q-47 -17 -82.5 -27.5t-80.5 -10.5q-78 0 -124.5 36.5t-59.5 106.5h-6q-65 -72 -139.5 -110t-179.5 -38q-111 0 -182.5 68t-71.5 178q0 57 16 102t48 81q25 30 66 53.5t77 37.5q45 17 182.5 63t185.5 72v99q0 13 -5.5 50t-23.5 70q-20 37 -56.5 64.5t-103.5 27.5
q-46 0 -85.5 -15.5t-55.5 -32.5q0 -20 9.5 -59t9.5 -72q0 -35 -31.5 -64t-87.5 -29q-50 0 -73.5 35.5t-23.5 79.5q0 46 32.5 88t84.5 75q45 28 109 47.5t125 19.5q84 0 146.5 -11.5t113.5 -49.5q51 -37 77.5 -100.5t26.5 -163.5q0 -143 -3 -253.5t-3 -241.5q0 -39 13.5 -62
t41.5 -39q15 -9 47.5 -10t66.5 -1v-64zM657 546q-85 -25 -149 -49t-119 -60q-50 -34 -79 -80.5t-29 -110.5q0 -83 43.5 -122t110.5 -39q71 0 125 34.5t91 81.5zM730 1460q0 -38 -17.5 -62t-51.5 -51l-130.5 -102l-173.5 -135l-38 32l125.5 187.5l76.5 120.5q31 51 60 69.5
t67 18.5q36 0 59 -24.5t23 -53.5z" />
    <glyph glyph-name="Zdotaccent" unicode="&#x17b;" horiz-adv-x="1374" 
d="M1421 0h-591v71q78 5 129.5 20t51.5 37q0 9 -2 22t-6 23l-118 318h-497q-28 -70 -45.5 -122l-31.5 -96q-13 -43 -18 -70t-5 -44q0 -40 63 -62t142 -26v-71h-534v71q26 2 65 11.5t64 25.5q40 27 62 56.5t43 81.5l236 600l230 593h80l473 -1224q15 -39 34 -63t53 -47
q23 -14 60 -23.5t62 -10.5v-71zM849 580l-215 550l-211 -550h426zM765 1738q0 -57 -37.5 -98.5t-92.5 -41.5q-51 0 -88.5 39t-37.5 92q0 55 37.5 95t88.5 40q57 0 93.5 -37.5t36.5 -88.5z" />
    <glyph glyph-name="zdotaccent" unicode="&#x17c;" horiz-adv-x="1032" 
d="M1006 18q-47 -17 -82.5 -27.5t-80.5 -10.5q-78 0 -124.5 36.5t-59.5 106.5h-6q-65 -72 -139.5 -110t-179.5 -38q-111 0 -182.5 68t-71.5 178q0 57 16 102t48 81q25 30 66 53.5t77 37.5q45 17 182.5 63t185.5 72v99q0 13 -5.5 50t-23.5 70q-20 37 -56.5 64.5t-103.5 27.5
q-46 0 -85.5 -15.5t-55.5 -32.5q0 -20 9.5 -59t9.5 -72q0 -35 -31.5 -64t-87.5 -29q-50 0 -73.5 35.5t-23.5 79.5q0 46 32.5 88t84.5 75q45 28 109 47.5t125 19.5q84 0 146.5 -11.5t113.5 -49.5q51 -37 77.5 -100.5t26.5 -163.5q0 -143 -3 -253.5t-3 -241.5q0 -39 13.5 -62
t41.5 -39q15 -9 47.5 -10t66.5 -1v-64zM657 546q-85 -25 -149 -49t-119 -60q-50 -34 -79 -80.5t-29 -110.5q0 -83 43.5 -122t110.5 -39q71 0 125 34.5t91 81.5zM594 1387q0 -57 -37.5 -98.5t-92.5 -41.5q-51 0 -88.5 39t-37.5 92q0 55 37.5 95t88.5 40q57 0 93.5 -37.5
t36.5 -88.5z" />
    <glyph glyph-name="Zcaron" unicode="&#x17d;" horiz-adv-x="1374" 
d="M1421 0h-591v71q78 5 129.5 20t51.5 37q0 9 -2 22t-6 23l-118 318h-497q-28 -70 -45.5 -122l-31.5 -96q-13 -43 -18 -70t-5 -44q0 -40 63 -62t142 -26v-71h-534v71q26 2 65 11.5t64 25.5q40 27 62 56.5t43 81.5l236 600l230 593h80l473 -1224q15 -39 34 -63t53 -47
q23 -14 60 -23.5t62 -10.5v-71zM849 580l-215 550l-211 -550h426zM953 1836l-234 -284q-21 -26 -32.5 -35.5t-60.5 -9.5q-41 0 -56.5 11t-30.5 30l-236 288l48 32l279 -214l275 214z" />
    <glyph glyph-name="zcaron" unicode="&#x17e;" horiz-adv-x="1032" 
d="M1006 18q-47 -17 -82.5 -27.5t-80.5 -10.5q-78 0 -124.5 36.5t-59.5 106.5h-6q-65 -72 -139.5 -110t-179.5 -38q-111 0 -182.5 68t-71.5 178q0 57 16 102t48 81q25 30 66 53.5t77 37.5q45 17 182.5 63t185.5 72v99q0 13 -5.5 50t-23.5 70q-20 37 -56.5 64.5t-103.5 27.5
q-46 0 -85.5 -15.5t-55.5 -32.5q0 -20 9.5 -59t9.5 -72q0 -35 -31.5 -64t-87.5 -29q-50 0 -73.5 35.5t-23.5 79.5q0 46 32.5 88t84.5 75q45 28 109 47.5t125 19.5q84 0 146.5 -11.5t113.5 -49.5q51 -37 77.5 -100.5t26.5 -163.5q0 -143 -3 -253.5t-3 -241.5q0 -39 13.5 -62
t41.5 -39q15 -9 47.5 -10t66.5 -1v-64zM657 546q-85 -25 -149 -49t-119 -60q-50 -34 -79 -80.5t-29 -110.5q0 -83 43.5 -122t110.5 -39q71 0 125 34.5t91 81.5zM782 1510l-239 -351q-17 -22 -29 -31.5t-55 -9.5q-45 0 -59.5 11t-30.5 34l-237 347l48 32l275 -273l279 273z
" />
    <glyph glyph-name="longs" unicode="&#x17f;" horiz-adv-x="613" 
d="M785 1429q0 -45 -24 -76t-73 -31q-31 0 -54.5 13t-43.5 35t-37 50t-29 45q-67 -3 -103.5 -98.5t-36.5 -293.5v-895q0 -35 13.5 -57t42.5 -33q24 -9 62 -14.5t63 -7.5v-66h-512v66l47.5 4t42.5 8q28 9 41.5 31.5t13.5 58.5v883q0 219 117.5 358.5t290.5 139.5
q89 0 134 -35t45 -85z" />
    <glyph glyph-name="florin" unicode="&#x192;" horiz-adv-x="1063" 
d="M1054 1164q0 -48 -24.5 -76.5t-72.5 -28.5t-89.5 41t-83.5 134q-83 -13 -134 -104.5t-74 -290.5l-14 -121h257v-96h-266q-10 -105 -21 -206t-26 -197q-28 -179 -76 -288.5t-114 -177.5q-60 -60 -134 -91t-156 -31q-96 0 -149 40.5t-53 99.5q0 45 25 75t72 30t88.5 -39
t84.5 -134q81 11 129.5 109t76.5 286q23 158 37 286t25 238h-204v96h213q19 168 64 277t125 192q58 60 131 89.5t161 29.5q94 0 148 -41t54 -101z" />
    <glyph glyph-name="Aringacute" unicode="&#x1fa;" horiz-adv-x="1374" 
d="M1421 0h-591v71q78 5 129.5 20t51.5 37q0 9 -2 22t-6 23l-132 318h-470l-52.5 -124t-37.5 -98q-13 -41 -18 -67t-5 -43q0 -40 63 -62t142 -26v-71h-534v71q26 2 65.5 11.5t63.5 25.5q40 27 63 57t45 81l211 496.5l203 482.5q-69 17 -120 68t-51 138q0 57 30.5 103.5
t81.5 74.5l126 102.5l122 103.5q31 27 57 40t50 13q45 0 71 -23.5t26 -57.5q0 -44 -26.5 -69t-76.5 -43q-30 -10 -56.5 -20.5t-60.5 -22.5q77 -20 124.5 -74.5t47.5 -126.5q0 -84 -50 -136t-119 -68l425 -1012q17 -40 35.5 -63.5t52.5 -46.5q22 -15 59.5 -24t62.5 -10v-71z
M834 580l-197 467l-198 -467h395zM829 1431q0 61 -33.5 104.5t-98.5 43.5q-63 0 -97.5 -41.5t-34.5 -106.5q0 -62 34 -106.5t98 -44.5t98 44t34 107z" />
    <glyph glyph-name="aringacute" unicode="&#x1fb;" horiz-adv-x="1032" 
d="M1006 18q-47 -17 -82.5 -27.5t-80.5 -10.5q-78 0 -124.5 36.5t-59.5 106.5h-6q-65 -72 -139.5 -110t-179.5 -38q-111 0 -182.5 68t-71.5 178q0 57 16 102t48 81q25 30 66 53.5t77 37.5q45 17 182.5 63t185.5 72v99q0 13 -5.5 50t-23.5 70q-20 37 -56.5 64.5t-103.5 27.5
q-46 0 -85.5 -15.5t-55.5 -32.5q0 -20 9.5 -59t9.5 -72q0 -35 -31.5 -64t-87.5 -29q-50 0 -73.5 35.5t-23.5 79.5q0 46 32.5 88t84.5 75q30 18 66.5 32.5t77.5 24.5q-73 23 -113.5 77t-40.5 131q0 98 75 160t183 62q112 0 185 -60.5t73 -161.5q0 -70 -41.5 -127t-109.5 -79
q29 -3 68.5 -16.5t70.5 -36.5q51 -37 77.5 -100.5t26.5 -163.5q0 -143 -3 -253.5t-3 -241.5q0 -39 13.5 -62t41.5 -39q15 -9 47.5 -10t66.5 -1v-64zM657 546q-85 -25 -149 -49t-119 -60q-50 -34 -79 -80.5t-29 -110.5q0 -83 43.5 -122t110.5 -39q71 0 125 34.5t91 81.5z
M625 1212q0 68 -33.5 113t-98.5 45q-63 0 -97.5 -43t-34.5 -115q0 -69 34 -114t98 -45t98 44t34 115zM767 1763q0 -43 -25.5 -68t-66.5 -45l-136.5 -66.5l-209.5 -101.5l-31 39l148.5 143.5l113.5 115.5q31 34 58 48.5t57 14.5q38 0 65 -23t27 -57z" />
    <glyph glyph-name="AEacute" unicode="&#x1fc;" horiz-adv-x="1988" 
d="M1941 418l-27 -418h-1168v71q24 2 74.5 7.5t70.5 14.5q32 15 44.5 39t12.5 61v409h-480q-43 -71 -80.5 -139.5t-98.5 -192.5q-13 -25 -22 -51t-9 -49q0 -45 42.5 -69.5t125.5 -29.5v-71h-523v71q28 2 66.5 13t63.5 25q35 20 65.5 55.5t55.5 79.5l303 529l309 553
q-25 9 -77 14.5t-93 7.5v71h1238v-342h-75q-19 76 -86 161.5t-127 93.5q-31 4 -74 6t-98 2h-213v-564h150q76 0 112.5 14.5t62.5 48.5q22 29 37.5 77.5t20.5 91.5h75v-555h-75q-4 48 -21.5 101.5t-36.5 77.5q-31 39 -70 51t-105 12h-150v-426q0 -64 9 -101t35 -56
q27 -19 71.5 -24.5t127.5 -5.5h85.5t87.5 4q41 5 77.5 14.5t53.5 28.5q46 48 96.5 145.5t64.5 143.5h72zM948 690v641h-77l-354 -641h431zM1423 1675l-136.5 -66.5l-209.5 -101.5l-31 39l148.5 143.5l113.5 115.5q32 34 58.5 48.5t56.5 14.5q38 0 65 -23t27 -57
q0 -43 -26 -68t-66 -45z" />
    <glyph glyph-name="aeacute" unicode="&#x1fd;" horiz-adv-x="1509" 
d="M1468 233q-58 -123 -159.5 -191t-224.5 -68q-127 0 -215 45.5t-157 142.5h-6q-77 -100 -163.5 -144t-203.5 -44q-113 0 -185.5 66.5t-72.5 179.5q0 61 17 107.5t46 81.5q28 33 64.5 55t74.5 38q138 55 214 77l145 43v107q0 14 -5.5 49t-23.5 72q-18 36 -52.5 63.5
t-92.5 27.5q-50 0 -89.5 -15.5t-55.5 -32.5q0 -20 9.5 -59t9.5 -72q0 -35 -31.5 -64t-87.5 -29q-50 0 -73.5 35.5t-23.5 79.5q0 48 32 88.5t83 73.5q46 30 111.5 49t119.5 19q100 0 181 -25t130 -96q51 53 125.5 87t154.5 34q104 0 176 -33.5t116 -88.5q46 -56 67 -128.5
t21 -156.5v-58h-618q0 -228 74.5 -346.5t231.5 -118.5q104 0 164 51.5t103 140.5zM1246 631q0 40 -8 102t-25 100q-21 46 -59.5 76t-102.5 30q-100 0 -162.5 -90.5t-63.5 -217.5h421zM644 194v343q-80 -16 -141 -37t-115 -58q-51 -35 -79 -83t-28 -111q0 -83 39.5 -122.5
t104.5 -39.5q76 0 130 32.5t89 75.5zM1080 1460q0 -38 -17.5 -62t-51.5 -51l-130.5 -102l-173.5 -135l-38 32l125.5 187.5l76.5 120.5q31 51 60 69.5t67 18.5q36 0 59 -24.5t23 -53.5z" />
    <glyph glyph-name="Oslashacute" unicode="&#x1fe;" horiz-adv-x="1524" 
d="M1444 708q0 -171 -55.5 -309.5t-148.5 -233.5q-93 -96 -216 -148t-262 -52q-128 0 -238 43t-195 117l-174 -210l-64 50l181 215q-90 99 -141 235.5t-51 292.5q0 173 54 308.5t149 234.5q94 99 219 151t260 52q122 0 232.5 -41.5t200.5 -119.5l151 183l65 -52l-158 -188
q88 -98 139.5 -230.5t51.5 -297.5zM1098 1176q-58 93 -142 141t-194 48q-119 0 -203 -53.5t-140 -149.5q-50 -86 -75 -205.5t-25 -248.5q0 -116 16.5 -216t49.5 -177zM1098 244q55 92 81 207t26 257q0 114 -16 214.5t-49 179.5l-714 -859q54 -88 138.5 -138.5t197.5 -50.5
q109 0 194 48.5t142 141.5zM913 1675l-136.5 -66.5l-209.5 -101.5l-31 39l148.5 143.5l113.5 115.5q32 34 58.5 48.5t56.5 14.5q38 0 65 -23t27 -57q0 -43 -26 -68t-66 -45z" />
    <glyph glyph-name="oslashacute" unicode="&#x1ff;" horiz-adv-x="1104" 
d="M1033 503q0 -104 -33 -204.5t-94 -170.5q-69 -80 -160 -119t-204 -39q-79 0 -152 27t-135 78l-83 -102t-43 -54l-58 43l133 163q-61 68 -97.5 158.5t-36.5 205.5q0 231 134.5 378t352.5 147q88 0 159 -25t130 -72l111 141l58 -44l-118 -145q64 -69 100 -162.5t36 -203.5z
M763 815q-33 58 -81.5 90.5t-126.5 32.5q-81 0 -135.5 -39.5t-87.5 -102.5q-32 -61 -45.5 -139t-13.5 -151q0 -69 8.5 -136t25.5 -122zM763 180q35 67 51 144t16 177q0 63 -8 128t-26 119l-456 -569q34 -62 85 -97.5t130 -35.5q70 0 122.5 36.5t85.5 97.5zM743 1460
q0 -38 -17.5 -62t-51.5 -51l-130.5 -102l-173.5 -135l-38 32l125.5 187.5l76.5 120.5q31 51 60 69.5t67 18.5q36 0 59 -24.5t23 -53.5z" />
    <glyph glyph-name="circumflex" unicode="&#x2c6;" 
d="M837 1150l-48 -32l-279 273l-275 -273l-48 32l237 347q17 25 32.5 35t57.5 10q40 0 55 -10.5t29 -30.5z" />
    <glyph glyph-name="caron" unicode="&#x2c7;" 
d="M837 1510l-239 -351q-17 -22 -29 -31.5t-55 -9.5q-45 0 -59.5 11t-30.5 34l-237 347l48 32l275 -273l279 273z" />
    <glyph glyph-name="macron" unicode="&#x2c9;" 
d="M855 1291h-686v128h686v-128z" />
    <glyph glyph-name="breve" unicode="&#x2d8;" 
d="M825 1495q-28 -189 -105.5 -278.5t-207.5 -89.5q-132 0 -210 94.5t-103 273.5l55 12q14 -47 34 -90t47 -73q31 -32 70.5 -49.5t106.5 -17.5q61 0 103.5 17t71.5 48t48.5 73t34.5 92z" />
    <glyph glyph-name="dotaccent" unicode="&#x2d9;" 
d="M640 1387q0 -57 -37.5 -98.5t-92.5 -41.5q-51 0 -88.5 39t-37.5 92q0 55 37.5 95t88.5 40q57 0 93.5 -37.5t36.5 -88.5z" />
    <glyph glyph-name="ring" unicode="&#x2da;" 
d="M770 1337q0 -98 -71 -160.5t-187 -62.5q-117 0 -187.5 61t-70.5 162q0 98 75 160t183 62q112 0 185 -60.5t73 -161.5zM644 1337q0 68 -33.5 113t-98.5 45q-63 0 -97.5 -43t-34.5 -115q0 -69 34 -114t98 -45t98 44t34 115z" />
    <glyph glyph-name="ogonek" unicode="&#x2db;" 
d="M688 -444h-115q-128 0 -197.5 52.5t-69.5 141.5q0 72 57.5 145.5t178.5 143.5h61q-60 -47 -99.5 -108t-39.5 -148q0 -36 9.5 -63.5t35.5 -48.5q26 -22 70.5 -33t108.5 -10v-72z" />
    <glyph glyph-name="tilde" unicode="&#x2dc;" 
d="M894 1467q-10 -38 -30 -78t-55 -79q-36 -39 -75.5 -62.5t-94.5 -23.5q-57 0 -100 16.5t-74 34.5q-35 20 -66.5 36t-69.5 16q-31 0 -46.5 -8t-32.5 -27q-16 -18 -32 -47.5l-30 -53.5l-58 25q10 32 34 77t52 79q30 36 73 61.5t90 25.5q56 0 96.5 -16.5t74.5 -35.5l64 -36
t64 -15q40 0 64.5 9.5t38.5 26.5q16 19 26.5 41t25.5 57z" />
    <glyph glyph-name="hungarumlaut" unicode="&#x2dd;" 
d="M926 1460q0 -38 -15.5 -61.5t-47.5 -51.5l-109.5 -93.5l-169.5 -143.5l-35 28l112 184l71 124q28 51 52 71.5t60 20.5q35 0 58.5 -24.5t23.5 -53.5zM554 1459q0 -35 -12.5 -58t-46.5 -54l-96.5 -87.5l-168.5 -149.5l-37 28q76 128 111.5 195l58.5 113q25 51 49 71.5
t61 20.5q34 0 57.5 -25t23.5 -54z" />
    <glyph glyph-name="tonos" unicode="&#x384;" 
d="M653 1538q-22 -60 -53.5 -163.5t-58.5 -235.5h-59q-27 134 -60 240.5t-52 158.5v20h283v-20z" />
    <glyph glyph-name="dieresistonos" unicode="&#x385;" 
d="M643 1608q-24 -67 -48 -159t-54 -240h-59q-28 139 -55 242t-47 157v20h263v-20zM903 1354q0 -51 -33.5 -87t-82.5 -36t-82.5 36t-33.5 87t33.5 87t82.5 36t82.5 -36t33.5 -87zM353 1354q0 -51 -33.5 -87t-82.5 -36t-82.5 36t-33.5 87t33.5 87t82.5 36t82.5 -36t33.5 -87z
" />
    <glyph glyph-name="Alphatonos" unicode="&#x386;" horiz-adv-x="1384" 
d="M1301 418l-27 -418h-1178v71q30 2 80 8.5t65 13.5q32 15 44.5 39t12.5 61v1020q0 33 -11 58.5t-46 41.5q-27 13 -72.5 23t-72.5 12v71h1098v-342h-75q-20 76 -86.5 161.5t-126.5 93.5q-31 4 -74 6t-98 2h-223v-564h160q77 0 112.5 14.5t62.5 48.5q22 29 37.5 77.5
t20.5 91.5h75v-555h-75q-4 48 -21.5 101.5t-36.5 77.5q-31 39 -70.5 51t-104.5 12h-160v-426q0 -64 9 -101t35 -56t71 -24.5t128 -5.5h87q54 0 91 4q38 4 78.5 14.5t57.5 28.5q46 48 96.5 145.5t64.5 143.5h72zM313 1469q-22 -60 -53.5 -163.5t-58.5 -235.5h-59
q-27 134 -60 240.5t-52 158.5v20h283v-20z" />
    <glyph glyph-name="anoteleia" unicode="&#x387;" horiz-adv-x="640" 
d="M457 853q0 -56 -40.5 -96t-96.5 -40t-96.5 40t-40.5 96t40 96.5t97 40.5t97 -40.5t40 -96.5z" />
    <glyph glyph-name="Epsilontonos" unicode="&#x388;" horiz-adv-x="1635" 
d="M1401 661q62 -42 103 -110t41 -165q0 -99 -43 -172t-112 -120q-67 -46 -151.5 -70t-174.5 -24h-672v71q24 2 70 8.5t66 15.5q31 14 44 37.5t13 60.5v1020q0 34 -11.5 60t-45.5 42q-30 15 -67 23t-62 10v71h655q76 0 145.5 -15t132.5 -53q59 -35 97 -95t38 -146
q0 -75 -27 -133.5t-76 -100.5q-46 -40 -105.5 -67.5t-128.5 -42.5v-9q61 -7 136.5 -30.5t134.5 -65.5zM1160 875q37 43 51.5 94t14.5 121q0 117 -64 183.5t-202 66.5q-32 0 -80.5 -1.5l-81.5 -2.5v-545h127q82 0 140.5 21t94.5 63zM1298 422q0 126 -84.5 207t-241.5 81
q-64 0 -108 -1.5t-66 -2.5v-500q0 -63 51 -95t142 -32q149 0 228 87t79 256zM283 1469q-22 -60 -53.5 -163.5t-58.5 -235.5h-59q-27 134 -60 240.5t-52 158.5v20h283v-20z" />
    <glyph glyph-name="Etatonos" unicode="&#x389;" horiz-adv-x="1966" 
d="M1772 0h-398q-115 178 -255.5 353.5t-294.5 340.5h-26v-494q0 -33 12.5 -59t45.5 -42q16 -7 59.5 -17t72.5 -11v-71h-589v71l67 6t62 12q30 13 43.5 38.5t13.5 61.5v1024q0 34 -11.5 59t-45.5 41q-27 13 -64 23t-65 12v71h589v-71q-28 -1 -70 -9t-62 -15q-34 -12 -46 -40
t-12 -61v-490h20q90 76 177 158.5t158 164.5q79 91 115.5 145.5t36.5 96.5q0 15 -18.5 24.5t-42.5 15.5q-28 6 -50 7.5l-36 2.5v71h532v-71q-3 0 -13 -1t-23 -2q-14 -1 -28 -4t-36 -7q-35 -8 -72.5 -25.5t-61.5 -43.5l-215 -242t-222 -228q152 -172 251.5 -296l211.5 -265
q43 -54 86 -86.5t74 -48.5q26 -13 65 -20t65 -8v-71zM283 1469q-22 -60 -53.5 -163.5t-58.5 -235.5h-59q-27 134 -60 240.5t-52 158.5v20h283v-20z" />
    <glyph glyph-name="Iotatonos" unicode="&#x38a;" horiz-adv-x="1091" 
d="M1530 422l-30 -422h-1109v71q24 2 69.5 7t63.5 13q30 13 43.5 38t13.5 64v1016q0 34 -11.5 60t-45.5 42q-23 12 -64.5 23.5t-68.5 13.5v71h599v-71q-28 -1 -72.5 -10t-64.5 -16q-34 -12 -46.5 -41t-12.5 -62v-953q0 -66 6.5 -102.5t30.5 -56.5q23 -18 68.5 -23.5
t127.5 -5.5q37 0 77 2t76 8q35 6 64.5 16.5t43.5 26.5q41 46 95.5 139.5t75.5 151.5h71zM283 1469q-22 -60 -53.5 -163.5t-58.5 -235.5h-59q-27 134 -60 240.5t-52 158.5v20h283v-20z" />
    <glyph glyph-name="Omicrontonos" unicode="&#x38c;" horiz-adv-x="1744" 
d="M1700 0h-382q-127 199 -229.5 344t-222.5 299h-145v-450q0 -35 11 -61.5t47 -40.5q18 -7 63 -13t76 -7v-71h-600v71q24 2 69.5 7t63.5 13q30 13 43.5 38t13.5 64v1026q0 35 -10 62t-47 41q-25 9 -65 16.5t-68 9.5v71h655q90 0 169 -18.5t143 -59.5q62 -40 99 -104.5
t37 -155.5q0 -82 -25 -145t-74 -109q-45 -43 -108 -74.5t-139 -53.5l174.5 -234l170.5 -231q44 -60 79.5 -88.5t70.5 -46.5q26 -13 65 -20t65 -8v-71zM1174 1058q0 129 -74 204.5t-209 75.5h-170v-609h131q138 0 230 88.5t92 240.5zM283 1469q-22 -60 -53.5 -163.5
t-58.5 -235.5h-59q-27 134 -60 240.5t-52 158.5v20h283v-20z" />
    <glyph glyph-name="Upsilontonos" unicode="&#x38e;" horiz-adv-x="1640" 
d="M1594 443l-47 -443h-1140v35l893 1305h-327q-57 0 -95.5 -2t-70.5 -8q-66 -13 -148.5 -109t-124.5 -203h-70l43 401h1063v-35l-893 -1305h337q85 0 181 12t125 41q65 62 121 152t83 159h70zM283 1469q-22 -60 -53.5 -163.5t-58.5 -235.5h-59q-27 134 -60 240.5t-52 158.5
v20h283v-20z" />
    <glyph glyph-name="Omegatonos" unicode="&#x38f;" horiz-adv-x="1795" 
d="M1766 388l-69 -388h-590v68l120.5 175t96.5 167q42 89 63 171t21 200q0 83 -17.5 192.5t-58.5 189.5q-56 106 -140 153.5t-193 47.5t-194 -50t-137 -152q-41 -79 -59 -181.5t-18 -199.5q0 -110 22 -199.5t63 -173.5q39 -83 99.5 -172l116.5 -168v-68h-593l-69 388h69
l29.5 -71.5t36.5 -67.5q21 -33 47 -53t66 -20h230v33l-140 163.5t-116 157.5q-47 76 -74.5 167.5t-27.5 195.5q0 115 47 213.5t135 178.5q84 76 205.5 122t261.5 46q146 0 266.5 -46.5t205.5 -123.5q85 -78 131.5 -178.5t46.5 -211.5q0 -104 -26 -193.5t-75 -170.5
q-50 -81 -119.5 -163l-137.5 -157v-33h227q37 0 65 20.5t48 52.5q23 36 37 69l29 70h69zM283 1469q-22 -60 -53.5 -163.5t-58.5 -235.5h-59q-27 134 -60 240.5t-52 158.5v20h283v-20z" />
    <glyph glyph-name="iotadieresistonos" unicode="&#x390;" horiz-adv-x="605" 
d="M598 17q-47 -16 -91.5 -27t-114.5 -11q-92 0 -140.5 56t-48.5 160l2 584q0 33 -13.5 59t-38.5 44q-19 12 -55 19.5t-66 9.5v65l344 22l14 -14v-775q0 -64 38.5 -97.5t104.5 -33.5q15 0 32 1l33 2v-64zM402 1608q-24 -67 -48 -159t-54 -240h-59q-28 139 -55 242t-47 157
v20h263v-20zM652 1354q0 -51 -33.5 -87t-82.5 -36t-82.5 36t-33.5 87t33.5 87t82.5 36t82.5 -36t33.5 -87zM122 1354q0 -51 -33.5 -87t-82.5 -36t-82.5 36t-33.5 87t33.5 87t82.5 36t82.5 -36t33.5 -87z" />
    <glyph glyph-name="Alpha" unicode="&#x391;" horiz-adv-x="1338" 
d="M1291 418l-27 -418h-1178v71q30 2 80 8.5t65 13.5q32 15 44.5 39t12.5 61v1020q0 33 -11 58.5t-46 41.5q-27 13 -72.5 23t-72.5 12v71h1098v-342h-75q-20 76 -86.5 161.5t-126.5 93.5q-31 4 -74 6t-98 2h-223v-564h160q77 0 112.5 14.5t62.5 48.5q22 29 37.5 77.5
t20.5 91.5h75v-555h-75q-4 48 -21.5 101.5t-36.5 77.5q-31 39 -70.5 51t-104.5 12h-160v-426q0 -64 9 -101t35 -56t71 -24.5t128 -5.5h87q54 0 91 4q38 4 78.5 14.5t57.5 28.5q46 48 96.5 145.5t64.5 143.5h72z" />
    <glyph glyph-name="Beta" unicode="&#x392;" horiz-adv-x="1315" 
d="M723 -33q-127 0 -243.5 50t-206.5 144q-89 94 -142 229.5t-53 305.5t52 308.5t144 238.5q91 99 215 153t265 54q105 0 190 -26t162 -73l41 68h80l9 -506h-82q-16 74 -48 160.5t-75 146.5q-48 68 -114 106.5t-151 38.5q-97 0 -180.5 -43t-144.5 -127q-58 -81 -91 -206
t-33 -279q0 -136 34.5 -249.5t98.5 -199.5q64 -85 151.5 -133t195.5 -48q81 0 149 25.5t118 67.5q50 44 88 100t62 122l75 -36q-86 -211 -228 -301.5t-338 -90.5z" />
    <glyph glyph-name="Gamma" unicode="&#x393;" horiz-adv-x="1195" 
d="M1179 1022h-75q-10 39 -27 83t-51 100q-32 52 -65.5 86t-77.5 40q-34 5 -83.5 7t-94.5 2h-204v-1138q0 -34 16 -59.5t48 -41.5q20 -9 72.5 -19t85.5 -11v-71h-637v71q30 2 80 6.5t65 11.5q30 13 43.5 38.5t13.5 61.5v1024q0 33 -11 58.5t-46 41.5q-27 13 -72.5 23
t-72.5 12v71h1093v-397z" />
    <glyph glyph-name="Delta" unicode="&#x394;" horiz-adv-x="1353" 
d="M1334 0h-1315v50l640 1389h78l597 -1389v-50zM1052 172l-424 992l-451 -992h875z" />
    <glyph glyph-name="Epsilon" unicode="&#x395;" horiz-adv-x="1339" 
d="M1104 661q62 -42 103 -110t41 -165q0 -99 -43 -172t-112 -120q-67 -46 -151.5 -70t-174.5 -24h-672v71q24 2 70 8.5t66 15.5q31 14 44 37.5t13 60.5v1020q0 34 -11.5 60t-45.5 42q-30 15 -67 23t-62 10v71h655q76 0 145.5 -15t132.5 -53q59 -35 97 -95t38 -146
q0 -75 -27 -133.5t-76 -100.5q-46 -40 -105.5 -67.5t-128.5 -42.5v-9q61 -7 136.5 -30.5t134.5 -65.5zM863 875q37 43 51.5 94t14.5 121q0 117 -64 183.5t-202 66.5q-32 0 -80.5 -1.5l-81.5 -2.5v-545h127q82 0 140.5 21t94.5 63zM1001 422q0 126 -84.5 207t-241.5 81
q-64 0 -108 -1.5t-66 -2.5v-500q0 -63 51 -95t142 -32q149 0 228 87t79 256z" />
    <glyph glyph-name="Zeta" unicode="&#x396;" horiz-adv-x="1374" 
d="M1421 0h-591v71q78 5 129.5 20t51.5 37q0 9 -2 22t-6 23l-118 318h-497q-28 -70 -45.5 -122l-31.5 -96q-13 -43 -18 -70t-5 -44q0 -40 63 -62t142 -26v-71h-534v71q26 2 65 11.5t64 25.5q40 27 62 56.5t43 81.5l236 600l230 593h80l473 -1224q15 -39 34 -63t53 -47
q23 -14 60 -23.5t62 -10.5v-71zM849 580l-215 550l-211 -550h426z" />
    <glyph glyph-name="Eta" unicode="&#x397;" horiz-adv-x="1422" 
d="M1475 0h-398q-115 178 -255.5 353.5t-294.5 340.5h-26v-494q0 -33 12.5 -59t45.5 -42q16 -7 59.5 -17t72.5 -11v-71h-589v71l67 6t62 12q30 13 43.5 38.5t13.5 61.5v1024q0 34 -11.5 59t-45.5 41q-27 13 -64 23t-65 12v71h589v-71q-28 -1 -70 -9t-62 -15q-34 -12 -46 -40
t-12 -61v-490h20q90 76 177 158.5t158 164.5q79 91 115.5 145.5t36.5 96.5q0 15 -18.5 24.5t-42.5 15.5q-28 6 -50 7.5l-36 2.5v71h532v-71q-3 0 -13 -1t-23 -2q-14 -1 -28 -4t-36 -7q-35 -8 -72.5 -25.5t-61.5 -43.5l-215 -242t-222 -228q152 -172 251.5 -296l211.5 -265
q43 -54 86 -86.5t74 -48.5q26 -13 65 -20t65 -8v-71z" />
    <glyph glyph-name="Theta" unicode="&#x398;" horiz-adv-x="1524" 
d="M1244 1251q94 -98 147 -236.5t53 -306.5q0 -169 -54 -307t-150 -235q-93 -96 -216 -148t-262 -52q-148 0 -273.5 55.5t-215.5 154.5q-90 97 -141.5 235.5t-51.5 296.5q0 173 54 308.5t149 234.5q94 98 218.5 150t260.5 52q141 0 266 -53t216 -149zM1097 244q56 91 82 206
t26 258q0 145 -29 268.5t-85 207.5q-56 86 -138.5 133t-190.5 47q-120 0 -204.5 -55t-137.5 -147q-52 -89 -76.5 -207t-24.5 -247q0 -147 28 -264.5t81 -201.5q55 -88 137.5 -137.5t196.5 -49.5q111 0 196.5 51t138.5 138zM1046 481h-66q-8 43 -18 72.5t-23 48.5
q-11 18 -53 24.5t-124 6.5q-104 0 -135 -7.5t-42 -23.5q-16 -23 -25 -53.5t-16 -67.5h-66v455h66q7 -40 16.5 -68t24.5 -51q11 -18 45.5 -24.5t131.5 -6.5q90 0 128 6.5t49 24.5q18 28 26.5 57t14.5 62h66v-455z" />
    <glyph glyph-name="Iota" unicode="&#x399;" horiz-adv-x="1236" 
d="M1237 422l-30 -422h-1109v71q24 2 69.5 7t63.5 13q30 13 43.5 38t13.5 64v1016q0 34 -11.5 60t-45.5 42q-23 12 -64.5 23.5t-68.5 13.5v71h599v-71q-28 -1 -72.5 -10t-64.5 -16q-34 -12 -46.5 -41t-12.5 -62v-953q0 -66 6.5 -102.5t30.5 -56.5q23 -18 68.5 -23.5
t127.5 -5.5q37 0 77 2t76 8q35 6 64.5 16.5t43.5 26.5q41 46 95.5 139.5t75.5 151.5h71z" />
    <glyph glyph-name="Kappa" unicode="&#x39a;" horiz-adv-x="1571" 
d="M1554 1348q-28 -1 -86 -16t-83 -31q-36 -25 -48.5 -96t-12.5 -180v-1039h-87l-860 1161v-732q0 -123 15.5 -189t47.5 -94q23 -22 95 -41t95 -20v-71h-582v71q27 2 91 19.5t80 31.5q35 28 48 85.5t13 196.5v699q0 46 -16 92t-43 71q-36 33 -97.5 56.5t-99.5 25.5v71h405
l798 -1082v675q0 124 -16 190.5t-46 88.5q-28 19 -91.5 37t-96.5 20v71h577v-71z" />
    <glyph glyph-name="Lambda" unicode="&#x39b;" horiz-adv-x="1380" 
d="M1427 0h-591v71q88 7 134 22t46 35q0 9 -2 22t-6 23l-372 956l-192.5 -499t-132.5 -357q-13 -40 -18 -68t-5 -46q0 -37 55.5 -59t149.5 -29v-71h-534v71q26 2 65 11.5t64 25.5q40 27 62 56.5t43 81.5l242 611.5l227 581.5h80l476 -1224q15 -38 34 -62.5t53 -47.5
q23 -14 60 -23.5t62 -10.5v-71z" />
    <glyph glyph-name="Mu" unicode="&#x39c;" horiz-adv-x="1249" 
d="M1184 1069q0 -111 -43.5 -196.5t-120.5 -141.5q-76 -56 -167 -82t-193 -26h-159v-430q0 -35 11.5 -61.5t47.5 -40.5q18 -7 63.5 -13t83.5 -7v-71h-609v71q24 2 69.5 7t63.5 13q30 13 43.5 38t13.5 64v1024q0 35 -10 63t-47 42q-38 13 -75.5 18.5t-64.5 7.5v71h648
q198 0 321.5 -95.5t123.5 -254.5zM880 827q34 48 45 99.5t11 92.5q0 57 -13.5 116t-46.5 103q-35 47 -92 73t-142 26h-141v-627h102q108 0 175.5 33.5t101.5 83.5z" />
    <glyph glyph-name="Nu" unicode="&#x39d;" horiz-adv-x="1524" 
d="M1244 1251q94 -98 147 -236.5t53 -306.5q0 -134 -35 -248t-99 -204q-61 -86 -145 -150t-188 -101q2 -110 79 -197.5t166 -87.5q82 0 125 5.5t71 10.5v-79q-45 -13 -112.5 -27.5t-187.5 -14.5q-67 0 -131 19.5t-116 62.5t-86.5 109t-44.5 162q-143 5 -265 61.5t-209 154.5
q-88 99 -137 232.5t-49 291.5q0 173 54 308.5t149 234.5q94 98 218.5 150t260.5 52q141 0 266 -53t216 -149zM1095 245q56 91 81.5 206t25.5 257q0 146 -28.5 268t-83.5 208q-55 85 -138 132.5t-190 47.5q-120 0 -204 -55t-137 -147q-50 -88 -74.5 -206t-24.5 -248
q0 -144 26 -260t82 -206q54 -88 136 -137.5t196 -49.5q107 0 193 50t140 140z" />
    <glyph glyph-name="Xi" unicode="&#x39e;" horiz-adv-x="1420" 
d="M1274 989h-70q-11 31 -26.5 81t-33.5 83q-23 40 -51.5 64.5t-81.5 25.5l-167.5 3.5t-137.5 1.5q-93 0 -164 -2t-133 -3q-39 0 -72 -21t-60 -69q-20 -36 -35 -85.5t-26 -78.5h-70l27 430h1074zM1027 470h-70q-7 35 -17.5 68.5t-24.5 55.5q-14 24 -63 30t-142 6
q-96 0 -143.5 -6.5t-61.5 -29.5q-17 -28 -25.5 -57t-16.5 -67h-70v479h70q8 -42 16.5 -69t25.5 -55q13 -23 62 -29.5t143 -6.5q89 0 141 7t64 29q12 21 22.5 49.5t19.5 74.5h70v-479zM1304 433l-47 -433h-1094l-47 433h70l29.5 -81t41.5 -83q24 -37 60 -63.5t82 -26.5
q75 -1 151 -3t156 -2q75 0 149 1.5l166 3.5q47 1 82.5 25.5t60.5 64.5q27 45 43.5 90l26.5 74h70z" />
    <glyph glyph-name="Omicron" unicode="&#x39f;" horiz-adv-x="1437" 
d="M1480 0h-382q-127 199 -229.5 344t-222.5 299h-145v-450q0 -35 11 -61.5t47 -40.5q18 -7 63 -13t76 -7v-71h-600v71q24 2 69.5 7t63.5 13q30 13 43.5 38t13.5 64v1026q0 35 -10 62t-47 41q-25 9 -65 16.5t-68 9.5v71h655q90 0 169 -18.5t143 -59.5q62 -40 99 -104.5
t37 -155.5q0 -82 -25 -145t-74 -109q-45 -43 -108 -74.5t-139 -53.5l174.5 -234l170.5 -231q44 -60 79.5 -88.5t70.5 -46.5q26 -13 65 -20t65 -8v-71zM954 1058q0 129 -74 204.5t-209 75.5h-170v-609h131q138 0 230 88.5t92 240.5z" />
    <glyph glyph-name="Pi" unicode="&#x3a0;" horiz-adv-x="1655" 
d="M1553 0h-589v71l69.5 6t62.5 12q30 12 44 36.5t14 63.5v1140h-653v-1129q0 -35 11.5 -59t45.5 -42q17 -9 60.5 -18t68.5 -10v-71h-589v71l69.5 6t62.5 12q30 12 44 36.5t14 63.5v1024q0 32 -13 58.5t-45 41.5q-27 13 -65.5 23t-66.5 12v71h1455v-71q-28 -1 -68.5 -9
t-60.5 -15q-34 -12 -45.5 -40t-11.5 -61v-1023q0 -35 11.5 -59t45.5 -42q17 -9 60.5 -18t68.5 -10v-71z" />
    <glyph glyph-name="Rho" unicode="&#x3a1;" horiz-adv-x="1149" 
d="M981 651q45 -50 66.5 -109.5t21.5 -138.5q0 -188 -139 -310t-345 -122q-95 0 -190 29.5t-164 71.5l-43 -73h-80l-14 486h81q25 -90 58.5 -162.5t88.5 -135.5q52 -59 121.5 -94t161.5 -35q69 0 120.5 18t83.5 51t47.5 77.5t15.5 102.5q0 85 -48 158.5t-143 111.5
l-149 57.5t-145 59.5q-120 54 -186.5 141.5t-66.5 228.5q0 81 33 151t94 125q58 52 137 81.5t165 29.5q98 0 175.5 -30t141.5 -70l41 68h80l8 -471h-81q-22 81 -49.5 155t-71.5 134q-43 58 -105 92.5t-152 34.5q-95 0 -162 -61t-67 -149q0 -92 43 -152.5t125 -99.5
q73 -35 143.5 -60.5t136.5 -54.5q60 -26 115.5 -59t96.5 -77z" />
    <glyph glyph-name="Sigma" unicode="&#x3a3;" horiz-adv-x="1236" 
d="M1201 443l-47 -443h-1130v35l571 636l-555 713v35h1070v-377h-71q-22 100 -84.5 188.5t-129.5 99.5q-30 5 -85.5 7.5t-90.5 2.5h-309l445 -572v-16l-520 -576h653q45 0 80 27t60 69q23 38 41 84.5t32 86.5h70z" />
    <glyph glyph-name="Tau" unicode="&#x3a4;" horiz-adv-x="1549" 
d="M1533 1348q-28 -1 -82 -12t-88 -33q-34 -23 -47 -95t-13 -176v-617q0 -118 -49 -205t-129 -143q-79 -54 -166.5 -77.5t-167.5 -23.5q-128 0 -228 33.5t-168 90.5q-67 57 -101 130.5t-34 153.5v839q0 35 -11.5 58.5t-46.5 43.5q-25 14 -64 22.5t-64 10.5v71h591v-71
q-28 -1 -70.5 -9t-62.5 -15q-34 -12 -45.5 -40t-11.5 -61v-784q0 -57 12.5 -119.5t49.5 -116.5q39 -55 106 -90t184 -35q110 0 184.5 35t117.5 92q41 54 58 113t17 119v582q0 111 -16 181.5t-47 92.5q-35 25 -95.5 39t-92.5 16v71h580v-71z" />
    <glyph glyph-name="Upsilon" unicode="&#x3a5;" horiz-adv-x="1232" 
d="M1214 443l-47 -443h-1140v35l893 1305h-327q-57 0 -95.5 -2t-70.5 -8q-66 -13 -148.5 -109t-124.5 -203h-70l43 401h1063v-35l-893 -1305h337q85 0 181 12t125 41q65 62 121 152t83 159h70z" />
    <glyph glyph-name="Phi" unicode="&#x3a6;" horiz-adv-x="1570" 
d="M367 462q51 -86 131 -124t183 -38v832h-42q-91 0 -156.5 -36t-108.5 -102q-36 -57 -53 -130.5t-17 -148.5q0 -52 9.5 -114.5t53.5 -138.5zM1202 462q39 67 51.5 135.5t12.5 117.5q0 64 -17 143t-53 136q-38 60 -103 99t-162 39h-42v-832q109 0 188.5 43.5t124.5 118.5z
M1325 351q-82 -64 -193.5 -98t-243.5 -34v-45q0 -35 11.5 -58t47.5 -37q18 -7 62.5 -12.5t82.5 -6.5v-70h-601v70q24 2 69.5 6.5t63.5 12.5q30 13 44 36t14 59v45q-132 0 -244.5 33t-195.5 99q-82 66 -128.5 163t-46.5 225q0 98 33.5 181t109.5 151q73 65 189 102.5
t273 37.5h10v27q0 33 -11.5 56t-46.5 38q-29 13 -67.5 21t-67.5 10v70h592v-70q-29 -1 -67 -5.5t-67 -14.5q-34 -12 -46.5 -36.5t-12.5 -58.5v-37h10q157 0 272 -37t190 -103q74 -66 108.5 -151t34.5 -181q0 -126 -48.5 -225t-129.5 -163z" />
    <glyph glyph-name="Chi" unicode="&#x3a7;" horiz-adv-x="1260" 
d="M1314 1348q-17 -1 -54 -13.5t-53 -24.5q-39 -24 -53 -37t-54 -68q-78 -110 -144 -223l-165 -287q-37 -64 -49 -103t-12 -113v-271q0 -36 14.5 -62.5t49.5 -42.5q21 -8 75 -19.5t87 -12.5v-71h-664v71q28 2 84 7.5t78 14.5q36 15 49.5 41t13.5 64v345q0 16 -19.5 58.5
t-46.5 94.5l-133 251l-127 231q-33 57 -58.5 86t-58.5 51q-24 15 -57.5 23t-60.5 10v71h605v-71q-102 -2 -144 -14t-42 -34q0 -6 6 -21t17 -38l31 -59.5l34 -64.5l96 -177.5l128 -230.5l239.5 394.5t82.5 169.5q0 23 -17 37t-45 22q-29 8 -63 10.5t-63 5.5v71h493v-71z" />
    <glyph glyph-name="Psi" unicode="&#x3a8;" horiz-adv-x="1791" 
d="M1759 1348q-23 -2 -60 -7.5t-68 -16.5q-37 -13 -47 -42t-10 -59v-293q0 -126 -41 -216.5t-117 -147.5q-75 -57 -180 -85.5t-234 -32.5v-240q0 -36 14.5 -62.5t49.5 -42.5q17 -8 74 -19.5t83 -12.5v-71h-654v71q27 2 81 7.5t76 14.5q36 15 49.5 41t13.5 64v250
q-128 4 -232 31.5t-181 85.5q-76 59 -117.5 147t-41.5 218v283q0 35 -11.5 58.5t-46.5 43.5q-27 15 -65.5 23t-61.5 10v71h399v-507q0 -76 14.5 -138t56.5 -118q40 -52 110.5 -85.5t176.5 -38.5v681q0 32 -12.5 58.5t-44.5 41.5q-27 13 -63.5 23t-64.5 12v71h579v-71
q-29 -1 -67 -9t-58 -15q-34 -12 -45 -39t-11 -62v-691q110 7 179 39.5t109 85.5q38 50 54 115.5t16 139.5v507h399v-71z" />
    <glyph glyph-name="Omega" unicode="&#x3a9;" horiz-adv-x="1595" 
d="M1566 388l-69 -388h-590v68l120.5 175t96.5 167q42 89 63 171t21 200q0 83 -17.5 192.5t-58.5 189.5q-56 106 -140 153.5t-193 47.5t-194 -50t-137 -152q-41 -79 -59 -181.5t-18 -199.5q0 -110 22 -199.5t63 -173.5q39 -83 99.5 -172l116.5 -168v-68h-593l-69 388h69
l29.5 -71.5t36.5 -67.5q21 -33 47 -53t66 -20h230v33l-140 163.5t-116 157.5q-47 76 -74.5 167.5t-27.5 195.5q0 115 47 213.5t135 178.5q84 76 205.5 122t261.5 46q146 0 266.5 -46.5t205.5 -123.5q85 -78 131.5 -178.5t46.5 -211.5q0 -104 -26 -193.5t-75 -170.5
q-50 -81 -119.5 -163l-137.5 -157v-33h227q37 0 65 20.5t48 52.5q23 36 37 69l29 70h69z" />
    <glyph glyph-name="Iotadieresis" unicode="&#x3aa;" horiz-adv-x="1236" 
d="M1237 422l-30 -422h-1109v71q24 2 69.5 7t63.5 13q30 13 43.5 38t13.5 64v1016q0 34 -11.5 60t-45.5 42q-23 12 -64.5 23.5t-68.5 13.5v71h599v-71q-28 -1 -72.5 -10t-64.5 -16q-34 -12 -46.5 -41t-12.5 -62v-953q0 -66 6.5 -102.5t30.5 -56.5q23 -18 68.5 -23.5
t127.5 -5.5q37 0 77 2t76 8q35 6 64.5 16.5t43.5 26.5q41 46 95.5 139.5t75.5 151.5h71zM732 1730q0 -51 -34.5 -87t-83.5 -36t-83.5 36t-34.5 87t34.5 87t83.5 36t83.5 -36t34.5 -87zM302 1730q0 -51 -34.5 -87t-83.5 -36t-83.5 36t-34.5 87t34.5 87t83.5 36t83.5 -36
t34.5 -87z" />
    <glyph glyph-name="Upsilondieresis" unicode="&#x3ab;" horiz-adv-x="1232" 
d="M1214 443l-47 -443h-1140v35l893 1305h-327q-57 0 -95.5 -2t-70.5 -8q-66 -13 -148.5 -109t-124.5 -203h-70l43 401h1063v-35l-893 -1305h337q85 0 181 12t125 41q65 62 121 152t83 159h70zM1012 1730q0 -51 -34.5 -87t-83.5 -36t-83.5 36t-34.5 87t34.5 87t83.5 36
t83.5 -36t34.5 -87zM562 1730q0 -51 -34.5 -87t-83.5 -36t-83.5 36t-34.5 87t34.5 87t83.5 36t83.5 -36t34.5 -87z" />
    <glyph glyph-name="alphatonos" unicode="&#x3ac;" horiz-adv-x="1224" 
d="M1229 19q-51 -18 -107 -29t-88 -11q-84 0 -127 48.5t-60 173.5q-26 -43 -63.5 -88.5t-78.5 -73.5q-47 -33 -95 -50.5t-116 -17.5q-83 0 -159.5 37t-135.5 106t-93 166t-34 214q0 107 36 203t101 169q62 69 147.5 108t177.5 39q119 0 202 -57.5t122 -160.5l25 191h186
q-7 -71 -30.5 -212t-54.5 -308q3 -147 33.5 -245.5t78.5 -126.5q15 -9 57 -10t76 -1v-64zM828 523q-7 73 -23 148t-48 133q-31 59 -80.5 95.5t-122.5 36.5q-118 0 -195.5 -121t-77.5 -333q0 -81 17 -153.5t48 -125.5q33 -56 86.5 -90.5t127.5 -34.5q122 0 190 109.5
t78 335.5zM709 1538q-22 -60 -53.5 -163.5t-58.5 -235.5h-59q-27 134 -60 240.5t-52 158.5v20h283v-20z" />
    <glyph glyph-name="epsilontonos" unicode="&#x3ad;" horiz-adv-x="959" 
d="M940 252q-68 -141 -180.5 -211t-250.5 -70q-81 0 -156.5 16.5t-136.5 53.5q-60 36 -96 92t-36 130q0 67 26 113.5t69 79.5q41 30 90 44t98 17v10q-75 13 -125 39t-77 57q-27 32 -37 67t-10 69q0 39 18 80.5t68 83.5q45 39 123 64.5t186 25.5q173 0 268 -62.5t95 -168.5
q0 -48 -22 -85.5t-77 -37.5q-59 0 -90.5 28.5t-31.5 64.5q0 37 7 71t13 71q-20 17 -66 30t-94 13q-91 0 -143 -52.5t-52 -123.5q0 -106 48.5 -153t164.5 -47h83v-93h-108q-67 0 -109.5 -17t-67.5 -44q-24 -27 -33 -61.5t-9 -69.5q0 -100 69 -151t178 -51q112 0 191 52
t143 169zM649 1538q-22 -60 -53.5 -163.5t-58.5 -235.5h-59q-27 134 -60 240.5t-52 158.5v20h283v-20z" />
    <glyph glyph-name="etatonos" unicode="&#x3ae;" horiz-adv-x="1169" 
d="M1003 -444h-187v1119q0 106 -52 162.5t-126 56.5q-46 0 -88.5 -15t-80.5 -43q-32 -22 -51.5 -47.5t-30.5 -43.5v-745h-186v777q0 34 -13.5 62t-41.5 47q-18 12 -44.5 17.5t-56.5 7.5v65l328 22l14 -14v-139h5q23 24 60 57.5t69 54.5q37 24 87.5 40t111.5 16
q142 0 212.5 -88.5t70.5 -235.5v-1133zM724 1538q-22 -60 -53.5 -163.5t-58.5 -235.5h-59q-27 134 -60 240.5t-52 158.5v20h283v-20z" />
    <glyph glyph-name="iotatonos" unicode="&#x3af;" horiz-adv-x="605" 
d="M598 17q-47 -16 -91.5 -27t-114.5 -11q-92 0 -140.5 56t-48.5 160l2 584q0 33 -13.5 59t-38.5 44q-19 12 -55 19.5t-66 9.5v65l344 22l14 -14v-775q0 -64 38.5 -97.5t104.5 -33.5q15 0 32 1l33 2v-64zM427 1538q-22 -60 -53.5 -163.5t-58.5 -235.5h-59q-27 134 -60 240.5
t-52 158.5v20h283v-20z" />
    </font>
</defs>
</svg>
